Lexend-Regular.ufo
<glyph name="exclam" format="2">
  <advance width="243.86206896551724"/>
  <unicode hex="0021"/>
  <outline>
    <contour>
      <point x="105.3448275862069" y="241.0" type="curve"/>
      <point x="141.75862068965517" y="241.0" type="line"/>
      <point x="156.42562068965518" y="357.0"/>
      <point x="160.51724137931035" y="506.0"/>
      <point x="160.51724137931035" y="630.0" type="curve" smooth="yes"/>
      <point x="160.51724137931035" y="700.0" type="line"/>
      <point x="86.58620689655173" y="700.0" type="line"/>
      <point x="86.58620689655173" y="630.0" type="line" smooth="yes"/>
      <point x="86.58620689655173" y="512.667"/>
      <point x="90.6778275862069" y="366.333"/>
    </contour>
    <contour>
      <point x="120.55172413793103" y="-10.344827586206897" type="curve" smooth="yes"/>
      <point x="152.2759655172414" y="-10.344827586206897"/>
      <point x="173.17241379310346" y="13.885275862068966"/>
      <point x="173.17241379310346" y="48.275862068965516" type="curve" smooth="yes"/>
      <point x="173.17241379310346" y="85.79310344827586"/>
      <point x="154.06896551724137" y="106.89655172413794"/>
      <point x="120.55172413793103" y="106.89655172413794" type="curve" smooth="yes"/>
      <point x="88.82748275862069" y="106.89655172413794"/>
      <point x="67.93103448275862" y="82.66644827586207"/>
      <point x="67.93103448275862" y="48.275862068965516" type="curve" smooth="yes"/>
      <point x="67.93103448275862" y="10.75862068965517"/>
      <point x="87.0344827586207" y="-10.344827586206897"/>
    </contour>
  </outline>
</glyph>
<glyph name="quotedbl" format="2">
  <advance width="391.6896551724138"/>
  <unicode hex="0022"/>
  <outline>
    <contour>
      <point x="162.1379310344828" y="442.0" type="line"/>
      <point x="206.41379310344828" y="442.0" type="line"/>
      <point x="278.2413793103448" y="700.0" type="line"/>
      <point x="191.6896551724138" y="700.0" type="line"/>
    </contour>
    <contour>
      <point x="117.24137931034481" y="442.0" type="line"/>
      <point x="161.51724137931032" y="442.0" type="line"/>
      <point x="232.99999999999997" y="700.0" type="line"/>
      <point x="147.13793103448273" y="700.0" type="line"/>
    </contour>
  </outline>
</glyph>
<glyph name="numbersign" format="2">
  <advance width="681.0"/>
  <unicode hex="0023"/>
  <outline>
    <contour>
      <point x="380.5" y="0.0" type="line"/>
      <point x="451.0" y="0.0" type="line"/>
      <point x="570.0" y="700.0" type="line"/>
      <point x="500.5" y="700.0" type="line"/>
    </contour>
    <contour>
      <point x="34.5" y="186.5" type="line"/>
      <point x="609.5" y="186.5" type="line"/>
      <point x="609.5" y="251.0" type="line"/>
      <point x="34.5" y="251.0" type="line"/>
    </contour>
    <contour>
      <point x="111.0" y="0.0" type="line"/>
      <point x="181.5" y="0.0" type="line"/>
      <point x="300.5" y="700.0" type="line"/>
      <point x="231.0" y="700.0" type="line"/>
    </contour>
    <contour>
      <point x="72.5" y="459.5" type="line"/>
      <point x="646.5" y="459.5" type="line"/>
      <point x="646.5" y="524.0" type="line"/>
      <point x="72.5" y="524.0" type="line"/>
    </contour>
  </outline>
</glyph>
<glyph name="dollar" format="2">
  <advance width="603.6896551724138"/>
  <unicode hex="0024"/>
  <outline>
    <contour>
      <point x="305.48275862068965" y="-10.0" type="curve" smooth="yes"/>
      <point x="450.58631034482755" y="-10.0"/>
      <point x="550.0" y="74.23"/>
      <point x="550.0" y="193.58620689655172" type="curve" smooth="yes"/>
      <point x="550.0" y="300.0689655172414"/>
      <point x="465.32217241379306" y="355.77"/>
      <point x="326.51724137931035" y="389.9310344827586" type="curve" smooth="yes"/>
      <point x="201.96541379310344" y="420.8734482758621"/>
      <point x="156.9655172413793" y="451.5861034482759"/>
      <point x="156.9655172413793" y="517.6551724137931" type="curve" smooth="yes"/>
      <point x="156.9655172413793" y="589.8389655172414"/>
      <point x="221.64379310344827" y="640.5172413793103"/>
      <point x="311.2068965517241" y="640.5172413793103" type="curve" smooth="yes"/>
      <point x="389.6896551724138" y="640.5172413793103"/>
      <point x="449.8388620689655" y="602.6665517241379"/>
      <point x="488.9655172413793" y="546.0689655172414" type="curve"/>
      <point x="539.4137931034483" y="595.5172413793103" type="line"/>
      <point x="494.49413793103446" y="662.4137931034483"/>
      <point x="420.2413793103448" y="706.7241379310345"/>
      <point x="312.2413793103448" y="706.7241379310345" type="curve" smooth="yes"/>
      <point x="184.97679310344827" y="706.7241379310345"/>
      <point x="86.3103448275862" y="627.1148275862068"/>
      <point x="86.3103448275862" y="517.2758620689655" type="curve" smooth="yes"/>
      <point x="86.3103448275862" y="408.72424137931034"/>
      <point x="157.8388620689655" y="351.2758620689655"/>
      <point x="293.1034482758621" y="320.6551724137931" type="curve" smooth="yes"/>
      <point x="416.45955172413795" y="292.33344827586205"/>
      <point x="479.3448275862069" y="260.77"/>
      <point x="479.3448275862069" y="181.9655172413793" type="curve" smooth="yes"/>
      <point x="479.3448275862069" y="108.95368965517241"/>
      <point x="406.67837931034484" y="56.206896551724135"/>
      <point x="310.58620689655174" y="56.206896551724135" type="curve" smooth="yes"/>
      <point x="221.80448275862068" y="56.206896551724135"/>
      <point x="159.19506896551724" y="93.20679310344828"/>
      <point x="101.72413793103448" y="163.82758620689654" type="curve"/>
      <point x="51.96551724137931" y="110.93103448275862" type="line"/>
      <point x="108.23410344827586" y="37.89734482758621"/>
      <point x="200.40355172413794" y="-10.0"/>
    </contour>
    <contour>
      <point x="268.41379310344826" y="-91.0" type="line"/>
      <point x="333.9655172413793" y="-91.0" type="line"/>
      <point x="333.9655172413793" y="330.0" type="line"/>
      <point x="268.41379310344826" y="363.0" type="line"/>
    </contour>
    <contour>
      <point x="350.37931034482756" y="330.0" type="line"/>
      <point x="350.37931034482756" y="782.0" type="line"/>
      <point x="284.82758620689657" y="782.0" type="line"/>
      <point x="284.82758620689657" y="363.0" type="line"/>
    </contour>
  </outline>
</glyph>
<glyph name="ampersand" format="2">
  <advance width="712.1379310344828"/>
  <unicode hex="0026"/>
  <outline>
    <contour>
      <point x="576.9655172413793" y="0.0" type="line"/>
      <point x="670.3448275862069" y="0.0" type="line"/>
      <point x="555.5172413793103" y="123.24137931034483" type="line"/>
      <point x="531.7586206896551" y="149.3448275862069" type="line"/>
      <point x="357.37931034482756" y="343.0" type="line" smooth="yes"/>
      <point x="315.1034482758621" y="389.62068965517244"/>
      <point x="241.3448275862069" y="465.17241379310343"/>
      <point x="241.3448275862069" y="529.7586206896551" type="curve" smooth="yes"/>
      <point x="241.3448275862069" y="602.7363103448275"/>
      <point x="291.7141379310345" y="641.8965517241379"/>
      <point x="374.3448275862069" y="641.8965517241379" type="curve" smooth="yes"/>
      <point x="441.16789655172414" y="641.8965517241379"/>
      <point x="485.6325172413793" y="614.7932068965517"/>
      <point x="513.5862068965517" y="544.7241379310345" type="curve"/>
      <point x="568.0" y="579.0" type="line"/>
      <point x="541.793" y="655.4596551724138"/>
      <point x="467.3906896551724" y="706.7241379310345"/>
      <point x="373.6896551724138" y="706.7241379310345" type="curve" smooth="yes"/>
      <point x="254.1033448275862" y="706.7241379310345"/>
      <point x="168.0" y="631.1723103448276"/>
      <point x="168.0" y="526.7586206896551" type="curve" smooth="yes"/>
      <point x="168.0" y="461.011275862069"/>
      <point x="207.2526551724138" y="407.2413793103448"/>
      <point x="295.0" y="308.0" type="curve" smooth="yes"/>
      <point x="484.37931034482756" y="99.93103448275862" type="line"/>
      <point x="502.3448275862069" y="78.6551724137931" type="line"/>
    </contour>
    <contour>
      <point x="312.55172413793105" y="-10.0" type="curve" smooth="yes"/>
      <point x="495.218724137931" y="-10.0"/>
      <point x="618.0" y="126.333"/>
      <point x="646.0" y="329.0" type="curve"/>
      <point x="576.9310344827586" y="329.0" type="line"/>
      <point x="554.2640344827586" y="163.9881724137931"/>
      <point x="460.1723103448276" y="55.51724137931034"/>
      <point x="324.0344827586207" y="55.51724137931034" type="curve" smooth="yes"/>
      <point x="207.8043793103448" y="55.51724137931034"/>
      <point x="122.31034482758619" y="126.62068965517241"/>
      <point x="122.31034482758619" y="223.72413793103448" type="curve" smooth="yes"/>
      <point x="122.31034482758619" y="304.0458620689655"/>
      <point x="172.36793103448275" y="361.9881724137931"/>
      <point x="264.6896551724138" y="385.8965517241379" type="curve"/>
      <point x="221.0" y="438.0" type="line"/>
      <point x="109.0" y="396.667"/>
      <point x="50.0" y="316.0226551724138"/>
      <point x="50.0" y="215.93103448275863" type="curve" smooth="yes"/>
      <point x="50.0" y="85.44827586206897"/>
      <point x="159.40196551724136" y="-10.0"/>
    </contour>
  </outline>
</glyph>
<glyph name="quotesingle" format="2">
  <advance width="197.13793103448276"/>
  <unicode hex="0027"/>
  <outline>
    <contour>
      <point x="45.51724137931035" y="442.0" type="line"/>
      <point x="89.79310344827586" y="442.0" type="line"/>
      <point x="161.6206896551724" y="700.0" type="line"/>
      <point x="75.06896551724138" y="700.0" type="line"/>
    </contour>
  </outline>
</glyph>
<glyph name="parenleft" format="2">
  <advance width="355.51724137931035"/>
  <unicode hex="0028"/>
  <outline>
    <contour>
      <point x="276.8965517241379" y="-186.0" type="curve"/>
      <point x="315.8620689655172" y="-143.0" type="line"/>
      <point x="170.2526551724138" y="-41.34493103448276"/>
      <point x="93.10344827586206" y="98.13793103448276"/>
      <point x="93.10344827586206" y="258.0" type="curve" smooth="yes"/>
      <point x="93.10344827586206" y="417.86206896551727"/>
      <point x="170.2526551724138" y="557.3449310344828"/>
      <point x="315.8620689655172" y="659.0" type="curve"/>
      <point x="277.8965517241379" y="702.0" type="line"/>
      <point x="115.22955172413793" y="600.667"/>
      <point x="26.89655172413793" y="443.333"/>
      <point x="26.89655172413793" y="258.0" type="curve" smooth="yes"/>
      <point x="26.89655172413793" y="71.333"/>
      <point x="114.22955172413793" y="-84.667"/>
    </contour>
  </outline>
</glyph>
<glyph name="parenright" format="2">
  <advance width="358.0"/>
  <unicode hex="0029"/>
  <outline>
    <contour>
      <point x="77.0" y="-186.0" type="line"/>
      <point x="240.0" y="-85.0"/>
      <point x="328.0" y="73.0"/>
      <point x="328.0" y="258.0" type="curve" smooth="yes"/>
      <point x="328.0" y="445.0"/>
      <point x="241.0" y="601.0"/>
      <point x="78.0" y="702.0" type="curve"/>
      <point x="35.0" y="654.5" type="line"/>
      <point x="178.5" y="554.5"/>
      <point x="254.5" y="416.0"/>
      <point x="254.5" y="258.0" type="curve" smooth="yes"/>
      <point x="254.5" y="100.0"/>
      <point x="178.5" y="-38.5"/>
      <point x="35.0" y="-138.5" type="curve"/>
    </contour>
  </outline>
</glyph>
<glyph name="asterisk" format="2">
  <advance width="393.55172413793105"/>
  <unicode hex="002A"/>
  <outline>
    <contour>
      <point x="169.48275862068965" y="376.0" type="line"/>
      <point x="225.48275862068965" y="376.0" type="line"/>
      <point x="217.48275862068965" y="510.0" type="line"/>
      <point x="207.79310344827587" y="509.37931034482756" type="line"/>
      <point x="325.55172413793105" y="434.7931034482759" type="line"/>
      <point x="353.37931034482756" y="482.41379310344826" type="line"/>
      <point x="228.27586206896552" y="543.3103448275862" type="line"/>
      <point x="228.27586206896552" y="531.6551724137931" type="line"/>
      <point x="353.7241379310345" y="593.2068965517242" type="line"/>
      <point x="326.55172413793105" y="641.1724137931035" type="line"/>
      <point x="206.51724137931035" y="565.2758620689655" type="line"/>
      <point x="217.13793103448276" y="557.9310344827586" type="line"/>
      <point x="225.48275862068965" y="700.0" type="line"/>
      <point x="169.48275862068965" y="700.0" type="line"/>
      <point x="177.48275862068965" y="560.1034482758621" type="line"/>
      <point x="185.75862068965517" y="566.6206896551724" type="line"/>
      <point x="67.34482758620689" y="641.8620689655172" type="line"/>
      <point x="39.827586206896555" y="594.2413793103449" type="line"/>
      <point x="165.58620689655172" y="532.3793103448276" type="line"/>
      <point x="166.27586206896552" y="543.2758620689655" type="line"/>
      <point x="40.51724137931035" y="482.0689655172414" type="line"/>
      <point x="68.34482758620689" y="434.1034482758621" type="line"/>
      <point x="184.44827586206895" y="508.0344827586207" type="line"/>
      <point x="177.48275862068965" y="510.6551724137931" type="line"/>
    </contour>
  </outline>
</glyph>
<glyph name="plus" format="2">
  <advance width="591.0"/>
  <unicode hex="002B"/>
  <outline>
    <contour>
      <point x="50.0" y="248.5" type="line"/>
      <point x="541.0" y="248.5" type="line"/>
      <point x="541.0" y="317.5" type="line"/>
      <point x="50.0" y="317.5" type="line"/>
    </contour>
    <contour>
      <point x="256.0" y="42.0" type="line"/>
      <point x="333.5" y="42.0" type="line"/>
      <point x="333.5" y="525.0" type="line"/>
      <point x="256.0" y="525.0" type="line"/>
    </contour>
  </outline>
</glyph>
<glyph name="comma" format="2">
  <advance width="244.72413793103448"/>
  <unicode hex="002C"/>
  <outline>
    <contour>
      <point x="81.44827586206897" y="-160.6551724137931" type="line"/>
      <point x="153.95424137931033" y="-123.46010344827586"/>
      <point x="192.82758620689654" y="-70.73596551724138"/>
      <point x="192.82758620689654" y="-2.5517241379310356" type="curve" smooth="yes"/>
      <point x="192.82758620689654" y="53.63251724137931"/>
      <point x="164.7585172413793" y="89.48275862068965"/>
      <point x="120.20689655172414" y="89.48275862068965" type="curve" smooth="yes"/>
      <point x="91.19562068965517" y="89.48275862068965"/>
      <point x="72.3103448275862" y="72.28275862068965"/>
      <point x="72.3103448275862" y="46.310344827586206" type="curve" smooth="yes"/>
      <point x="72.3103448275862" y="29.29858620689655"/>
      <point x="80.54313793103448" y="14.387206896551723"/>
      <point x="97.75862068965517" y="-0.5862068965517251" type="curve" smooth="yes"/>
      <point x="119.96562068965517" y="-20.63251724137931"/>
      <point x="121.79310344827586" y="-31.50586206896552"/>
      <point x="121.79310344827586" y="-46.58620689655172" type="curve" smooth="yes"/>
      <point x="121.79310344827586" y="-73.66655172413793"/>
      <point x="97.10334482758621" y="-103.71231034482759"/>
      <point x="56.55172413793103" y="-127.75862068965517" type="curve"/>
    </contour>
  </outline>
</glyph>
<glyph name="hyphen" format="2">
  <advance width="394.0"/>
  <unicode hex="002D"/>
  <outline>
    <contour>
      <point x="56.275862068965516" y="242.20689655172413" type="line"/>
      <point x="337.7241379310345" y="242.20689655172413" type="line"/>
      <point x="337.7241379310345" y="310.7931034482759" type="line"/>
      <point x="56.275862068965516" y="310.7931034482759" type="line"/>
    </contour>
  </outline>
</glyph>
<glyph name="period" format="2">
  <advance width="228.0"/>
  <unicode hex="002E"/>
  <outline>
    <contour>
      <point x="114.0" y="-10.5" type="curve" smooth="yes"/>
      <point x="148.0" y="-10.5"/>
      <point x="170.5" y="15.3335"/>
      <point x="170.5" y="52.0" type="curve" smooth="yes"/>
      <point x="170.5" y="92.0"/>
      <point x="150.0" y="114.5"/>
      <point x="114.0" y="114.5" type="curve" smooth="yes"/>
      <point x="80.0" y="114.5"/>
      <point x="57.5" y="88.6665"/>
      <point x="57.5" y="52.0" type="curve" smooth="yes"/>
      <point x="57.5" y="12.0"/>
      <point x="78.0" y="-10.5"/>
    </contour>
  </outline>
</glyph>
<glyph name="slash" format="2">
  <advance width="560.9310344827586"/>
  <unicode hex="002F"/>
  <outline>
    <contour>
      <point x="42.241379310344826" y="-115.62068965517241" type="line"/>
      <point x="112.75862068965517" y="-115.62068965517241" type="line"/>
      <point x="515.2413793103449" y="700.0" type="line"/>
      <point x="446.37931034482756" y="700.0" type="line"/>
    </contour>
  </outline>
</glyph>
<glyph name="zero" format="2">
  <advance width="612.8965517241379"/>
  <unicode hex="0030"/>
  <outline>
    <contour>
      <point x="306.2758620689655" y="-10.0" type="curve" smooth="yes"/>
      <point x="469.7698965517242" y="-10.0"/>
      <point x="564.2758620689655" y="122.55162068965517"/>
      <point x="564.2758620689655" y="350.0" type="curve" smooth="yes"/>
      <point x="564.2758620689655" y="577.4483793103449"/>
      <point x="469.7698965517242" y="710.0"/>
      <point x="306.2758620689655" y="710.0" type="curve" smooth="yes"/>
      <point x="142.7818275862069" y="710.0"/>
      <point x="48.62068965517241" y="577.4483793103449"/>
      <point x="48.62068965517241" y="350.0" type="curve" smooth="yes"/>
      <point x="48.62068965517241" y="122.55162068965517"/>
      <point x="142.7818275862069" y="-10.0"/>
    </contour>
    <contour>
      <point x="306.2758620689655" y="56.55172413793103" type="curve" smooth="yes"/>
      <point x="186.23" y="56.55172413793103"/>
      <point x="119.20689655172413" y="162.3674827586207"/>
      <point x="119.20689655172413" y="350.0" type="curve" smooth="yes"/>
      <point x="119.20689655172413" y="537.6325172413793"/>
      <point x="186.23" y="643.448275862069"/>
      <point x="306.2758620689655" y="643.448275862069" type="curve" smooth="yes"/>
      <point x="426.321724137931" y="643.448275862069"/>
      <point x="493.3448275862069" y="537.6325172413793"/>
      <point x="493.3448275862069" y="350.0" type="curve" smooth="yes"/>
      <point x="493.3448275862069" y="162.3674827586207"/>
      <point x="426.321724137931" y="56.55172413793103"/>
    </contour>
  </outline>
</glyph>
<glyph name="one" format="2">
  <advance width="446.9310344827586"/>
  <unicode hex="0031"/>
  <outline>
    <contour>
      <point x="204.55172413793105" y="29.999999999999996" type="line"/>
      <point x="274.8965517241379" y="29.999999999999996" type="line"/>
      <point x="274.8965517241379" y="710.0" type="line"/>
      <point x="251.72413793103448" y="710.0" type="line"/>
      <point x="82.41379310344827" y="608.0344827586207" type="line"/>
      <point x="102.89655172413794" y="543.5172413793103" type="line"/>
      <point x="231.72413793103448" y="623.7241379310345" type="line"/>
      <point x="204.55172413793105" y="643.2068965517242" type="line"/>
    </contour>
    <contour>
      <point x="104.03448275862068" y="0.0" type="line"/>
      <point x="378.41379310344826" y="0.0" type="line"/>
      <point x="378.41379310344826" y="68.62068965517241" type="line"/>
      <point x="104.03448275862068" y="68.62068965517241" type="line"/>
    </contour>
  </outline>
</glyph>
<glyph name="two" format="2">
  <advance width="548.0"/>
  <unicode hex="0032"/>
  <outline>
    <contour>
      <point x="93.0" y="0.0" type="line"/>
      <point x="516.0" y="0.0" type="line"/>
      <point x="516.0" y="66.6551724137931" type="line"/>
      <point x="145.79310344827587" y="66.6551724137931" type="line"/>
      <point x="154.65517241379308" y="41.89655172413793" type="line"/>
      <point x="368.0344827586207" y="280.41379310344826" type="line" smooth="yes"/>
      <point x="445.6664482758621" y="368.13793103448273"/>
      <point x="494.0" y="442.5058620689655"/>
      <point x="494.0" y="524.2068965517242" type="curve" smooth="yes"/>
      <point x="494.0" y="634.5058620689655"/>
      <point x="404.8095517241379" y="710.0"/>
      <point x="290.3448275862069" y="710.0" type="curve" smooth="yes"/>
      <point x="178.54355172413793" y="710.0"/>
      <point x="86.95368965517241" y="647.3335517241379"/>
      <point x="51.0" y="524.3448275862069" type="curve"/>
      <point x="107.13793103448276" y="490.6896551724138" type="line"/>
      <point x="137.71231034482759" y="599.5635517241379"/>
      <point x="213.63568965517243" y="642.7586206896551"/>
      <point x="282.58620689655174" y="642.7586206896551" type="curve" smooth="yes"/>
      <point x="365.00479310344826" y="642.7586206896551"/>
      <point x="420.3448275862069" y="598.114724137931"/>
      <point x="420.3448275862069" y="522.7586206896551" type="curve" smooth="yes"/>
      <point x="420.3448275862069" y="456.45955172413795"/>
      <point x="357.52851724137935" y="373.0921724137931"/>
      <point x="312.65517241379314" y="323.0" type="curve" smooth="yes"/>
      <point x="71.79310344827586" y="51.86206896551724" type="line"/>
    </contour>
  </outline>
</glyph>
<glyph name="three" format="2">
  <advance width="529.0"/>
  <unicode hex="0033"/>
  <outline>
    <contour>
      <point x="256.8965517241379" y="-10.0" type="curve" smooth="yes"/>
      <point x="390.2758620689655" y="-10.0"/>
      <point x="493.3448275862069" y="89.90782758620689"/>
      <point x="493.3448275862069" y="219.79310344827587" type="curve" smooth="yes"/>
      <point x="493.3448275862069" y="344.62079310344825"/>
      <point x="396.1837931034483" y="443.0"/>
      <point x="271.86206896551727" y="443.0" type="curve" smooth="yes"/>
      <point x="245.22010344827586" y="443.0"/>
      <point x="220.8314827586207" y="434.5393448275862"/>
      <point x="202.41379310344828" y="422.17241379310343" type="curve"/>
      <point x="220.86206896551724" y="403.37931034482756" type="line"/>
      <point x="462.9655172413793" y="660.0" type="line"/>
      <point x="442.9655172413793" y="700.0" type="line"/>
      <point x="72.10344827586206" y="700.0" type="line"/>
      <point x="72.10344827586206" y="634.0689655172414" type="line"/>
      <point x="395.0" y="634.0689655172414" type="line"/>
      <point x="379.2413793103448" y="662.448275862069" type="line"/>
      <point x="123.27586206896552" y="385.7931034482759" type="line"/>
      <point x="145.41379310344828" y="328.41379310344826" type="line"/>
      <point x="195.62079310344828" y="366.7586206896552"/>
      <point x="233.9541379310345" y="376.1034482758621"/>
      <point x="266.41379310344826" y="376.1034482758621" type="curve" smooth="yes"/>
      <point x="356.8049310344827" y="376.1034482758621"/>
      <point x="422.7586206896552" y="309.71275862068967"/>
      <point x="422.7586206896552" y="217.06896551724137" type="curve" smooth="yes"/>
      <point x="422.7586206896552" y="126.17251724137931"/>
      <point x="351.2876896551724" y="55.51724137931034"/>
      <point x="262.2758620689655" y="55.51724137931034" type="curve" smooth="yes"/>
      <point x="193.58610344827585" y="55.51724137931034"/>
      <point x="134.76999999999998" y="85.97689655172414"/>
      <point x="78.44827586206895" y="174.6206896551724" type="curve"/>
      <point x="20.0" y="138.0" type="line"/>
      <point x="84.87334482758621" y="30.459655172413793"/>
      <point x="158.22955172413793" y="-10.0"/>
    </contour>
  </outline>
</glyph>
<glyph name="four" format="2">
  <advance width="620.0"/>
  <unicode hex="0034"/>
  <outline>
    <contour>
      <point x="387.3793103448276" y="0.0" type="line"/>
      <point x="456.0" y="0.0" type="line"/>
      <point x="456.0" y="700.0" type="line"/>
      <point x="400.51724137931035" y="700.0" type="line"/>
      <point x="40.48275862068966" y="259.6896551724138" type="line"/>
      <point x="75.34482758620689" y="190.0" type="line"/>
      <point x="578.0" y="190.0" type="line"/>
      <point x="578.0" y="256.8965517241379" type="line"/>
      <point x="93.86206896551724" y="256.8965517241379" type="line"/>
      <point x="102.44827586206895" y="237.68965517241378" type="line"/>
      <point x="408.44827586206895" y="611.7241379310345" type="line"/>
      <point x="387.3793103448276" y="618.3793103448276" type="line"/>
    </contour>
  </outline>
</glyph>
<glyph name="five" format="2">
  <advance width="568.0"/>
  <unicode hex="0035"/>
  <outline>
    <contour>
      <point x="257.0" y="-7.0" type="curve" smooth="yes"/>
      <point x="399.667" y="-7.0"/>
      <point x="508.0" y="99.1148275862069"/>
      <point x="508.0" y="238.6551724137931" type="curve" smooth="yes"/>
      <point x="508.0" y="372.4481724137931"/>
      <point x="409.5974827586207" y="468.0"/>
      <point x="280.7241379310345" y="468.0" type="curve" smooth="yes"/>
      <point x="216.03437931034483" y="468.0"/>
      <point x="142.52851724137932" y="441.41379310344826"/>
      <point x="108.55172413793103" y="413.55172413793105" type="curve"/>
      <point x="130.9310344827586" y="400.2758620689655" type="line"/>
      <point x="168.51724137931035" y="651.7586206896551" type="line"/>
      <point x="142.27586206896552" y="634.7241379310345" type="line"/>
      <point x="487.0" y="634.7241379310345" type="line"/>
      <point x="487.0" y="700.0" type="line"/>
      <point x="109.0" y="700.0" type="line"/>
      <point x="68.0" y="403.0" type="line"/>
      <point x="108.62068965517241" y="348.9310344827586" type="line"/>
      <point x="163.2414827586207" y="382.35665517241375"/>
      <point x="219.58610344827585" y="402.0689655172414"/>
      <point x="270.8965517241379" y="402.0689655172414" type="curve" smooth="yes"/>
      <point x="369.1950689655173" y="402.0689655172414"/>
      <point x="438.3793103448276" y="328.9655172413793"/>
      <point x="438.3793103448276" y="235.86206896551724" type="curve" smooth="yes"/>
      <point x="438.3793103448276" y="138.89655172413794"/>
      <point x="359.5403448275862" y="59.89655172413793"/>
      <point x="257.6551724137931" y="59.89655172413793" type="curve" smooth="yes"/>
      <point x="197.74679310344828" y="59.89655172413793"/>
      <point x="137.64379310344827" y="85.36793103448275"/>
      <point x="81.9655172413793" y="161.68965517241378" type="curve"/>
      <point x="39.0" y="115.0" type="line"/>
      <point x="88.333" y="36.333"/>
      <point x="165.0" y="-7.0"/>
    </contour>
  </outline>
</glyph>
<glyph name="six" format="2">
  <advance width="573.0"/>
  <unicode hex="0036"/>
  <outline>
    <contour>
      <point x="291.5" y="-5.0" type="curve" smooth="yes"/>
      <point x="422.83349999999996" y="-5.0"/>
      <point x="525.5" y="100.667"/>
      <point x="525.5" y="242.0" type="curve" smooth="yes"/>
      <point x="525.5" y="368.66650000000004"/>
      <point x="426.5" y="473.0"/>
      <point x="306.5" y="473.0" type="curve" smooth="yes"/>
      <point x="221.83350000000002" y="473.0"/>
      <point x="150.667" y="424.33349999999996"/>
      <point x="100.0" y="341.0" type="curve"/>
      <point x="115.0" y="267.5" type="line"/>
      <point x="145.0" y="348.16650000000004"/>
      <point x="180.0" y="425.83349999999996"/>
      <point x="228.0" y="506.5" type="curve" smooth="yes"/>
      <point x="341.0" y="696.0" type="line"/>
      <point x="337.0" y="706.0" type="line"/>
      <point x="259.5" y="706.0" type="line"/>
      <point x="158.0" y="534.0" type="line" smooth="yes"/>
      <point x="87.3335" y="415.33349999999996"/>
      <point x="50.0" y="310.83349999999996"/>
      <point x="50.0" y="243.5" type="curve" smooth="yes"/>
      <point x="50.0" y="98.1665"/>
      <point x="152.16649999999998" y="-5.0"/>
    </contour>
    <contour>
      <point x="288.5" y="69.5" type="curve" smooth="yes"/>
      <point x="197.167" y="69.5"/>
      <point x="128.5" y="141.66649999999998"/>
      <point x="128.5" y="235.0" type="curve" smooth="yes"/>
      <point x="128.5" y="325.667"/>
      <point x="197.5" y="398.0"/>
      <point x="289.5" y="398.0" type="curve" smooth="yes"/>
      <point x="377.5" y="398.0"/>
      <point x="447.0" y="323.167"/>
      <point x="447.0" y="234.5" type="curve" smooth="yes"/>
      <point x="447.0" y="139.833"/>
      <point x="378.5" y="69.5"/>
    </contour>
  </outline>
</glyph>
<glyph name="seven" format="2">
  <advance width="508.58620689655174"/>
  <unicode hex="0037"/>
  <outline>
    <contour>
      <point x="105.44827586206897" y="0.0" type="line"/>
      <point x="182.13793103448276" y="0.0" type="line"/>
      <point x="465.7241379310345" y="641.4827586206897" type="line"/>
      <point x="453.0344827586207" y="700.0" type="line"/>
      <point x="33.79310344827586" y="700.0" type="line"/>
      <point x="33.79310344827586" y="634.7241379310345" type="line"/>
      <point x="414.0" y="634.7241379310345" type="line"/>
      <point x="401.3448275862069" y="659.5172413793103" type="line"/>
    </contour>
  </outline>
</glyph>
<glyph name="eight" format="2">
  <advance width="579.6551724137931"/>
  <unicode hex="0038"/>
  <outline>
    <contour>
      <point x="289.6551724137931" y="-3.0" type="curve" smooth="yes"/>
      <point x="421.6551724137931" y="-3.0"/>
      <point x="526.0" y="86.23"/>
      <point x="526.0" y="201.31034482758622" type="curve" smooth="yes"/>
      <point x="526.0" y="276.43699999999995"/>
      <point x="466.60334482758617" y="353.34772413793104"/>
      <point x="379.55172413793105" y="383.62068965517244" type="curve"/>
      <point x="382.55172413793105" y="366.62068965517244" type="line"/>
      <point x="459.34337931034486" y="388.9564482758621"/>
      <point x="502.1034482758621" y="449.1265517241379"/>
      <point x="502.1034482758621" y="516.2068965517242" type="curve" smooth="yes"/>
      <point x="502.1034482758621" y="618.0458620689656"/>
      <point x="407.4941379310345" y="700.0"/>
      <point x="289.6551724137931" y="700.0" type="curve" smooth="yes"/>
      <point x="171.81620689655173" y="700.0"/>
      <point x="77.20689655172414" y="618.0458620689656"/>
      <point x="77.20689655172414" y="516.2068965517242" type="curve" smooth="yes"/>
      <point x="77.20689655172414" y="449.1265517241379"/>
      <point x="122.08444827586207" y="386.29306896551725"/>
      <point x="195.75862068965517" y="366.62068965517244" type="curve"/>
      <point x="201.75862068965517" y="387.62068965517244" type="line"/>
      <point x="106.68210344827587" y="349.79427586206896"/>
      <point x="53.6551724137931" y="283.1033448275862"/>
      <point x="53.6551724137931" y="201.31034482758622" type="curve" smooth="yes"/>
      <point x="53.6551724137931" y="87.563"/>
      <point x="158.9881724137931" y="-3.0"/>
    </contour>
    <contour>
      <point x="289.6551724137931" y="64.24137931034483" type="curve" smooth="yes"/>
      <point x="196.23" y="64.24137931034483"/>
      <point x="125.27586206896552" y="126.0921724137931"/>
      <point x="125.27586206896552" y="202.68965517241378" type="curve" smooth="yes"/>
      <point x="125.27586206896552" y="282.1049310344828"/>
      <point x="196.23" y="338.9655172413793"/>
      <point x="289.6551724137931" y="338.9655172413793" type="curve" smooth="yes"/>
      <point x="384.41368965517245" y="338.9655172413793"/>
      <point x="454.3793103448276" y="282.1049310344828"/>
      <point x="454.3793103448276" y="202.68965517241378" type="curve" smooth="yes"/>
      <point x="454.3793103448276" y="124.75851724137931"/>
      <point x="384.41368965517245" y="64.24137931034483"/>
    </contour>
    <contour>
      <point x="289.6551724137931" y="398.2758620689655" type="curve" smooth="yes"/>
      <point x="209.05768965517242" y="398.2758620689655"/>
      <point x="148.82758620689654" y="447.20679310344826"/>
      <point x="148.82758620689654" y="514.5172413793103" type="curve" smooth="yes"/>
      <point x="148.82758620689654" y="580.9536896551724"/>
      <point x="209.05768965517242" y="632.7586206896551"/>
      <point x="289.6551724137931" y="632.7586206896551" type="curve" smooth="yes"/>
      <point x="370.2526551724138" y="632.7586206896551"/>
      <point x="430.48275862068965" y="580.9536896551724"/>
      <point x="430.48275862068965" y="514.5172413793103" type="curve" smooth="yes"/>
      <point x="430.48275862068965" y="446.33344827586205"/>
      <point x="370.2526551724138" y="398.2758620689655"/>
    </contour>
  </outline>
</glyph>
<glyph name="nine" format="2">
  <advance width="550.0"/>
  <unicode hex="0039"/>
  <outline>
    <contour>
      <point x="253.0" y="0.0" type="line"/>
      <point x="329.0" y="0.0" type="line"/>
      <point x="412.0" y="174.0" type="line" smooth="yes"/>
      <point x="468.33349999999996" y="293.33349999999996"/>
      <point x="512.5" y="398.66650000000004"/>
      <point x="512.5" y="477.5" type="curve" smooth="yes"/>
      <point x="512.5" y="607.5"/>
      <point x="408.16650000000004" y="711.0"/>
      <point x="275.5" y="711.0" type="curve" smooth="yes"/>
      <point x="140.833" y="711.0"/>
      <point x="35.0" y="607.0"/>
      <point x="35.0" y="469.0" type="curve" smooth="yes"/>
      <point x="35.0" y="345.0"/>
      <point x="133.16649999999998" y="243.0"/>
      <point x="252.5" y="243.0" type="curve" smooth="yes"/>
      <point x="335.167" y="243.0"/>
      <point x="408.0" y="293.66650000000004"/>
      <point x="460.0" y="385.0" type="curve"/>
      <point x="453.5" y="435.0" type="line"/>
      <point x="249.0" y="10.0" type="line"/>
    </contour>
    <contour>
      <point x="269.5" y="318.0" type="curve" smooth="yes"/>
      <point x="184.16649999999998" y="318.0"/>
      <point x="117.0" y="390.5"/>
      <point x="117.0" y="476.5" type="curve" smooth="yes"/>
      <point x="117.0" y="568.5"/>
      <point x="183.16649999999998" y="636.5"/>
      <point x="270.5" y="636.5" type="curve" smooth="yes"/>
      <point x="360.5" y="636.5"/>
      <point x="428.0" y="566.667"/>
      <point x="428.0" y="476.0" type="curve" smooth="yes"/>
      <point x="428.0" y="388.0"/>
      <point x="359.5" y="318.0"/>
    </contour>
  </outline>
</glyph>
<glyph name="less" format="2">
  <advance width="506.5"/>
  <unicode hex="003C"/>
  <outline>
    <contour>
      <point x="408.5" y="14.5" type="line"/>
      <point x="444.0" y="70.5" type="line"/>
      <point x="89.5" y="274.5" type="line"/>
      <point x="89.5" y="229.5" type="line"/>
      <point x="444.0" y="433.5" type="line"/>
      <point x="408.5" y="489.5" type="line"/>
      <point x="52.0" y="285.0" type="line"/>
      <point x="52.0" y="219.0" type="line"/>
    </contour>
  </outline>
</glyph>
<glyph name="equal" format="2">
  <advance width="566.0"/>
  <unicode hex="003D"/>
  <outline>
    <contour>
      <point x="55.0" y="336.0" type="line"/>
      <point x="511.0" y="336.0" type="line"/>
      <point x="511.0" y="405.0" type="line"/>
      <point x="55.0" y="405.0" type="line"/>
    </contour>
    <contour>
      <point x="55.0" y="157.5" type="line"/>
      <point x="511.0" y="157.5" type="line"/>
      <point x="511.0" y="226.0" type="line"/>
      <point x="55.0" y="226.0" type="line"/>
    </contour>
  </outline>
</glyph>
<glyph name="greater" format="2">
  <advance width="501.0689655172414"/>
  <unicode hex="003E"/>
  <outline>
    <contour>
      <point x="93.34482758620689" y="17.758620689655174" type="line"/>
      <point x="448.44827586206895" y="221.48275862068965" type="line"/>
      <point x="448.44827586206895" y="282.82758620689657" type="line"/>
      <point x="93.34482758620689" y="486.55172413793105" type="line"/>
      <point x="61.724137931034484" y="436.44827586206895" type="line"/>
      <point x="414.82758620689657" y="233.0689655172414" type="line"/>
      <point x="414.82758620689657" y="271.2413793103448" type="line"/>
      <point x="61.724137931034484" y="67.86206896551724" type="line"/>
    </contour>
  </outline>
</glyph>
<glyph name="question" format="2">
  <advance width="502.48275862068965"/>
  <unicode hex="003F"/>
  <outline>
    <contour>
      <point x="204.13793103448276" y="204.44827586206895" type="line"/>
      <point x="257.55172413793105" y="204.44827586206895" type="line"/>
      <point x="270.15241379310345" y="297.75986206896556" type="line"/>
      <point x="377.6991034482758" y="331.65455172413795"/>
      <point x="455.9310344827586" y="416.22862068965514"/>
      <point x="455.9310344827586" y="511.0" type="curve" smooth="yes"/>
      <point x="455.9310344827586" y="620.3793103448276"/>
      <point x="365.8157586206897" y="705.0689655172414"/>
      <point x="248.3448275862069" y="705.0689655172414" type="curve" smooth="yes"/>
      <point x="165.17251724137932" y="705.0689655172414"/>
      <point x="86.10355172413793" y="656.4714827586207"/>
      <point x="30.517241379310345" y="571.9655172413793" type="curve"/>
      <point x="79.9655172413793" y="529.9310344827586" type="line"/>
      <point x="123.82758620689656" y="602.7127586206897"/>
      <point x="182.39113793103448" y="638.8620689655172"/>
      <point x="243.58620689655172" y="638.8620689655172" type="curve" smooth="yes"/>
      <point x="323.81631034482757" y="638.8620689655172"/>
      <point x="382.2413793103448" y="584.5171379310344"/>
      <point x="382.2413793103448" y="511.0" type="curve" smooth="yes"/>
      <point x="382.2413793103448" y="427.59758620689655"/>
      <point x="321.47137931034484" y="369.41368965517245"/>
      <point x="189.93103448275863" y="335.62068965517244" type="curve"/>
    </contour>
    <contour>
      <point x="178.9655172413793" y="48.275862068965516" type="curve" smooth="yes"/>
      <point x="178.9655172413793" y="10.75862068965517"/>
      <point x="198.0689655172414" y="-10.344827586206897"/>
      <point x="231.58620689655172" y="-10.344827586206897" type="curve" smooth="yes"/>
      <point x="263.3104482758621" y="-10.344827586206897"/>
      <point x="284.2068965517241" y="13.885275862068966"/>
      <point x="284.2068965517241" y="48.275862068965516" type="curve" smooth="yes"/>
      <point x="284.2068965517241" y="85.79310344827586"/>
      <point x="265.1034482758621" y="106.89655172413794"/>
      <point x="231.58620689655172" y="106.89655172413794" type="curve" smooth="yes"/>
      <point x="199.86196551724137" y="106.89655172413794"/>
      <point x="178.9655172413793" y="82.66644827586207"/>
    </contour>
  </outline>
</glyph>
<glyph name="at" format="2">
  <advance width="974.1724137931035"/>
  <unicode hex="0040"/>
  <outline>
    <contour>
      <point x="418.58620689655174" y="-162.0" type="curve" smooth="yes"/>
      <point x="497.7128620689655" y="-162.0"/>
      <point x="583.7704482758621" y="-140.26458620689655"/>
      <point x="672.2758620689655" y="-89.0" type="curve"/>
      <point x="645.1034482758621" y="-41.0" type="line"/>
      <point x="578.2758620689655" y="-77.41379310344828"/>
      <point x="510.3448275862069" y="-105.58620689655173"/>
      <point x="420.2758620689655" y="-105.58620689655173" type="curve" smooth="yes"/>
      <point x="228.7818275862069" y="-105.58620689655173"/>
      <point x="106.3103448275862" y="20.688034482758617"/>
      <point x="106.3103448275862" y="214.89655172413794" type="curve" smooth="yes"/>
      <point x="106.3103448275862" y="460.5076896551724"/>
      <point x="291.9516206896552" y="654.2413793103449"/>
      <point x="560.8620689655172" y="654.2413793103449" type="curve" smooth="yes"/>
      <point x="745.9192068965517" y="654.2413793103449"/>
      <point x="868.2068965517242" y="549.9004827586207"/>
      <point x="868.2068965517242" y="387.0689655172414" type="curve" smooth="yes"/>
      <point x="868.2068965517242" y="227.02310344827586"/>
      <point x="786.2346206896551" y="110.79310344827586"/>
      <point x="699.3448275862069" y="110.79310344827586" type="curve" smooth="yes"/>
      <point x="664.4024137931035" y="110.79310344827586"/>
      <point x="646.4137931034483" y="136.6551724137931"/>
      <point x="655.0344827586207" y="184.48275862068965" type="curve" smooth="yes"/>
      <point x="711.2758620689655" y="501.0" type="line"/>
      <point x="645.0" y="501.0" type="line"/>
      <point x="624.2413793103449" y="360.48275862068965" type="line"/>
      <point x="644.9655172413793" y="385.41379310344826" type="line"/>
      <point x="621.7010344827586" y="469.64389655172414"/>
      <point x="564.3449310344828" y="510.0"/>
      <point x="494.2758620689655" y="510.0" type="curve" smooth="yes"/>
      <point x="358.17241379310343" y="510.0"/>
      <point x="261.82758620689657" y="372.13793103448273"/>
      <point x="261.82758620689657" y="234.3793103448276" type="curve" smooth="yes"/>
      <point x="261.82758620689657" y="127.2526551724138"/>
      <point x="328.42562068965515" y="55.0"/>
      <point x="419.0" y="55.0" type="curve" smooth="yes"/>
      <point x="510.35610344827586" y="55.0"/>
      <point x="586.5743793103449" y="114.75872413793104"/>
      <point x="619.8620689655172" y="216.41379310344828" type="curve"/>
      <point x="603.8965517241379" y="226.58620689655172" type="line"/>
      <point x="593.0344827586207" y="185.55172413793105"/>
      <point x="588.3448275862069" y="162.55172413793105"/>
      <point x="588.3448275862069" y="143.86206896551724" type="curve" smooth="yes"/>
      <point x="588.3448275862069" y="90.72413793103448"/>
      <point x="620.8506896551725" y="55.0"/>
      <point x="682.1034482758621" y="55.0" type="curve" smooth="yes"/>
      <point x="813.0" y="55.0"/>
      <point x="927.6206896551724" y="198.06886206896553"/>
      <point x="927.6206896551724" y="390.7586206896552" type="curve" smooth="yes"/>
      <point x="927.6206896551724" y="578.2989655172414"/>
      <point x="781.0112758620689" y="710.0"/>
      <point x="562.8965517241379" y="710.0" type="curve" smooth="yes"/>
      <point x="273.1034482758621" y="710.0"/>
      <point x="46.55172413793103" y="503.9310344827586"/>
      <point x="46.55172413793103" y="209.93103448275863" type="curve" smooth="yes"/>
      <point x="46.55172413793103" y="-11.816310344827585"/>
      <point x="192.24127586206896" y="-162.0"/>
    </contour>
    <contour>
      <point x="432.82758620689657" y="113.79310344827586" type="curve" smooth="yes"/>
      <point x="370.5014827586207" y="113.79310344827586"/>
      <point x="329.7586206896552" y="160.6895517241379"/>
      <point x="329.7586206896552" y="232.0" type="curve" smooth="yes"/>
      <point x="329.7586206896552" y="355.49458620689654"/>
      <point x="413.08079310344823" y="451.2068965517241"/>
      <point x="498.2758620689655" y="451.2068965517241" type="curve" smooth="yes"/>
      <point x="568.1610344827586" y="451.2068965517241"/>
      <point x="615.0" y="404.2645862068965"/>
      <point x="615.0" y="332.17241379310343" type="curve" smooth="yes"/>
      <point x="615.0" y="319.44827586206895"/>
      <point x="612.6506896551724" y="306.04275862068965"/>
      <point x="609.3103448275862" y="287.3103448275862" type="curve" smooth="yes"/>
      <point x="590.5627586206897" y="188.4444827586207"/>
      <point x="519.03" y="113.79310344827586"/>
    </contour>
  </outline>
</glyph>
<glyph name="A" format="2">
  <advance width="673.5"/>
  <unicode hex="0041"/>
  <anchor x="337.0" y="0.0" name="bottom"/>
  <anchor x="648.5" y="0.0" name="ogonek"/>
  <anchor x="337.0" y="700.0" name="top"/>
  <outline>
    <contour>
      <point x="25.0" y="0.0" type="line"/>
      <point x="106.0" y="0.0" type="line"/>
      <point x="275.5" y="448.0" type="line" smooth="yes"/>
      <point x="300.0" y="512.5"/>
      <point x="323.5" y="584.1665"/>
      <point x="345.5" y="650.0" type="curve"/>
      <point x="325.5" y="649.5" type="line"/>
      <point x="342.801" y="596.3905"/>
      <point x="373.5" y="504.0"/>
      <point x="392.5" y="453.0" type="curve" smooth="yes"/>
      <point x="563.0" y="0.0" type="line"/>
      <point x="648.5" y="0.0" type="line"/>
      <point x="382.5" y="700.0" type="line"/>
      <point x="293.5" y="700.0" type="line"/>
    </contour>
    <contour>
      <point x="139.5" y="192.5" type="line"/>
      <point x="532.0" y="192.5" type="line"/>
      <point x="499.5" y="269.5" type="line"/>
      <point x="169.0" y="269.5" type="line"/>
    </contour>
  </outline>
</glyph>
<glyph name="B" format="2">
  <advance width="671.0"/>
  <unicode hex="0042"/>
  <anchor x="336.0" y="0.0" name="bottom"/>
  <anchor x="336.0" y="700.0" name="top"/>
  <outline>
    <contour>
      <point x="103.0" y="0.0" type="line"/>
      <point x="397.0" y="0.0" type="line" smooth="yes"/>
      <point x="533.667" y="0.0"/>
      <point x="622.0" y="79.3335"/>
      <point x="622.0" y="206.0" type="curve" smooth="yes"/>
      <point x="622.0" y="299.0"/>
      <point x="557.0" y="366.5"/>
      <point x="461.0" y="386.5" type="curve"/>
      <point x="462.5" y="367.0" type="line"/>
      <point x="538.0" y="388.0"/>
      <point x="585.0" y="447.0"/>
      <point x="585.0" y="524.0" type="curve" smooth="yes"/>
      <point x="585.0" y="632.667"/>
      <point x="509.66700000000003" y="700.0"/>
      <point x="387.0" y="700.0" type="curve" smooth="yes"/>
      <point x="103.0" y="700.0" type="line"/>
    </contour>
    <contour>
      <point x="182.0" y="77.0" type="line"/>
      <point x="182.0" y="322.5" type="line"/>
      <point x="386.0" y="322.5" type="line" smooth="yes"/>
      <point x="476.66650000000004" y="322.5"/>
      <point x="539.5" y="275.667"/>
      <point x="539.5" y="203.0" type="curve" smooth="yes"/>
      <point x="539.5" y="126.333"/>
      <point x="480.333" y="77.0"/>
      <point x="391.0" y="77.0" type="curve" smooth="yes"/>
    </contour>
    <contour>
      <point x="182.0" y="399.5" type="line"/>
      <point x="182.0" y="623.0" type="line"/>
      <point x="374.0" y="623.0" type="line" smooth="yes"/>
      <point x="456.667" y="623.0"/>
      <point x="504.5" y="579.0"/>
      <point x="504.5" y="511.0" type="curve" smooth="yes"/>
      <point x="504.5" y="447.0"/>
      <point x="452.5" y="399.5"/>
      <point x="381.0" y="399.5" type="curve" smooth="yes"/>
    </contour>
  </outline>
</glyph>
<glyph name="C" format="2">
  <advance width="675.7241379310345"/>
  <unicode hex="0043"/>
  <anchor x="338.0344827586207" y="0.0" name="bottom"/>
  <anchor x="338.0344827586207" y="700.0" name="top"/>
  <outline>
    <contour>
      <point x="395.7586206896552" y="-10.0" type="curve" smooth="yes"/>
      <point x="485.6895517241379" y="-10.0"/>
      <point x="583.77" y="30.459655172413793"/>
      <point x="631.3103448275862" y="86.0" type="curve"/>
      <point x="595.0" y="145.17241379310343" type="line"/>
      <point x="554.9083793103449" y="95.01137931034482"/>
      <point x="477.36793103448275" y="60.34482758620689"/>
      <point x="401.9655172413793" y="60.34482758620689" type="curve" smooth="yes"/>
      <point x="237.8733448275862" y="60.34482758620689"/>
      <point x="121.9655172413793" y="179.19551724137932"/>
      <point x="121.9655172413793" y="350.0" type="curve" smooth="yes"/>
      <point x="121.9655172413793" y="515.8388620689655"/>
      <point x="236.3104482758621" y="635.3448275862069"/>
      <point x="392.3103448275862" y="635.3448275862069" type="curve" smooth="yes"/>
      <point x="467.20679310344826" y="635.3448275862069"/>
      <point x="546.6437931034483" y="595.7472413793104"/>
      <point x="595.2413793103449" y="533.5862068965517" type="curve"/>
      <point x="644.3103448275862" y="585.0" type="line"/>
      <point x="592.3566551724139" y="654.793"/>
      <point x="488.4019655172414" y="705.3448275862069"/>
      <point x="392.3103448275862" y="705.3448275862069" type="curve" smooth="yes"/>
      <point x="195.52862068965518" y="705.3448275862069"/>
      <point x="49.310344827586206" y="554.3680344827586"/>
      <point x="49.310344827586206" y="350.0" type="curve" smooth="yes"/>
      <point x="49.310344827586206" y="139.7473448275862"/>
      <point x="194.10355172413793" y="-10.0"/>
    </contour>
  </outline>
</glyph>
<glyph name="D" format="2">
  <advance width="743.5"/>
  <unicode hex="0044"/>
  <anchor x="372.0" y="0.0" name="bottom"/>
  <anchor x="182.0" y="350.0" name="center"/>
  <anchor x="372.0" y="700.0" name="top"/>
  <outline>
    <contour>
      <point x="103.0" y="0.0" type="line"/>
      <point x="367.5" y="0.0" type="line" smooth="yes"/>
      <point x="558.1665" y="0.0"/>
      <point x="694.5" y="143.33350000000002"/>
      <point x="694.5" y="350.0" type="curve" smooth="yes"/>
      <point x="694.5" y="556.0"/>
      <point x="557.5" y="700.0"/>
      <point x="367.5" y="700.0" type="curve" smooth="yes"/>
      <point x="103.0" y="700.0" type="line"/>
    </contour>
    <contour>
      <point x="182.0" y="63.0" type="line"/>
      <point x="182.0" y="635.0" type="line"/>
      <point x="170.5" y="623.0" type="line"/>
      <point x="362.5" y="623.0" type="line" smooth="yes"/>
      <point x="508.5" y="623.0"/>
      <point x="613.0" y="513.3335"/>
      <point x="613.0" y="350.0" type="curve" smooth="yes"/>
      <point x="613.0" y="186.0"/>
      <point x="509.16650000000004" y="77.0"/>
      <point x="362.5" y="77.0" type="curve" smooth="yes"/>
      <point x="173.5" y="77.0" type="line"/>
    </contour>
  </outline>
</glyph>
<glyph name="E" format="2">
  <advance width="599.5"/>
  <unicode hex="0045"/>
  <anchor x="300.0" y="0.0" name="bottom"/>
  <anchor x="490.0" y="0.0" name="ogonek"/>
  <anchor x="325.0" y="700.0" name="top"/>
  <anchor x="20.0" y="700.0" name="topleft"/>
  <outline>
    <contour>
      <point x="103.0" y="0.0" type="line"/>
      <point x="525.0" y="0.0" type="line"/>
      <point x="525.0" y="77.0" type="line"/>
      <point x="182.0" y="77.0" type="line"/>
      <point x="182.0" y="623.0" type="line"/>
      <point x="527.0" y="623.0" type="line"/>
      <point x="527.0" y="700.0" type="line"/>
      <point x="103.0" y="700.0" type="line"/>
    </contour>
    <contour>
      <point x="139.5" y="321.5" type="line"/>
      <point x="471.0" y="321.5" type="line"/>
      <point x="471.0" y="398.5" type="line"/>
      <point x="139.5" y="398.5" type="line"/>
    </contour>
  </outline>
</glyph>
<glyph name="F" format="2">
  <advance width="593.5"/>
  <unicode hex="0046"/>
  <anchor x="297.0" y="0.0" name="bottom"/>
  <anchor x="297.0" y="700.0" name="top"/>
  <outline>
    <contour>
      <point x="103.0" y="0.0" type="line"/>
      <point x="182.0" y="0.0" type="line"/>
      <point x="182.0" y="700.0" type="line"/>
      <point x="103.0" y="700.0" type="line"/>
    </contour>
    <contour>
      <point x="142.5" y="312.0" type="line"/>
      <point x="496.5" y="312.0" type="line"/>
      <point x="496.5" y="389.0" type="line"/>
      <point x="142.5" y="389.0" type="line"/>
    </contour>
    <contour>
      <point x="142.0" y="623.0" type="line"/>
      <point x="543.5" y="623.0" type="line"/>
      <point x="543.5" y="700.0" type="line"/>
      <point x="142.0" y="700.0" type="line"/>
    </contour>
  </outline>
</glyph>
<glyph name="H" format="2">
  <advance width="749.8620689655172"/>
  <unicode hex="0048"/>
  <anchor x="375.1034482758621" y="0.0" name="bottom"/>
  <anchor x="375.1034482758621" y="350.0" name="center"/>
  <anchor x="375.1034482758621" y="700.0" name="top"/>
  <anchor x="20.0" y="700.0" name="topleft"/>
  <outline>
    <contour>
      <point x="575.3103448275862" y="0.0" type="line"/>
      <point x="645.3103448275862" y="0.0" type="line"/>
      <point x="645.3103448275862" y="700.0" type="line"/>
      <point x="575.3103448275862" y="700.0" type="line"/>
    </contour>
    <contour>
      <point x="104.55172413793103" y="0.0" type="line"/>
      <point x="174.55172413793105" y="0.0" type="line"/>
      <point x="174.55172413793105" y="700.0" type="line"/>
      <point x="104.55172413793103" y="700.0" type="line"/>
    </contour>
    <contour>
      <point x="139.75862068965517" y="314.6896551724138" type="line"/>
      <point x="603.6551724137931" y="314.6896551724138" type="line"/>
      <point x="603.6551724137931" y="383.3103448275862" type="line"/>
      <point x="139.75862068965517" y="383.3103448275862" type="line"/>
    </contour>
  </outline>
</glyph>
<glyph name="I" format="2">
  <advance width="434.7586206896552"/>
  <unicode hex="0049"/>
  <anchor x="217.3793103448276" y="0.0" name="bottom"/>
  <anchor x="296.48275862068965" y="0.0" name="ogonek"/>
  <anchor x="217.3793103448276" y="700.0" name="top"/>
  <anchor x="20.0" y="700.0" name="topleft"/>
  <outline>
    <contour>
      <point x="69.37931034482759" y="0.0" type="line"/>
      <point x="365.37931034482756" y="0.0" type="line"/>
      <point x="365.37931034482756" y="67.24137931034483" type="line"/>
      <point x="252.3793103448276" y="67.24137931034483" type="line"/>
      <point x="252.3793103448276" y="632.7586206896551" type="line"/>
      <point x="365.37931034482756" y="632.7586206896551" type="line"/>
      <point x="365.37931034482756" y="700.0" type="line"/>
      <point x="69.37931034482759" y="700.0" type="line"/>
      <point x="69.37931034482759" y="632.7586206896551" type="line"/>
      <point x="182.3793103448276" y="632.7586206896551" type="line"/>
      <point x="182.3793103448276" y="67.24137931034483" type="line"/>
      <point x="69.37931034482759" y="67.24137931034483" type="line"/>
    </contour>
  </outline>
</glyph>
<glyph name="J" format="2">
  <advance width="629.551724137931"/>
  <unicode hex="004A"/>
  <anchor x="315.1034482758621" y="0.0" name="bottom"/>
  <anchor x="435.82758620689657" y="700.0" name="top"/>
  <outline>
    <contour>
      <point x="264.51724137931035" y="-10.0" type="curve" smooth="yes"/>
      <point x="392.1955172413793" y="-10.0"/>
      <point x="482.0344827586207" y="84.58631034482758"/>
      <point x="482.0344827586207" y="213.0" type="curve" smooth="yes"/>
      <point x="482.0344827586207" y="632.7586206896551" type="line"/>
      <point x="583.4827586206897" y="632.7586206896551" type="line"/>
      <point x="583.4827586206897" y="700.0" type="line"/>
      <point x="282.0689655172414" y="700.0" type="line"/>
      <point x="282.0689655172414" y="632.7586206896551" type="line"/>
      <point x="409.41379310344826" y="632.7586206896551" type="line"/>
      <point x="409.41379310344826" y="218.41379310344828" type="line" smooth="yes"/>
      <point x="409.41379310344826" y="125.40196551724138"/>
      <point x="350.2758620689655" y="58.9655172413793"/>
      <point x="265.17241379310343" y="58.9655172413793" type="curve" smooth="yes"/>
      <point x="207.1033448275862" y="58.9655172413793"/>
      <point x="156.55182758620688" y="85.96562068965517"/>
      <point x="108.82758620689656" y="166.3793103448276" type="curve"/>
      <point x="61.793103448275865" y="117.0" type="line"/>
      <point x="103.08079310344829" y="37.50596551724138"/>
      <point x="176.47093103448276" y="-10.0"/>
    </contour>
  </outline>
</glyph>
<glyph name="K" format="2">
  <advance width="690.7241379310344"/>
  <unicode hex="004B"/>
  <anchor x="345.6896551724138" y="0.0" name="bottom"/>
  <anchor x="345.6896551724138" y="700.0" name="top"/>
  <outline>
    <contour>
      <point x="154.58620689655172" y="215.27586206896552" type="line"/>
      <point x="651.6896551724138" y="700.0" type="line"/>
      <point x="556.8620689655172" y="700.0" type="line"/>
      <point x="152.51724137931035" y="300.8965517241379" type="line"/>
    </contour>
    <contour>
      <point x="104.55172413793103" y="0.0" type="line"/>
      <point x="174.55172413793105" y="0.0" type="line"/>
      <point x="174.55172413793105" y="700.0" type="line"/>
      <point x="104.55172413793103" y="700.0" type="line"/>
    </contour>
    <contour>
      <point x="574.448275862069" y="0.0" type="line"/>
      <point x="662.2758620689655" y="0.0" type="line"/>
      <point x="341.2413793103448" y="423.7241379310345" type="line"/>
      <point x="290.0689655172414" y="377.6551724137931" type="line"/>
    </contour>
  </outline>
</glyph>
<glyph name="L" format="2">
  <advance width="557.7241379310344"/>
  <unicode hex="004C"/>
  <anchor x="279.0344827586207" y="0.0" name="bottom"/>
  <anchor x="141.20689655172413" y="350.0" name="center"/>
  <anchor x="140.55172413793105" y="700.0" name="top"/>
  <anchor x="287.7586206896552" y="700.0" name="topright"/>
  <outline>
    <contour>
      <point x="104.55172413793103" y="0.0" type="line"/>
      <point x="512.3793103448276" y="0.0" type="line"/>
      <point x="512.3793103448276" y="68.62068965517241" type="line"/>
      <point x="174.55172413793105" y="68.62068965517241" type="line"/>
      <point x="174.55172413793105" y="700.0" type="line"/>
      <point x="104.55172413793103" y="700.0" type="line"/>
    </contour>
  </outline>
</glyph>
<glyph name="M" format="2">
  <advance width="856.1379310344828"/>
  <unicode hex="004D"/>
  <anchor x="428.0689655172414" y="0.0" name="bottom"/>
  <anchor x="428.0689655172414" y="700.0" name="top"/>
  <outline>
    <contour>
      <point x="104.55172413793103" y="0.0" type="line"/>
      <point x="174.55172413793105" y="0.0" type="line"/>
      <point x="174.55172413793105" y="328.9310344827586" type="line" smooth="yes"/>
      <point x="174.55172413793105" y="458.26403448275863"/>
      <point x="172.05758620689656" y="544.5980344827586"/>
      <point x="161.75862068965517" y="633.9310344827586" type="curve"/>
      <point x="151.41379310344828" y="603.4137931034483" type="line"/>
      <point x="400.9310344827586" y="203.6206896551724" type="line"/>
      <point x="451.2068965517241" y="203.6206896551724" type="line"/>
      <point x="709.0344827586207" y="608.7241379310345" type="line"/>
      <point x="694.3793103448276" y="633.9310344827586" type="line"/>
      <point x="684.0803448275861" y="539.2640344827586"/>
      <point x="681.5862068965517" y="448.9310344827586"/>
      <point x="681.5862068965517" y="328.9310344827586" type="curve" smooth="yes"/>
      <point x="681.5862068965517" y="0.0" type="line"/>
      <point x="751.5862068965517" y="0.0" type="line"/>
      <point x="751.5862068965517" y="700.0" type="line"/>
      <point x="688.9310344827586" y="700.0" type="line"/>
      <point x="413.2413793103448" y="257.82758620689657" type="line"/>
      <point x="444.58620689655174" y="257.48275862068965" type="line"/>
      <point x="172.55172413793105" y="700.0" type="line"/>
      <point x="104.55172413793103" y="700.0" type="line"/>
    </contour>
  </outline>
</glyph>
<glyph name="N" format="2">
  <advance width="787.0"/>
  <unicode hex="004E"/>
  <anchor x="394.0" y="0.0" name="bottom"/>
  <anchor x="394.0" y="700.0" name="top"/>
  <outline>
    <contour>
      <point x="103.0" y="0.0" type="line"/>
      <point x="182.0" y="0.0" type="line"/>
      <point x="182.0" y="317.5" type="line" smooth="yes"/>
      <point x="182.0" y="346.5845"/>
      <point x="178.131" y="483.769"/>
      <point x="168.0" y="617.5" type="curve"/>
      <point x="155.5" y="596.5" type="line"/>
      <point x="610.5" y="0.0" type="line"/>
      <point x="684.0" y="0.0" type="line"/>
      <point x="684.0" y="700.0" type="line"/>
      <point x="605.0" y="700.0" type="line"/>
      <point x="605.0" y="443.5" type="line" smooth="yes"/>
      <point x="605.3335" y="331.5"/>
      <point x="609.5" y="132.83350000000002"/>
      <point x="617.5" y="77.5" type="curve"/>
      <point x="631.5" y="95.0" type="line"/>
      <point x="174.5" y="700.0" type="line"/>
      <point x="103.0" y="700.0" type="line"/>
    </contour>
  </outline>
</glyph>
<glyph name="O" format="2">
  <advance width="784.5"/>
  <unicode hex="004F"/>
  <anchor x="392.5" y="0.0" name="bottom"/>
  <anchor x="392.5" y="350.0" name="center"/>
  <anchor x="557.0" y="0.0" name="ogonek"/>
  <anchor x="392.5" y="700.0" name="top"/>
  <anchor x="20.0" y="700.0" name="topleft"/>
  <anchor x="764.5" y="700.0" name="topright"/>
  <outline>
    <contour>
      <point x="392.0" y="-10.0" type="curve" smooth="yes"/>
      <point x="590.6665" y="-10.0"/>
      <point x="735.5" y="141.83350000000002"/>
      <point x="735.5" y="348.5" type="curve" smooth="yes"/>
      <point x="735.5" y="555.1665"/>
      <point x="590.6665" y="707.5"/>
      <point x="392.0" y="707.5" type="curve" smooth="yes"/>
      <point x="193.33350000000002" y="707.5"/>
      <point x="49.0" y="555.8335"/>
      <point x="49.0" y="348.5" type="curve" smooth="yes"/>
      <point x="49.0" y="141.16649999999998"/>
      <point x="193.33350000000002" y="-10.0"/>
    </contour>
    <contour>
      <point x="392.0" y="67.5" type="curve" smooth="yes"/>
      <point x="239.33350000000002" y="67.5"/>
      <point x="130.5" y="185.16649999999998"/>
      <point x="130.5" y="348.5" type="curve" smooth="yes"/>
      <point x="130.5" y="511.8335"/>
      <point x="239.33350000000002" y="630.0"/>
      <point x="392.0" y="630.0" type="curve" smooth="yes"/>
      <point x="544.0" y="630.0"/>
      <point x="654.0" y="511.16700000000003"/>
      <point x="654.0" y="348.5" type="curve" smooth="yes"/>
      <point x="654.0" y="185.833"/>
      <point x="544.0" y="67.5"/>
    </contour>
  </outline>
</glyph>
<glyph name="P" format="2">
  <advance width="622.5"/>
  <unicode hex="0050"/>
  <anchor x="311.5" y="0.0" name="bottom"/>
  <anchor x="311.5" y="700.0" name="top"/>
  <outline>
    <contour>
      <point x="103.0" y="0.0" type="line"/>
      <point x="182.0" y="0.0" type="line"/>
      <point x="182.0" y="275.5" type="line"/>
      <point x="380.0" y="275.5" type="line" smooth="yes"/>
      <point x="490.0" y="275.5"/>
      <point x="575.0" y="368.83349999999996"/>
      <point x="575.0" y="491.5" type="curve" smooth="yes"/>
      <point x="575.0" y="610.1665"/>
      <point x="490.0" y="700.0"/>
      <point x="380.0" y="700.0" type="curve" smooth="yes"/>
      <point x="103.0" y="700.0" type="line"/>
    </contour>
    <contour>
      <point x="182.0" y="352.5" type="line"/>
      <point x="182.0" y="623.0" type="line"/>
      <point x="383.5" y="623.0" type="line" smooth="yes"/>
      <point x="445.5" y="623.0"/>
      <point x="493.5" y="566.5"/>
      <point x="493.5" y="492.5" type="curve" smooth="yes"/>
      <point x="493.5" y="413.167"/>
      <point x="445.5" y="352.5"/>
      <point x="383.5" y="352.5" type="curve" smooth="yes"/>
    </contour>
  </outline>
</glyph>
<glyph name="Q" format="2">
  <advance width="785.2758620689655"/>
  <unicode hex="0051"/>
  <anchor x="392.9655172413793" y="0.0" name="bottom"/>
  <anchor x="392.9655172413793" y="700.0" name="top"/>
  <anchor x="392.9655172413793" y="350.0" name="center"/>
  <anchor x="555.1379310344828" y="0.0" name="ogonek"/>
  <anchor x="20.0" y="700.0" name="topleft"/>
  <anchor x="765.2758620689655" y="700.0" name="topright"/>
  <outline>
    <contour>
      <point x="643.1379310344828" y="-100.82758620689656" type="line"/>
      <point x="699.0" y="-60.44827586206897" type="line"/>
      <point x="445.51724137931035" y="271.1034482758621" type="line"/>
      <point x="389.2758620689655" y="233.06896551724137" type="line"/>
    </contour>
    <component base="O"/>
  </outline>
</glyph>
<glyph name="R" format="2">
  <advance width="661.0"/>
  <unicode hex="0052"/>
  <anchor x="331.0" y="0.0" name="bottom"/>
  <anchor x="311.0" y="700.0" name="top"/>
  <outline>
    <contour>
      <point x="103.0" y="0.0" type="line"/>
      <point x="182.0" y="0.0" type="line"/>
      <point x="182.0" y="275.5" type="line"/>
      <point x="383.0" y="275.5" type="line" smooth="yes"/>
      <point x="503.0" y="275.5"/>
      <point x="596.0" y="365.66650000000004"/>
      <point x="596.0" y="483.0" type="curve" smooth="yes"/>
      <point x="596.0" y="606.3335"/>
      <point x="500.0" y="700.0"/>
      <point x="378.0" y="700.0" type="curve" smooth="yes"/>
      <point x="103.0" y="700.0" type="line"/>
    </contour>
    <contour>
      <point x="529.0" y="0.0" type="line"/>
      <point x="623.5" y="-0.5" type="line"/>
      <point x="429.5" y="334.0" type="line"/>
      <point x="353.0" y="308.5" type="line"/>
    </contour>
    <contour>
      <point x="182.0" y="352.5" type="line"/>
      <point x="182.0" y="623.0" type="line"/>
      <point x="367.5" y="623.0" type="line" smooth="yes"/>
      <point x="452.83349999999996" y="623.0"/>
      <point x="514.5" y="564.5"/>
      <point x="514.5" y="482.5" type="curve" smooth="yes"/>
      <point x="514.5" y="407.833"/>
      <point x="463.0" y="352.5"/>
      <point x="391.0" y="352.5" type="curve" smooth="yes"/>
    </contour>
  </outline>
</glyph>
<glyph name="S" format="2">
  <advance width="608.5"/>
  <unicode hex="0053"/>
  <anchor x="324.5" y="0.0" name="bottom"/>
  <anchor x="319.5" y="700.0" name="top"/>
  <outline>
    <contour>
      <point x="307.5" y="-10.0" type="curve" smooth="yes"/>
      <point x="455.5" y="-10.0"/>
      <point x="554.5" y="74.3335"/>
      <point x="554.5" y="197.0" type="curve" smooth="yes"/>
      <point x="554.5" y="303.0"/>
      <point x="467.667" y="360.5"/>
      <point x="329.0" y="392.5" type="curve" smooth="yes"/>
      <point x="212.33350000000002" y="419.16650000000004"/>
      <point x="165.5" y="450.83349999999996"/>
      <point x="165.5" y="517.5" type="curve" smooth="yes"/>
      <point x="165.5" y="586.1665"/>
      <point x="227.33350000000002" y="634.0"/>
      <point x="314.0" y="634.0" type="curve" smooth="yes"/>
      <point x="390.0" y="634.0"/>
      <point x="446.5" y="594.6665"/>
      <point x="488.5" y="528.0" type="curve"/>
      <point x="545.0" y="583.5" type="line"/>
      <point x="497.0" y="661.5"/>
      <point x="423.5" y="707.5"/>
      <point x="315.5" y="707.5" type="curve" smooth="yes"/>
      <point x="186.16649999999998" y="707.5"/>
      <point x="86.0" y="627.1665"/>
      <point x="86.0" y="516.5" type="curve" smooth="yes"/>
      <point x="86.0" y="403.833"/>
      <point x="158.5" y="349.0"/>
      <point x="294.5" y="317.0" type="curve" smooth="yes"/>
      <point x="409.16650000000004" y="289.667"/>
      <point x="475.0" y="258.1665"/>
      <point x="475.0" y="181.5" type="curve" smooth="yes"/>
      <point x="475.0" y="112.833"/>
      <point x="405.33349999999996" y="63.5"/>
      <point x="314.0" y="63.5" type="curve" smooth="yes"/>
      <point x="232.0" y="63.5"/>
      <point x="169.0" y="95.667"/>
      <point x="107.0" y="185.0" type="curve"/>
      <point x="52.0" y="124.0" type="line"/>
      <point x="112.667" y="36.0"/>
      <point x="200.16649999999998" y="-10.0"/>
    </contour>
  </outline>
</glyph>
<glyph name="T" format="2">
  <advance width="537.3448275862069"/>
  <unicode hex="0054"/>
  <anchor x="269.0" y="0.0" name="bottom"/>
  <anchor x="269.0" y="350.0" name="center"/>
  <anchor x="269.0" y="700.0" name="top"/>
  <outline>
    <contour>
      <point x="230.3448275862069" y="0.0" type="line"/>
      <point x="300.34482758620686" y="0.0" type="line"/>
      <point x="300.34482758620686" y="631.3793103448276" type="line"/>
      <point x="508.8965517241379" y="631.3793103448276" type="line"/>
      <point x="508.8965517241379" y="700.0" type="line"/>
      <point x="28.448275862068964" y="700.0" type="line"/>
      <point x="28.448275862068964" y="631.3793103448276" type="line"/>
      <point x="230.3448275862069" y="631.3793103448276" type="line"/>
    </contour>
  </outline>
</glyph>
<glyph name="U" format="2">
  <advance width="748.5172413793103"/>
  <unicode hex="0055"/>
  <anchor x="374.58620689655174" y="0.0" name="bottom"/>
  <anchor x="561.6206896551724" y="0.0" name="ogonek"/>
  <anchor x="374.58620689655174" y="700.0" name="top"/>
  <anchor x="728.5172413793103" y="700.0" name="topright"/>
  <outline>
    <contour>
      <point x="372.62068965517244" y="-6.655172413793103" type="curve" smooth="yes"/>
      <point x="531.5748275862069" y="-6.655172413793103"/>
      <point x="647.4137931034483" y="108.8044827586207"/>
      <point x="647.4137931034483" y="268.3448275862069" type="curve" smooth="yes"/>
      <point x="647.4137931034483" y="700.3448275862069" type="line"/>
      <point x="579.7931034482758" y="700.3448275862069" type="line"/>
      <point x="579.7931034482758" y="277.3448275862069" type="line" smooth="yes"/>
      <point x="579.7931034482758" y="153.29896551724138"/>
      <point x="491.62068965517244" y="61.9655172413793"/>
      <point x="372.62068965517244" y="61.9655172413793" type="curve" smooth="yes"/>
      <point x="258.0803448275862" y="61.9655172413793"/>
      <point x="171.10344827586206" y="153.29896551724138"/>
      <point x="171.10344827586206" y="277.3448275862069" type="curve" smooth="yes"/>
      <point x="171.10344827586206" y="700.3448275862069" type="line"/>
      <point x="101.10344827586206" y="700.3448275862069" type="line"/>
      <point x="101.10344827586206" y="268.3448275862069" type="line" smooth="yes"/>
      <point x="101.10344827586206" y="108.8044827586207"/>
      <point x="214.97689655172414" y="-6.655172413793103"/>
    </contour>
  </outline>
</glyph>
<glyph name="V" format="2">
  <advance width="681.0"/>
  <unicode hex="0056"/>
  <anchor x="341.0" y="0.0" name="bottom"/>
  <anchor x="341.0" y="700.0" name="top"/>
  <outline>
    <contour>
      <point x="296.0" y="0.0" type="line"/>
      <point x="377.5" y="0.0" type="line"/>
      <point x="656.5" y="700.0" type="line"/>
      <point x="566.5" y="700.0" type="line"/>
      <point x="395.0" y="248.5" type="line" smooth="yes"/>
      <point x="363.667" y="167.16649999999998"/>
      <point x="349.16650000000004" y="122.8335"/>
      <point x="328.5" y="55.5" type="curve"/>
      <point x="355.0" y="56.0" type="line"/>
      <point x="334.333" y="121.3335"/>
      <point x="319.33349999999996" y="162.833"/>
      <point x="288.0" y="245.5" type="curve" smooth="yes"/>
      <point x="114.0" y="700.0" type="line"/>
      <point x="24.5" y="700.0" type="line"/>
    </contour>
  </outline>
</glyph>
<glyph name="W" format="2">
  <advance width="944.2413793103448"/>
  <unicode hex="0057"/>
  <anchor x="472.44827586206895" y="0.0" name="bottom"/>
  <anchor x="472.44827586206895" y="700.0" name="top"/>
  <outline>
    <contour>
      <point x="233.24137931034483" y="0.0" type="line"/>
      <point x="294.44827586206895" y="0.0" type="line"/>
      <point x="477.6896551724138" y="451.0344827586207" type="line"/>
      <point x="457.55172413793105" y="453.0689655172414" type="line"/>
      <point x="647.7931034482758" y="0.0" type="line"/>
      <point x="709.6896551724138" y="0.0" type="line"/>
      <point x="919.5862068965517" y="700.0" type="line"/>
      <point x="844.2068965517242" y="700.0" type="line"/>
      <point x="708.5862068965517" y="236.82758620689654" type="line" smooth="yes"/>
      <point x="681.5862068965517" y="145.55172413793105"/>
      <point x="683.3793103448276" y="145.563"/>
      <point x="667.0344827586207" y="63.51724137931034" type="curve"/>
      <point x="679.9310344827586" y="65.9310344827586" type="line"/>
      <point x="662.6551724137931" y="133.65517241379308"/>
      <point x="646.1034482758621" y="174.0344827586207"/>
      <point x="622.1724137931035" y="232.20689655172413" type="curve" smooth="yes"/>
      <point x="503.44827586206895" y="528.551724137931" type="line"/>
      <point x="436.58620689655174" y="528.551724137931" type="line"/>
      <point x="321.0689655172414" y="236.13793103448276" type="line" smooth="yes"/>
      <point x="296.6237931034483" y="174.4962068965517"/>
      <point x="287.56010344827587" y="149.71713793103447"/>
      <point x="262.62068965517244" y="62.82758620689655" type="curve"/>
      <point x="276.55172413793105" y="62.48275862068965" type="line"/>
      <point x="264.5285172413793" y="123.83886206896551"/>
      <point x="256.2413793103448" y="161.65517241379308"/>
      <point x="236.0" y="231.86206896551724" type="curve" smooth="yes"/>
      <point x="101.0" y="700.0" type="line"/>
      <point x="24.655172413793103" y="700.0" type="line"/>
    </contour>
  </outline>
</glyph>
<glyph name="X" format="2">
  <advance width="643.7241379310344"/>
  <unicode hex="0058"/>
  <anchor x="322.0344827586207" y="0.0" name="bottom"/>
  <anchor x="322.0344827586207" y="700.0" name="top"/>
  <outline>
    <contour>
      <point x="531.2068965517242" y="0.0" type="line"/>
      <point x="619.0689655172414" y="0.0" type="line"/>
      <point x="336.0689655172414" y="390.0" type="line"/>
      <point x="117.51724137931035" y="700.0" type="line"/>
      <point x="29.655172413793103" y="700.0" type="line"/>
      <point x="295.2068965517241" y="332.3448275862069" type="line"/>
    </contour>
    <contour>
      <point x="24.655172413793103" y="0.0" type="line"/>
      <point x="105.79310344827586" y="0.0" type="line"/>
      <point x="332.44827586206895" y="325.58620689655174" type="line"/>
      <point x="288.37931034482756" y="376.41379310344826" type="line"/>
    </contour>
    <contour>
      <point x="351.41379310344826" y="333.51724137931035" type="line"/>
      <point x="609.0689655172414" y="700.0" type="line"/>
      <point x="527.9310344827586" y="700.0" type="line"/>
      <point x="310.3103448275862" y="383.3103448275862" type="line"/>
    </contour>
  </outline>
</glyph>
<glyph name="Y" format="2">
  <advance width="641.0"/>
  <unicode hex="0059"/>
  <anchor x="320.82758620689657" y="0.0" name="bottom"/>
  <anchor x="320.82758620689657" y="700.0" name="top"/>
  <anchor x="20.0" y="700.0" name="topleft"/>
  <outline>
    <contour>
      <point x="295.82758620689657" y="0.0" type="line"/>
      <point x="365.17241379310343" y="0.0" type="line"/>
      <point x="365.17241379310343" y="357.0" type="line"/>
      <point x="350.17241379310343" y="289.0" type="line"/>
      <point x="621.1724137931035" y="700.0" type="line"/>
      <point x="540.4137931034483" y="700.0" type="line"/>
      <point x="322.48275862068965" y="363.51724137931035" type="line"/>
      <point x="342.2413793103448" y="362.48275862068965" type="line"/>
      <point x="105.27586206896552" y="700.0" type="line"/>
      <point x="19.827586206896555" y="700.0" type="line"/>
      <point x="302.82758620689657" y="300.0" type="line"/>
      <point x="295.82758620689657" y="349.0" type="line"/>
    </contour>
  </outline>
</glyph>
<glyph name="Z" format="2">
  <advance width="644.5862068965517"/>
  <unicode hex="005A"/>
  <anchor x="322.7931034482759" y="0.0" name="bottom"/>
  <anchor x="322.7931034482759" y="350.0" name="center"/>
  <anchor x="322.7931034482759" y="700.0" name="top"/>
  <outline>
    <contour>
      <point x="60.0" y="0.0" type="line"/>
      <point x="590.8965517241379" y="0.0" type="line"/>
      <point x="590.8965517241379" y="68.62068965517241" type="line"/>
      <point x="124.9655172413793" y="68.62068965517241" type="line"/>
      <point x="139.65517241379308" y="47.03448275862068" type="line"/>
      <point x="579.8965517241379" y="646.2413793103449" type="line"/>
      <point x="579.8965517241379" y="700.0" type="line"/>
      <point x="86.0" y="700.0" type="line"/>
      <point x="86.0" y="631.3793103448276" type="line"/>
      <point x="517.2413793103449" y="631.3793103448276" type="line"/>
      <point x="502.2413793103448" y="652.9655172413793" type="line"/>
      <point x="60.0" y="54.758620689655174" type="line"/>
    </contour>
  </outline>
</glyph>
<glyph name="bracketleft" format="2">
  <advance width="366.3103448275862"/>
  <unicode hex="005B"/>
  <outline>
    <contour>
      <point x="86.55172413793103" y="-190.0" type="line"/>
      <point x="323.8965517241379" y="-190.0" type="line"/>
      <point x="323.8965517241379" y="-131.9655172413793" type="line"/>
      <point x="140.06896551724137" y="-131.9655172413793" type="line"/>
      <point x="150.06896551724137" y="-143.9655172413793" type="line"/>
      <point x="150.06896551724137" y="649.9655172413793" type="line"/>
      <point x="144.06896551724137" y="641.9655172413793" type="line"/>
      <point x="323.8965517241379" y="641.9655172413793" type="line"/>
      <point x="323.8965517241379" y="700.0" type="line"/>
      <point x="86.55172413793103" y="700.0" type="line"/>
    </contour>
  </outline>
</glyph>
<glyph name="backslash" format="2">
  <advance width="541.2758620689655"/>
  <unicode hex="005C"/>
  <outline>
    <contour>
      <point x="440.7586206896552" y="-107.0" type="line"/>
      <point x="511.6206896551724" y="-107.0" type="line"/>
      <point x="111.62068965517241" y="700.0" type="line"/>
      <point x="42.758620689655174" y="700.0" type="line"/>
    </contour>
  </outline>
</glyph>
<glyph name="bracketright" format="2">
  <advance width="375.0"/>
  <unicode hex="005D"/>
  <outline>
    <contour>
      <point x="48.0" y="-190.0" type="line"/>
      <point x="290.0" y="-190.0" type="line"/>
      <point x="290.0" y="700.0" type="line"/>
      <point x="48.0" y="700.0" type="line"/>
      <point x="48.0" y="637.0" type="line"/>
      <point x="229.5" y="637.0" type="line"/>
      <point x="219.5" y="649.0" type="line"/>
      <point x="219.5" y="-135.0" type="line"/>
      <point x="225.5" y="-127.0" type="line"/>
      <point x="48.0" y="-127.0" type="line"/>
    </contour>
  </outline>
</glyph>
<glyph name="asciicircum" format="2">
  <advance width="584.8965517241379"/>
  <unicode hex="005E"/>
  <outline>
    <contour>
      <point x="40.13793103448276" y="368.0" type="line"/>
      <point x="114.48275862068965" y="368.0" type="line"/>
      <point x="298.37931034482756" y="676.6206896551724" type="line"/>
      <point x="287.55172413793105" y="675.5862068965517" type="line"/>
      <point x="469.41379310344826" y="368.0" type="line"/>
      <point x="545.1034482758621" y="368.0" type="line"/>
      <point x="332.13793103448273" y="727.0" type="line"/>
      <point x="253.10344827586206" y="727.0" type="line"/>
    </contour>
  </outline>
</glyph>
<glyph name="underscore" format="2">
  <advance width="692.0"/>
  <unicode hex="005F"/>
  <outline>
    <contour>
      <point x="54.0" y="-145.0" type="line"/>
      <point x="638.0" y="-145.0" type="line"/>
      <point x="638.0" y="-82.0" type="line"/>
      <point x="54.0" y="-82.0" type="line"/>
    </contour>
  </outline>
</glyph>
<glyph name="a" format="2">
  <advance width="615.9655172413793"/>
  <unicode hex="0061"/>
  <anchor x="308.48275862068965" y="0.0" name="bottom"/>
  <anchor x="543.3103448275862" y="0.0" name="ogonek"/>
  <anchor x="308.48275862068965" y="521.7241379310345" name="top"/>
  <outline>
    <contour>
      <point x="277.9310344827586" y="-10.0" type="curve" smooth="yes"/>
      <point x="382.75872413793104" y="-10.0"/>
      <point x="471.988724137931" y="59.781827586206894"/>
      <point x="494.1034482758621" y="143.13793103448276" type="curve"/>
      <point x="474.6896551724138" y="128.27586206896552" type="line"/>
      <point x="474.6896551724138" y="0.0" type="line"/>
      <point x="543.3103448275862" y="0.0" type="line"/>
      <point x="543.3103448275862" y="521.7241379310345" type="line"/>
      <point x="476.0" y="521.7241379310345" type="line"/>
      <point x="472.7241379310345" y="386.37931034482756" type="line"/>
      <point x="493.7586206896552" y="375.1034482758621" type="line"/>
      <point x="473.0232068965517" y="463.93113793103447"/>
      <point x="388.1611379310345" y="532.7241379310345"/>
      <point x="281.0344827586207" y="532.7241379310345" type="curve" smooth="yes"/>
      <point x="143.7014827586207" y="532.7241379310345"/>
      <point x="34.06896551724138" y="419.1723103448276"/>
      <point x="34.06896551724138" y="261.37931034482756" type="curve" smooth="yes"/>
      <point x="34.06896551724138" y="105.37931034482759"/>
      <point x="140.2759655172414" y="-10.0"/>
    </contour>
    <contour>
      <point x="291.82758620689657" y="55.51724137931034" type="curve" smooth="yes"/>
      <point x="181.48275862068965" y="55.51724137931034"/>
      <point x="105.0" y="143.1836896551724"/>
      <point x="105.0" y="262.0344827586207" type="curve" smooth="yes"/>
      <point x="105.0" y="381.29896551724136"/>
      <point x="182.35610344827586" y="467.2068965517241"/>
      <point x="291.82758620689657" y="467.2068965517241" type="curve" smooth="yes"/>
      <point x="400.01137931034486" y="467.2068965517241"/>
      <point x="478.6896551724138" y="381.29896551724136"/>
      <point x="478.6896551724138" y="262.0344827586207" type="curve" smooth="yes"/>
      <point x="478.6896551724138" y="141.437"/>
      <point x="399.1380344827586" y="55.51724137931034"/>
    </contour>
  </outline>
</glyph>
<glyph name="b" format="2">
  <advance width="619.0"/>
  <unicode hex="0062"/>
  <anchor x="309.5" y="0.0" name="bottom"/>
  <anchor x="309.5" y="740.0" name="top"/>
  <outline>
    <contour>
      <point x="338.0" y="-10.0" type="curve" smooth="yes"/>
      <point x="478.0" y="-10.0"/>
      <point x="583.0" y="105.3335"/>
      <point x="583.0" y="262.0" type="curve" smooth="yes"/>
      <point x="583.0" y="420.0"/>
      <point x="475.833" y="533.5"/>
      <point x="336.5" y="533.5" type="curve" smooth="yes"/>
      <point x="240.5" y="533.5"/>
      <point x="152.16649999999998" y="468.16650000000004"/>
      <point x="133.5" y="393.5" type="curve"/>
      <point x="149.0" y="397.5" type="line"/>
      <point x="149.0" y="740.0" type="line"/>
      <point x="72.5" y="740.0" type="line"/>
      <point x="72.5" y="1.5" type="line"/>
      <point x="148.0" y="1.5" type="line"/>
      <point x="150.5" y="131.5" type="line"/>
      <point x="128.5" y="132.5" type="line"/>
      <point x="148.5" y="57.167"/>
      <point x="238.66649999999998" y="-10.0"/>
    </contour>
    <contour>
      <point x="326.0" y="62.0" type="curve" smooth="yes"/>
      <point x="221.33350000000002" y="62.0"/>
      <point x="144.5" y="145.83350000000002"/>
      <point x="144.5" y="262.5" type="curve" smooth="yes"/>
      <point x="144.5" y="377.83349999999996"/>
      <point x="220.667" y="461.5"/>
      <point x="326.0" y="461.5" type="curve" smooth="yes"/>
      <point x="432.0" y="461.5"/>
      <point x="507.0" y="377.83349999999996"/>
      <point x="507.0" y="262.5" type="curve" smooth="yes"/>
      <point x="507.0" y="147.16649999999998"/>
      <point x="432.0" y="62.0"/>
    </contour>
  </outline>
</glyph>
<glyph name="c" format="2">
  <advance width="526.5"/>
  <unicode hex="0063"/>
  <anchor x="292.0" y="0.0" name="bottom"/>
  <anchor x="294.0" y="522.5" name="top"/>
  <outline>
    <contour>
      <point x="293.0" y="-10.0" type="curve" smooth="yes"/>
      <point x="375.0" y="-10.0"/>
      <point x="457.16650000000004" y="29.0"/>
      <point x="502.5" y="89.0" type="curve"/>
      <point x="458.0" y="143.5" type="line"/>
      <point x="414.0" y="90.8335"/>
      <point x="356.5" y="61.5"/>
      <point x="296.5" y="61.5" type="curve" smooth="yes"/>
      <point x="193.16649999999998" y="61.5"/>
      <point x="111.5" y="147.33350000000002"/>
      <point x="111.5" y="262.0" type="curve" smooth="yes"/>
      <point x="111.5" y="377.33349999999996"/>
      <point x="190.83350000000002" y="462.0"/>
      <point x="297.5" y="462.0" type="curve" smooth="yes"/>
      <point x="357.5" y="462.0"/>
      <point x="421.5" y="428.5"/>
      <point x="459.5" y="378.5" type="curve"/>
      <point x="504.0" y="433.0" type="line"/>
      <point x="460.66650000000004" y="495.66650000000004"/>
      <point x="383.833" y="533.5"/>
      <point x="294.5" y="533.5" type="curve" smooth="yes"/>
      <point x="145.167" y="533.5"/>
      <point x="36.0" y="418.0"/>
      <point x="36.0" y="262.0" type="curve" smooth="yes"/>
      <point x="36.0" y="106.0"/>
      <point x="145.0" y="-10.0"/>
    </contour>
  </outline>
</glyph>
<glyph name="d" format="2">
  <advance width="621.5"/>
  <unicode hex="0064"/>
  <anchor x="311.0" y="0.0" name="bottom"/>
  <anchor x="490.5" y="634.0" name="center"/>
  <anchor x="311.0" y="740.0" name="top"/>
  <anchor x="576.5" y="740.0" name="topright"/>
  <outline>
    <contour>
      <point x="285.5" y="-10.0" type="curve" smooth="yes"/>
      <point x="387.5" y="-10.0"/>
      <point x="478.33349999999996" y="61.0"/>
      <point x="491.0" y="137.0" type="curve"/>
      <point x="471.5" y="130.0" type="line"/>
      <point x="473.5" y="0.0" type="line"/>
      <point x="549.0" y="0.0" type="line"/>
      <point x="549.0" y="740.0" type="line"/>
      <point x="472.5" y="740.0" type="line"/>
      <point x="472.5" y="389.0" type="line"/>
      <point x="496.0" y="381.5" type="line"/>
      <point x="483.33349999999996" y="461.5"/>
      <point x="390.0" y="533.5"/>
      <point x="284.0" y="533.5" type="curve" smooth="yes"/>
      <point x="144.667" y="533.5"/>
      <point x="36.0" y="418.833"/>
      <point x="36.0" y="261.5" type="curve" smooth="yes"/>
      <point x="36.0" y="104.8335"/>
      <point x="142.83350000000002" y="-10.0"/>
    </contour>
    <contour>
      <point x="296.0" y="59.5" type="curve" smooth="yes"/>
      <point x="189.33350000000002" y="59.5"/>
      <point x="115.0" y="145.333"/>
      <point x="115.0" y="262.0" type="curve" smooth="yes"/>
      <point x="115.0" y="379.33349999999996"/>
      <point x="190.0" y="464.0"/>
      <point x="296.0" y="464.0" type="curve" smooth="yes"/>
      <point x="400.66650000000004" y="464.0"/>
      <point x="476.5" y="379.33349999999996"/>
      <point x="476.5" y="262.0" type="curve" smooth="yes"/>
      <point x="476.5" y="144.0"/>
      <point x="400.0" y="59.5"/>
    </contour>
  </outline>
</glyph>
<glyph name="e" format="2">
  <advance width="563.0"/>
  <unicode hex="0065"/>
  <anchor x="303.5" y="0.0" name="bottom"/>
  <anchor x="469.5" y="0.0" name="ogonek"/>
  <anchor x="295.0" y="522.5" name="top"/>
  <outline>
    <contour>
      <point x="303.5" y="-10.0" type="curve" smooth="yes"/>
      <point x="383.85799999999995" y="-10.0"/>
      <point x="460.084" y="23.9285"/>
      <point x="506.5" y="69.0" type="curve"/>
      <point x="467.5" y="124.0" type="line"/>
      <point x="408.83349999999996" y="74.667"/>
      <point x="363.66650000000004" y="62.0"/>
      <point x="313.0" y="62.0" type="curve" smooth="yes"/>
      <point x="189.0" y="62.0"/>
      <point x="113.5" y="141.33350000000002"/>
      <point x="113.5" y="264.0" type="curve" smooth="yes"/>
      <point x="113.5" y="392.66650000000004"/>
      <point x="184.33350000000002" y="461.5"/>
      <point x="295.0" y="461.5" type="curve" smooth="yes"/>
      <point x="390.33349999999996" y="461.5"/>
      <point x="448.16650000000004" y="389.66650000000004"/>
      <point x="451.5" y="317.0" type="curve"/>
      <point x="451.5" y="293.0" type="line"/>
      <point x="470.0" y="310.5" type="line"/>
      <point x="81.0" y="310.5" type="line"/>
      <point x="92.5" y="246.5" type="line"/>
      <point x="528.0" y="246.5" type="line"/>
      <point x="529.0" y="282.0" type="line" smooth="yes"/>
      <point x="533.0" y="429.0"/>
      <point x="436.16650000000004" y="533.3335"/>
      <point x="295.5" y="534.0" type="curve" smooth="yes"/>
      <point x="143.5" y="533.3335"/>
      <point x="36.0" y="419.66650000000004"/>
      <point x="36.0" y="259.0" type="curve" smooth="yes"/>
      <point x="36.0" y="100.3335"/>
      <point x="146.833" y="-10.0"/>
    </contour>
  </outline>
</glyph>
<glyph name="f" format="2">
  <advance width="378.5"/>
  <unicode hex="0066"/>
  <anchor x="189.5" y="0.0" name="bottom"/>
  <anchor x="189.5" y="740.0" name="top"/>
  <outline>
    <contour>
      <point x="132.5" y="0.0" type="line"/>
      <point x="145.5" y="0.0"/>
      <point x="159.417" y="0.0"/>
      <point x="174.25" y="0.0" type="curve" smooth="yes"/>
      <point x="209.5" y="0.0" type="line"/>
      <point x="209.5" y="602.0" type="line" smooth="yes"/>
      <point x="209.5" y="643.3335"/>
      <point x="233.0" y="666.0"/>
      <point x="277.0" y="666.0" type="curve" smooth="yes"/>
      <point x="299.0" y="666.0"/>
      <point x="324.667" y="656.5"/>
      <point x="346.0" y="634.5" type="curve"/>
      <point x="373.0" y="694.0" type="line"/>
      <point x="350.333" y="720.667"/>
      <point x="314.667" y="737.0"/>
      <point x="272.0" y="737.0" type="curve" smooth="yes"/>
      <point x="188.66649999999998" y="737.0"/>
      <point x="132.5" y="680.5"/>
      <point x="132.5" y="602.5" type="curve" smooth="yes"/>
    </contour>
    <contour>
      <point x="40.0" y="447.5" type="line"/>
      <point x="342.5" y="447.5" type="line"/>
      <point x="342.5" y="518.0" type="line"/>
      <point x="40.0" y="518.0" type="line"/>
    </contour>
  </outline>
</glyph>
<glyph name="g" format="2">
  <advance width="623.448275862069"/>
  <unicode hex="0067"/>
  <anchor x="311.8965517241379" y="-230.0" name="bottom"/>
  <anchor x="311.8965517241379" y="521.7241379310345" name="top"/>
  <outline>
    <contour>
      <point x="295.2068965517241" y="-230.0" type="curve" smooth="yes"/>
      <point x="448.35610344827586" y="-230.0"/>
      <point x="550.7931034482758" y="-134.667"/>
      <point x="550.7931034482758" y="32.0" type="curve" smooth="yes"/>
      <point x="550.7931034482758" y="521.7241379310345" type="line"/>
      <point x="482.51724137931035" y="521.7241379310345" type="line"/>
      <point x="479.2413793103448" y="390.86206896551727" type="line"/>
      <point x="499.2758620689655" y="385.1034482758621" type="line"/>
      <point x="479.46010344827585" y="463.35665517241375"/>
      <point x="389.77044827586207" y="532.7241379310345"/>
      <point x="285.86206896551727" y="532.7241379310345" type="curve" smooth="yes"/>
      <point x="145.31044827586206" y="532.7241379310345"/>
      <point x="34.758620689655174" y="418.3674827586207"/>
      <point x="34.758620689655174" y="261.0344827586207" type="curve" smooth="yes"/>
      <point x="34.758620689655174" y="104.5748275862069"/>
      <point x="142.80493103448276" y="-10.0"/>
      <point x="286.8965517241379" y="-10.0" type="curve" smooth="yes"/>
      <point x="386.667" y="-10.0"/>
      <point x="475.667" y="57.253206896551724"/>
      <point x="495.48275862068965" y="136.93103448275863" type="curve"/>
      <point x="482.51724137931035" y="130.82758620689654" type="line"/>
      <point x="482.51724137931035" y="31.793103448275865" type="line" smooth="yes"/>
      <point x="482.51724137931035" y="-98.41379310344828"/>
      <point x="413.4941379310345" y="-165.51724137931035"/>
      <point x="297.17241379310343" y="-165.51724137931035" type="curve" smooth="yes"/>
      <point x="229.76999999999998" y="-165.51724137931035"/>
      <point x="168.9310344827586" y="-141.03437931034483"/>
      <point x="128.9310344827586" y="-108.62068965517241" type="curve"/>
      <point x="100.75862068965517" y="-167.0" type="line"/>
      <point x="146.96562068965517" y="-202.58631034482758"/>
      <point x="217.0458620689655" y="-230.0"/>
    </contour>
    <contour>
      <point x="295.2758620689655" y="55.51724137931034" type="curve" smooth="yes"/>
      <point x="183.55172413793105" y="55.51724137931034"/>
      <point x="105.68965517241378" y="143.2985172413793"/>
      <point x="105.68965517241378" y="261.6896551724138" type="curve" smooth="yes"/>
      <point x="105.68965517241378" y="380.9541379310345"/>
      <point x="184.42506896551723" y="467.55172413793105"/>
      <point x="295.2758620689655" y="467.55172413793105" type="curve" smooth="yes"/>
      <point x="404.8389655172414" y="467.55172413793105"/>
      <point x="484.55172413793105" y="381.41379310344826"/>
      <point x="484.55172413793105" y="261.6896551724138" type="curve" smooth="yes"/>
      <point x="484.55172413793105" y="141.0921724137931"/>
      <point x="404.42562068965515" y="55.51724137931034"/>
    </contour>
  </outline>
</glyph>
<glyph name="h" format="2">
  <advance width="570.7586206896551"/>
  <unicode hex="0068"/>
  <anchor x="285.55172413793105" y="0.0" name="bottom"/>
  <anchor x="132.89655172413794" y="638.0" name="center"/>
  <anchor x="285.55172413793105" y="740.0" name="top"/>
  <outline>
    <contour>
      <point x="72.65517241379311" y="0.0" type="line"/>
      <point x="89.98817241379311" y="0.0"/>
      <point x="100.27586206896552" y="0.0"/>
      <point x="106.79310344827586" y="0.0" type="curve" smooth="yes"/>
      <point x="140.9310344827586" y="0.0" type="line"/>
      <point x="140.9310344827586" y="318.0" type="line" smooth="yes"/>
      <point x="140.9310344827586" y="398.68975862068964"/>
      <point x="211.40196551724136" y="468.86206896551727"/>
      <point x="303.17241379310343" y="468.86206896551727" type="curve" smooth="yes"/>
      <point x="390.06886206896553" y="470.2413793103448"/>
      <point x="431.86206896551727" y="420.26448275862066"/>
      <point x="431.86206896551727" y="313.0" type="curve" smooth="yes"/>
      <point x="431.86206896551727" y="0.0" type="line"/>
      <point x="500.13793103448273" y="0.0" type="line"/>
      <point x="500.13793103448273" y="316.7241379310345" type="line" smooth="yes"/>
      <point x="500.13793103448273" y="463.8044827586207"/>
      <point x="442.1034482758621" y="532.7241379310345"/>
      <point x="322.1034482758621" y="532.7241379310345" type="curve" smooth="yes"/>
      <point x="238.10344827586206" y="532.7241379310345"/>
      <point x="147.73541379310345" y="474.333"/>
      <point x="126.86206896551724" y="389.2758620689655" type="curve"/>
      <point x="140.9310344827586" y="405.86206896551727" type="line"/>
      <point x="140.9310344827586" y="740.0" type="line"/>
      <point x="72.65517241379311" y="740.0" type="line"/>
    </contour>
  </outline>
</glyph>
<glyph name="i" format="2">
  <advance width="239.0"/>
  <unicode hex="0069"/>
  <anchor x="120.5" y="0.0" name="bottom"/>
  <anchor x="159.5" y="0.0" name="ogonek"/>
  <anchor x="120.5" y="702.5" name="top"/>
  <outline>
    <contour>
      <point x="83.0" y="0.0" type="line"/>
      <point x="159.5" y="0.0" type="line"/>
      <point x="159.5" y="522.5" type="line"/>
      <point x="83.0" y="522.5" type="line"/>
    </contour>
    <contour>
      <point x="120.5" y="635.0" type="curve" smooth="yes"/>
      <point x="156.5" y="635.0"/>
      <point x="178.0" y="657.0"/>
      <point x="178.0" y="690.0" type="curve" smooth="yes"/>
      <point x="178.0" y="724.5"/>
      <point x="157.0" y="745.0"/>
      <point x="120.5" y="745.0" type="curve" smooth="yes"/>
      <point x="84.0" y="745.0"/>
      <point x="63.0" y="723.0"/>
      <point x="63.0" y="690.0" type="curve" smooth="yes"/>
      <point x="63.0" y="655.5"/>
      <point x="83.5" y="635.0"/>
    </contour>
  </outline>
</glyph>
<glyph name="k" format="2">
  <advance width="532.0"/>
  <unicode hex="006B"/>
  <anchor x="266.0" y="0.0" name="bottom"/>
  <anchor x="266.0" y="740.0" name="top"/>
  <outline>
    <contour>
      <point x="134.58620689655172" y="169.24137931034483" type="line"/>
      <point x="502.55172413793105" y="521.7241379310345" type="line"/>
      <point x="411.37931034482756" y="521.7241379310345" type="line"/>
      <point x="132.86206896551724" y="249.13793103448276" type="line"/>
    </contour>
    <contour>
      <point x="74.65517241379311" y="0.0" type="line"/>
      <point x="142.9310344827586" y="0.0" type="line"/>
      <point x="142.9310344827586" y="740.0" type="line"/>
      <point x="74.65517241379311" y="740.0" type="line"/>
    </contour>
    <contour>
      <point x="434.55172413793105" y="0.0" type="line"/>
      <point x="523.3103448275862" y="0.0" type="line"/>
      <point x="256.48275862068965" y="309.13793103448273" type="line"/>
      <point x="209.0344827586207" y="261.7931034482759" type="line"/>
    </contour>
  </outline>
</glyph>
<glyph name="l" format="2">
  <advance width="217.58620689655172"/>
  <unicode hex="006C"/>
  <anchor x="108.9655172413793" y="0.0" name="bottom"/>
  <anchor x="108.9655172413793" y="370.0" name="center"/>
  <anchor x="108.9655172413793" y="740.0" name="top"/>
  <anchor x="169.24137931034483" y="740.0" name="topright"/>
  <outline>
    <contour>
      <point x="74.65517241379311" y="0.0" type="line"/>
      <point x="142.9310344827586" y="0.0" type="line"/>
      <point x="142.9310344827586" y="740.0" type="line"/>
      <point x="74.65517241379311" y="740.0" type="line"/>
    </contour>
  </outline>
</glyph>
<glyph name="m" format="2">
  <advance width="907.8965517241379"/>
  <unicode hex="006D"/>
  <anchor x="454.44827586206895" y="0.0" name="bottom"/>
  <anchor x="454.44827586206895" y="521.7241379310345" name="top"/>
  <outline>
    <contour>
      <point x="71.96551724137932" y="0.0" type="line"/>
      <point x="140.58620689655172" y="0.0" type="line"/>
      <point x="140.58620689655172" y="317.3103448275862" type="line" smooth="yes"/>
      <point x="140.58620689655172" y="398.00010344827587"/>
      <point x="207.96562068965517" y="467.82758620689657"/>
      <point x="300.1034482758621" y="467.82758620689657" type="curve" smooth="yes"/>
      <point x="378.1265517241379" y="467.82758620689657"/>
      <point x="420.13793103448273" y="416.8162068965517"/>
      <point x="420.13793103448273" y="312.3103448275862" type="curve" smooth="yes"/>
      <point x="420.13793103448273" y="0.0" type="line"/>
      <point x="488.7586206896552" y="0.0" type="line"/>
      <point x="488.7586206896552" y="316.62068965517244" type="line" smooth="yes"/>
      <point x="488.7586206896552" y="397.77044827586207"/>
      <point x="555.8043793103448" y="467.82758620689657"/>
      <point x="649.2758620689655" y="467.82758620689657" type="curve" smooth="yes"/>
      <point x="729.1379310344828" y="467.82758620689657"/>
      <point x="769.3448275862069" y="418.4251724137931"/>
      <point x="769.3448275862069" y="311.62068965517244" type="curve" smooth="yes"/>
      <point x="769.3448275862069" y="0.0" type="line"/>
      <point x="837.9655172413793" y="0.0" type="line"/>
      <point x="837.9655172413793" y="315.0" type="line" smooth="yes"/>
      <point x="837.9655172413793" y="462.5403448275862"/>
      <point x="778.1148275862068" y="532.0344827586207"/>
      <point x="669.5172413793103" y="532.0344827586207" type="curve" smooth="yes"/>
      <point x="579.5861034482758" y="532.0344827586207"/>
      <point x="501.6506896551724" y="474.3973448275862"/>
      <point x="474.0689655172414" y="410.82758620689657" type="curve" smooth="yes"/>
      <point x="467.0689655172414" y="393.82758620689657" type="line"/>
      <point x="485.6896551724138" y="383.2758620689655" type="line"/>
      <point x="461.32162068965516" y="495.321724137931"/>
      <point x="404.33344827586205" y="532.0344827586207"/>
      <point x="323.2758620689655" y="532.0344827586207" type="curve" smooth="yes"/>
      <point x="232.74679310344828" y="532.0344827586207"/>
      <point x="151.63196551724138" y="477.53989655172415"/>
      <point x="128.13793103448276" y="397.7241379310345" type="curve"/>
      <point x="142.55172413793105" y="400.55172413793105" type="line"/>
      <point x="139.27586206896552" y="521.7241379310345" type="line"/>
      <point x="71.96551724137932" y="521.7241379310345" type="line"/>
    </contour>
  </outline>
</glyph>
<glyph name="n" format="2">
  <advance width="576.5"/>
  <unicode hex="006E"/>
  <anchor x="288.5" y="0.0" name="bottom"/>
  <anchor x="318.5" y="522.5" name="top"/>
  <outline>
    <contour>
      <point x="72.5" y="0.0" type="line"/>
      <point x="89.833" y="0.0"/>
      <point x="101.75" y="0.0"/>
      <point x="110.75" y="0.0" type="curve" smooth="yes"/>
      <point x="149.0" y="0.0" type="line"/>
      <point x="149.0" y="318.0" type="line" smooth="yes"/>
      <point x="149.0" y="396.0"/>
      <point x="215.833" y="462.5"/>
      <point x="306.5" y="462.5" type="curve" smooth="yes"/>
      <point x="388.5" y="464.5"/>
      <point x="430.0" y="416.33349999999996"/>
      <point x="430.0" y="313.0" type="curve" smooth="yes"/>
      <point x="430.0" y="0.0" type="line"/>
      <point x="506.5" y="0.0" type="line"/>
      <point x="506.5" y="317.5" type="line" smooth="yes"/>
      <point x="506.5" y="464.16650000000004"/>
      <point x="446.33349999999996" y="533.5"/>
      <point x="331.0" y="533.5" type="curve" smooth="yes"/>
      <point x="244.33350000000002" y="533.5"/>
      <point x="159.16649999999998" y="474.833"/>
      <point x="138.5" y="407.5" type="curve"/>
      <point x="150.5" y="413.5" type="line"/>
      <point x="148.0" y="522.5" type="line"/>
      <point x="72.5" y="522.5" type="line"/>
    </contour>
  </outline>
</glyph>
<glyph name="o" format="2">
  <advance width="607.0"/>
  <unicode hex="006F"/>
  <anchor x="304.0" y="0.0" name="bottom"/>
  <anchor x="304.0" y="261.5" name="center"/>
  <anchor x="446.0" y="0.0" name="ogonek"/>
  <anchor x="304.0" y="522.5" name="top"/>
  <anchor x="587.0" y="522.5" name="topright"/>
  <outline>
    <contour>
      <point x="304.0" y="-10.0" type="curve" smooth="yes"/>
      <point x="458.0" y="-10.0"/>
      <point x="571.0" y="105.0"/>
      <point x="571.0" y="263.0" type="curve" smooth="yes"/>
      <point x="571.0" y="419.66650000000004"/>
      <point x="458.0" y="533.5"/>
      <point x="304.0" y="533.5" type="curve" smooth="yes"/>
      <point x="149.33350000000002" y="533.5"/>
      <point x="36.0" y="419.66650000000004"/>
      <point x="36.0" y="263.0" type="curve" smooth="yes"/>
      <point x="36.0" y="105.0"/>
      <point x="149.33350000000002" y="-10.0"/>
    </contour>
    <contour>
      <point x="304.0" y="62.0" type="curve" smooth="yes"/>
      <point x="194.0" y="62.0"/>
      <point x="114.3335" y="147.0"/>
      <point x="115.0" y="263.0" type="curve" smooth="yes"/>
      <point x="114.3335" y="377.667"/>
      <point x="194.0" y="461.5"/>
      <point x="304.0" y="461.5" type="curve" smooth="yes"/>
      <point x="413.33349999999996" y="461.5"/>
      <point x="492.66650000000004" y="378.33349999999996"/>
      <point x="492.0" y="263.0" type="curve" smooth="yes"/>
      <point x="492.66650000000004" y="147.0"/>
      <point x="413.33349999999996" y="62.0"/>
    </contour>
  </outline>
</glyph>
<glyph name="p" format="2">
  <advance width="622.0"/>
  <unicode hex="0070"/>
  <anchor x="311.5" y="0.0" name="bottom"/>
  <anchor x="311.5" y="522.5" name="top"/>
  <outline>
    <contour>
      <point x="72.5" y="-220.0" type="line"/>
      <point x="149.5" y="-220.0" type="line"/>
      <point x="149.5" y="133.0" type="line"/>
      <point x="131.5" y="132.5" type="line"/>
      <point x="151.5" y="57.167"/>
      <point x="241.83350000000002" y="-9.5"/>
      <point x="340.5" y="-9.5" type="curve" smooth="yes"/>
      <point x="481.167" y="-9.5"/>
      <point x="586.0" y="105.5"/>
      <point x="586.0" y="261.5" type="curve" smooth="yes"/>
      <point x="586.0" y="418.833"/>
      <point x="479.0" y="532.5"/>
      <point x="339.0" y="532.5" type="curve" smooth="yes"/>
      <point x="243.66699999999997" y="532.5"/>
      <point x="155.16649999999998" y="468.16650000000004"/>
      <point x="136.5" y="393.5" type="curve"/>
      <point x="151.0" y="395.0" type="line"/>
      <point x="148.5" y="522.5" type="line"/>
      <point x="72.5" y="522.5" type="line"/>
    </contour>
    <contour>
      <point x="328.0" y="63.0" type="curve" smooth="yes"/>
      <point x="222.667" y="63.0"/>
      <point x="145.0" y="146.667"/>
      <point x="145.0" y="262.0" type="curve" smooth="yes"/>
      <point x="145.0" y="377.33349999999996"/>
      <point x="222.0" y="460.0"/>
      <point x="328.0" y="460.0" type="curve" smooth="yes"/>
      <point x="434.0" y="460.0"/>
      <point x="510.0" y="376.16650000000004"/>
      <point x="510.0" y="261.5" type="curve" smooth="yes"/>
      <point x="510.0" y="147.5"/>
      <point x="434.0" y="63.0"/>
    </contour>
  </outline>
</glyph>
<glyph name="q" format="2">
  <advance width="620.0"/>
  <unicode hex="0071"/>
  <anchor x="310.0" y="0.0" name="bottom"/>
  <anchor x="310.0" y="522.5" name="top"/>
  <outline>
    <contour>
      <point x="471.0" y="-220.0" type="line"/>
      <point x="547.5" y="-220.0" type="line"/>
      <point x="547.5" y="523.0" type="line"/>
      <point x="471.0" y="523.0" type="line"/>
      <point x="468.5" y="387.0" type="line"/>
      <point x="493.0" y="381.5" type="line"/>
      <point x="480.33349999999996" y="460.83349999999996"/>
      <point x="387.167" y="533.5"/>
      <point x="282.5" y="533.5" type="curve" smooth="yes"/>
      <point x="143.83350000000002" y="533.5"/>
      <point x="36.0" y="418.833"/>
      <point x="36.0" y="261.5" type="curve" smooth="yes"/>
      <point x="36.0" y="104.8335"/>
      <point x="142.667" y="-10.0"/>
      <point x="284.0" y="-10.0" type="curve" smooth="yes"/>
      <point x="383.33349999999996" y="-10.0"/>
      <point x="475.33349999999996" y="61.0"/>
      <point x="488.0" y="137.0" type="curve"/>
      <point x="471.0" y="128.0" type="line"/>
    </contour>
    <contour>
      <point x="293.0" y="62.5" type="curve" smooth="yes"/>
      <point x="186.33350000000002" y="62.5"/>
      <point x="112.0" y="147.333"/>
      <point x="112.0" y="262.0" type="curve" smooth="yes"/>
      <point x="112.0" y="377.33349999999996"/>
      <point x="187.0" y="461.5"/>
      <point x="293.0" y="461.5" type="curve" smooth="yes"/>
      <point x="398.333" y="461.5"/>
      <point x="475.0" y="378.0"/>
      <point x="475.0" y="262.0" type="curve" smooth="yes"/>
      <point x="475.0" y="145.33350000000002"/>
      <point x="397.66650000000004" y="62.5"/>
    </contour>
  </outline>
</glyph>
<glyph name="r" format="2">
  <advance width="374.0"/>
  <unicode hex="0072"/>
  <anchor x="112.0" y="0.0" name="bottom"/>
  <anchor x="227.5" y="522.5" name="top"/>
  <outline>
    <contour>
      <point x="72.5" y="0.0" type="line"/>
      <point x="149.5" y="0.0" type="line"/>
      <point x="149.5" y="296.0" type="line" smooth="yes"/>
      <point x="149.5" y="379.33349999999996"/>
      <point x="206.16649999999998" y="450.5"/>
      <point x="295.5" y="450.5" type="curve" smooth="yes"/>
      <point x="311.5" y="450.5"/>
      <point x="330.66650000000004" y="446.83349999999996"/>
      <point x="348.0" y="439.5" type="curve"/>
      <point x="369.0" y="524.5" type="line"/>
      <point x="355.0" y="529.1665"/>
      <point x="334.167" y="533.5"/>
      <point x="311.5" y="533.5" type="curve" smooth="yes"/>
      <point x="230.8335" y="533.5"/>
      <point x="165.167" y="473.33349999999996"/>
      <point x="142.5" y="402.0" type="curve"/>
      <point x="151.0" y="382.0" type="line"/>
      <point x="148.5" y="522.5" type="line"/>
      <point x="72.5" y="522.5" type="line"/>
    </contour>
  </outline>
</glyph>
<glyph name="s" format="2">
  <advance width="479.0"/>
  <unicode hex="0073"/>
  <anchor x="240.0" y="0.0" name="bottom"/>
  <anchor x="240.0" y="521.7241379310345" name="top"/>
  <outline>
    <contour>
      <point x="243.72413793103448" y="-10.0" type="curve" smooth="yes"/>
      <point x="353.4251724137931" y="-10.0"/>
      <point x="433.7241379310345" y="52.931137931034485"/>
      <point x="433.7241379310345" y="140.10344827586206" type="curve" smooth="yes"/>
      <point x="433.7241379310345" y="185.0344827586207"/>
      <point x="417.17241379310343" y="219.3448275862069"/>
      <point x="380.0344827586207" y="246.0" type="curve" smooth="yes"/>
      <point x="352.7241379310345" y="266.7586206896552"/>
      <point x="312.6896551724138" y="281.86206896551727"/>
      <point x="257.17241379310343" y="296.8965517241379" type="curve" smooth="yes"/>
      <point x="204.8506896551724" y="311.28724137931033"/>
      <point x="170.3793103448276" y="322.40241379310345"/>
      <point x="150.48275862068965" y="338.7586206896552" type="curve" smooth="yes"/>
      <point x="134.51724137931035" y="351.8389655172414"/>
      <point x="126.74724137931034" y="368.0344827586207"/>
      <point x="126.51724137931035" y="388.0" type="curve" smooth="yes"/>
      <point x="126.51724137931035" y="438.94241379310347"/>
      <point x="172.94286206896552" y="473.2758620689655"/>
      <point x="240.75862068965517" y="473.2758620689655" type="curve" smooth="yes"/>
      <point x="297.98862068965514" y="473.2758620689655"/>
      <point x="348.56310344827585" y="444.23"/>
      <point x="388.1034482758621" y="402.0689655172414" type="curve"/>
      <point x="430.7241379310345" y="448.7241379310345" type="line"/>
      <point x="386.3104482758621" y="498.9767931034483"/>
      <point x="311.73596551724137" y="532.7241379310345"/>
      <point x="237.06896551724137" y="532.7241379310345" type="curve" smooth="yes"/>
      <point x="133.48265517241379" y="532.7241379310345"/>
      <point x="56.275862068965516" y="471.2526551724138"/>
      <point x="56.275862068965516" y="385.0" type="curve" smooth="yes"/>
      <point x="56.275862068965516" y="352.2758620689655"/>
      <point x="65.93103448275862" y="324.8965517241379"/>
      <point x="87.24137931034483" y="301.86206896551727" type="curve" smooth="yes"/>
      <point x="115.55172413793103" y="272.48275862068965"/>
      <point x="164.20689655172413" y="253.3793103448276"/>
      <point x="237.27586206896552" y="232.72413793103448" type="curve" smooth="yes"/>
      <point x="283.70103448275864" y="219.41379310344828"/>
      <point x="315.97689655172417" y="207.70103448275862"/>
      <point x="335.41379310344826" y="193.6551724137931" type="curve" smooth="yes"/>
      <point x="356.1610344827586" y="178.29896551724138"/>
      <point x="366.2068965517241" y="159.1148275862069"/>
      <point x="366.2068965517241" y="136.10344827586206" type="curve" smooth="yes"/>
      <point x="366.2068965517241" y="83.41368965517242"/>
      <point x="318.218275862069" y="51.41379310344827"/>
      <point x="248.79310344827587" y="51.41379310344827" type="curve" smooth="yes"/>
      <point x="180.9310344827586" y="51.41379310344827"/>
      <point x="126.41379310344827" y="75.77"/>
      <point x="89.03448275862068" y="123.3103448275862" type="curve"/>
      <point x="40.0" y="81.0" type="line"/>
      <point x="80.55162068965517" y="27.114724137931034"/>
      <point x="153.97679310344827" y="-10.0"/>
    </contour>
  </outline>
</glyph>
<glyph name="t" format="2">
  <advance width="367.62068965517244"/>
  <unicode hex="0074"/>
  <anchor x="184.13793103448276" y="0.0" name="bottom"/>
  <anchor x="184.13793103448276" y="261.0344827586207" name="center"/>
  <anchor x="184.13793103448276" y="521.7241379310345" name="top"/>
  <anchor x="238.86206896551724" y="756.2068965517242" name="topright"/>
  <outline>
    <contour>
      <point x="146.82758620689654" y="0.0" type="line"/>
      <point x="215.10344827586206" y="0.0" type="line"/>
      <point x="215.10344827586206" y="659.0" type="line"/>
      <point x="146.82758620689654" y="659.0" type="line"/>
    </contour>
    <contour>
      <point x="27.344827586206897" y="457.1034482758621" type="line"/>
      <point x="348.8965517241379" y="457.1034482758621" type="line"/>
      <point x="348.8965517241379" y="521.7241379310345" type="line"/>
      <point x="27.344827586206897" y="521.7241379310345" type="line"/>
    </contour>
  </outline>
</glyph>
<glyph name="u" format="2">
  <advance width="582.5"/>
  <unicode hex="0075"/>
  <anchor x="291.5" y="0.0" name="bottom"/>
  <anchor x="510.0" y="0.0" name="ogonek"/>
  <anchor x="291.5" y="522.5" name="top"/>
  <anchor x="562.5" y="522.5" name="topright"/>
  <outline>
    <contour>
      <point x="258.0" y="-10.0" type="curve" smooth="yes"/>
      <point x="340.66650000000004" y="-10.0"/>
      <point x="421.33349999999996" y="46.0"/>
      <point x="444.0" y="116.0" type="curve"/>
      <point x="432.0" y="110.0" type="line"/>
      <point x="434.5" y="0.0" type="line"/>
      <point x="510.0" y="0.0" type="line"/>
      <point x="510.0" y="522.5" type="line"/>
      <point x="433.5" y="522.5" type="line"/>
      <point x="433.5" y="205.5" type="line" smooth="yes"/>
      <point x="433.5" y="124.1665"/>
      <point x="366.83349999999996" y="59.0"/>
      <point x="279.5" y="59.0" type="curve" smooth="yes"/>
      <point x="193.5" y="59.0"/>
      <point x="148.5" y="114.0"/>
      <point x="148.5" y="218.0" type="curve" smooth="yes"/>
      <point x="148.5" y="522.5" type="line"/>
      <point x="72.0" y="522.5" type="line"/>
      <point x="72.0" y="203.0" type="line" smooth="yes"/>
      <point x="72.0" y="64.3335"/>
      <point x="138.0" y="-10.0"/>
    </contour>
  </outline>
</glyph>
<glyph name="v" format="2">
  <advance width="528.448275862069"/>
  <unicode hex="0076"/>
  <anchor x="264.7241379310345" y="0.0" name="bottom"/>
  <anchor x="264.7241379310345" y="521.7241379310345" name="top"/>
  <outline>
    <contour>
      <point x="232.86206896551724" y="0.0" type="line"/>
      <point x="280.6551724137931" y="0.0" type="line"/>
      <point x="515.6206896551724" y="521.7241379310345" type="line"/>
      <point x="442.37931034482756" y="521.7241379310345" type="line"/>
      <point x="245.82758620689654" y="73.20689655172413" type="line"/>
      <point x="266.13793103448273" y="85.48275862068965" type="line"/>
      <point x="89.10344827586206" y="521.7241379310345" type="line"/>
      <point x="12.82758620689655" y="521.7241379310345" type="line"/>
    </contour>
  </outline>
</glyph>
<glyph name="w" format="2">
  <advance width="762.6551724137931"/>
  <unicode hex="0077"/>
  <anchor x="381.6551724137931" y="0.0" name="bottom"/>
  <anchor x="381.6551724137931" y="521.7241379310345" name="top"/>
  <outline>
    <contour>
      <point x="195.10344827586206" y="0.0" type="line"/>
      <point x="233.65517241379308" y="0.0" type="line"/>
      <point x="396.51724137931035" y="380.7931034482759" type="line"/>
      <point x="365.0" y="381.82758620689657" type="line"/>
      <point x="531.3103448275862" y="0.0" type="line"/>
      <point x="568.2413793103449" y="0.0" type="line"/>
      <point x="749.8275862068965" y="521.7241379310345" type="line"/>
      <point x="677.9310344827586" y="521.7241379310345" type="line"/>
      <point x="529.9310344827586" y="88.75862068965517" type="line"/>
      <point x="560.2068965517242" y="90.75862068965517" type="line"/>
      <point x="403.17241379310343" y="442.0" type="line"/>
      <point x="362.13793103448273" y="442.0" type="line"/>
      <point x="205.44827586206895" y="91.10344827586206" type="line"/>
      <point x="231.06896551724137" y="89.10344827586206" type="line"/>
      <point x="86.68965517241378" y="522.0689655172414" type="line"/>
      <point x="12.82758620689655" y="521.7241379310345" type="line"/>
    </contour>
  </outline>
</glyph>
<glyph name="x" format="2">
  <advance width="531.8620689655172"/>
  <unicode hex="0078"/>
  <anchor x="265.9310344827586" y="0.0" name="bottom"/>
  <anchor x="265.9310344827586" y="521.7241379310345" name="top"/>
  <outline>
    <contour>
      <point x="430.17241379310343" y="0.0" type="line"/>
      <point x="514.8965517241379" y="0.0" type="line"/>
      <point x="296.8965517241379" y="279.1034482758621" type="line"/>
      <point x="289.0689655172414" y="289.3103448275862" type="line"/>
      <point x="108.31034482758619" y="521.7241379310345" type="line"/>
      <point x="22.20689655172414" y="521.7241379310345" type="line"/>
      <point x="238.6206896551724" y="245.24137931034483" type="line"/>
      <point x="245.75862068965517" y="236.0689655172414" type="line"/>
    </contour>
    <contour>
      <point x="17.310344827586206" y="0.0" type="line"/>
      <point x="99.34482758620689" y="0.0" type="line"/>
      <point x="272.86206896551727" y="227.13793103448276" type="line"/>
      <point x="232.17241379310346" y="275.8965517241379" type="line"/>
    </contour>
    <contour>
      <point x="301.58620689655174" y="255.9655172413793" type="line"/>
      <point x="503.44827586206895" y="521.7241379310345" type="line"/>
      <point x="421.41379310344826" y="521.7241379310345" type="line"/>
      <point x="262.2758620689655" y="304.37931034482756" type="line"/>
    </contour>
  </outline>
</glyph>
<glyph name="y" format="2">
  <advance width="541.0344827586207"/>
  <unicode hex="0079"/>
  <anchor x="270.6896551724138" y="0.0" name="bottom"/>
  <anchor x="270.6896551724138" y="521.7241379310345" name="top"/>
  <outline>
    <contour>
      <point x="161.31034482758622" y="-230.0" type="line"/>
      <point x="233.65517241379308" y="-230.0" type="line"/>
      <point x="323.9655172413793" y="0.0" type="line"/>
      <point x="534.0689655172414" y="521.7241379310345" type="line"/>
      <point x="457.2758620689655" y="521.7241379310345" type="line"/>
      <point x="296.0344827586207" y="106.68965517241378" type="line" smooth="yes"/>
      <point x="287.3448275862069" y="84.58620689655172"/>
      <point x="279.3103448275862" y="62.48275862068965"/>
      <point x="270.62068965517244" y="40.37931034482759" type="curve"/>
      <point x="299.2413793103448" y="34.58620689655172" type="line"/>
      <point x="288.3103448275862" y="63.206896551724135"/>
      <point x="277.3103448275862" y="93.24137931034483"/>
      <point x="266.0689655172414" y="117.37931034482759" type="curve" smooth="yes"/>
      <point x="83.06896551724137" y="521.7241379310345" type="line"/>
      <point x="6.9655172413793105" y="521.7241379310345" type="line"/>
      <point x="268.9655172413793" y="-51.275862068965516" type="line"/>
      <point x="261.41379310344826" y="16.310344827586206" type="line"/>
    </contour>
  </outline>
</glyph>
<glyph name="z" format="2">
  <advance width="458.44827586206895"/>
  <unicode hex="007A"/>
  <anchor x="229.55172413793105" y="0.0" name="bottom"/>
  <anchor x="229.55172413793105" y="261.0344827586207" name="center"/>
  <anchor x="229.55172413793105" y="521.7241379310345" name="top"/>
  <outline>
    <contour>
      <point x="42.13793103448276" y="0.0" type="line"/>
      <point x="418.0344827586207" y="0.0" type="line"/>
      <point x="418.0344827586207" y="62.137931034482754" type="line"/>
      <point x="101.72413793103448" y="62.137931034482754" type="line"/>
      <point x="112.27586206896551" y="44.68965517241379" type="line"/>
      <point x="405.48275862068965" y="462.62068965517244" type="line"/>
      <point x="405.48275862068965" y="521.7241379310345" type="line"/>
      <point x="42.13793103448276" y="521.7241379310345" type="line"/>
      <point x="42.13793103448276" y="459.58620689655174" type="line"/>
      <point x="345.8965517241379" y="459.58620689655174" type="line"/>
      <point x="334.7586206896552" y="476.82758620689657" type="line"/>
      <point x="42.13793103448276" y="59.79310344827586" type="line"/>
    </contour>
  </outline>
</glyph>
<glyph name="braceleft" format="2">
  <advance width="407.0689655172414"/>
  <unicode hex="007B"/>
  <outline>
    <contour>
      <point x="366.37931034482756" y="-194.75862068965517" type="curve"/>
      <point x="379.13793103448273" y="-146.0689655172414" type="line"/>
      <point x="284.60886206896555" y="-114.11527586206897"/>
      <point x="255.3448275862069" y="-83.94241379310346"/>
      <point x="255.3448275862069" y="7.0" type="curve" smooth="yes"/>
      <point x="257.3448275862069" y="102.0" type="line" smooth="yes"/>
      <point x="257.3448275862069" y="178.0"/>
      <point x="224.6206896551724" y="229.333"/>
      <point x="159.24137931034483" y="252.0" type="curve"/>
      <point x="160.24137931034483" y="249.0" type="line"/>
      <point x="224.28768965517241" y="268.1266551724138"/>
      <point x="257.3448275862069" y="320.667"/>
      <point x="257.3448275862069" y="398.0" type="curve" smooth="yes"/>
      <point x="255.3448275862069" y="493.0" type="line" smooth="yes"/>
      <point x="255.3448275862069" y="584.4024137931035"/>
      <point x="285.06886206896553" y="614.5749310344828"/>
      <point x="379.13793103448273" y="646.0689655172414" type="curve"/>
      <point x="366.37931034482756" y="694.7586206896551" type="line"/>
      <point x="249.23010344827586" y="668.5059655172414"/>
      <point x="191.86206896551724" y="613.7123103448275"/>
      <point x="191.86206896551724" y="507.0" type="curve" smooth="yes"/>
      <point x="192.86206896551724" y="412.0" type="line" smooth="yes"/>
      <point x="192.86206896551724" y="326.3449310344827"/>
      <point x="156.03437931034483" y="278.1950689655173"/>
      <point x="86.37931034482759" y="276.86206896551727" type="curve" smooth="yes"/>
      <point x="47.93103448275862" y="276.86206896551727" type="line"/>
      <point x="47.93103448275862" y="223.13793103448276" type="line"/>
      <point x="84.37931034482759" y="223.13793103448276" type="line" smooth="yes"/>
      <point x="154.03437931034483" y="221.80493103448276"/>
      <point x="192.86206896551724" y="172.32172413793103"/>
      <point x="192.86206896551724" y="88.0" type="curve" smooth="yes"/>
      <point x="191.86206896551724" y="-7.0" type="line" smooth="yes"/>
      <point x="191.86206896551724" y="-115.09162068965517"/>
      <point x="249.68975862068964" y="-168.96562068965517"/>
    </contour>
  </outline>
</glyph>
<glyph name="bar" format="2">
  <advance width="229.0344827586207"/>
  <unicode hex="007C"/>
  <outline>
    <contour>
      <point x="82.06896551724138" y="-193.0" type="line"/>
      <point x="146.9655172413793" y="-193.0" type="line"/>
      <point x="146.9655172413793" y="740.0" type="line"/>
      <point x="82.06896551724138" y="740.0" type="line"/>
    </contour>
  </outline>
</glyph>
<glyph name="asciitilde" format="2">
  <advance width="510.0"/>
  <unicode hex="007E"/>
  <outline>
    <contour>
      <point x="362.0" y="238.0" type="curve" smooth="yes"/>
      <point x="425.83349999999996" y="238.0"/>
      <point x="461.0" y="277.0"/>
      <point x="461.0" y="349.0" type="curve"/>
      <point x="402.0" y="350.5" type="line"/>
      <point x="403.33349999999996" y="322.5"/>
      <point x="388.33349999999996" y="303.0"/>
      <point x="364.5" y="303.0" type="curve" smooth="yes"/>
      <point x="344.0" y="303.0"/>
      <point x="304.66650000000004" y="316.66650000000004"/>
      <point x="277.0" y="326.0" type="curve" smooth="yes"/>
      <point x="243.33350000000002" y="337.33349999999996"/>
      <point x="184.5" y="357.5"/>
      <point x="154.5" y="357.5" type="curve" smooth="yes"/>
      <point x="89.1665" y="357.5"/>
      <point x="52.0" y="314.0"/>
      <point x="52.0" y="238.0" type="curve"/>
      <point x="111.0" y="238.0" type="line"/>
      <point x="111.0" y="272.0"/>
      <point x="125.0" y="292.5"/>
      <point x="151.0" y="292.5" type="curve" smooth="yes"/>
      <point x="169.0" y="292.5"/>
      <point x="211.0" y="278.66650000000004"/>
      <point x="239.0" y="269.0" type="curve" smooth="yes"/>
      <point x="271.83349999999996" y="258.16650000000004"/>
      <point x="330.5" y="238.0"/>
    </contour>
  </outline>
</glyph>
<glyph name="cent" format="2">
  <advance width="535.6551724137931"/>
  <unicode hex="00A2"/>
  <outline>
    <contour>
      <point x="304.17241379310343" y="78.0" type="curve" smooth="yes"/>
      <point x="388.63206896551725" y="78.0"/>
      <point x="466.4596551724138" y="115.75862068965517"/>
      <point x="512.6206896551724" y="175.75862068965517" type="curve"/>
      <point x="471.3448275862069" y="224.13793103448276" type="line"/>
      <point x="424.3104482758621" y="169.51724137931035"/>
      <point x="368.28724137931033" y="142.82758620689654"/>
      <point x="302.7241379310345" y="142.82758620689654" type="curve" smooth="yes"/>
      <point x="199.36803448275862" y="142.82758620689654"/>
      <point x="115.06896551724138" y="230.8851724137931"/>
      <point x="115.06896551724138" y="349.6896551724138" type="curve" smooth="yes"/>
      <point x="115.06896551724138" y="468.9541379310345"/>
      <point x="196.98872413793103" y="555.8965517241379"/>
      <point x="306.9655172413793" y="555.8965517241379" type="curve" smooth="yes"/>
      <point x="369.44827586206895" y="555.8965517241379"/>
      <point x="433.44827586206895" y="523.2757586206897"/>
      <point x="473.3103448275862" y="472.2413793103448" type="curve"/>
      <point x="513.9310344827586" y="521.9310344827586" type="line"/>
      <point x="469.56300000000005" y="583.77"/>
      <point x="394.22955172413793" y="620.7241379310345"/>
      <point x="306.13793103448273" y="620.7241379310345" type="curve" smooth="yes"/>
      <point x="155.56355172413794" y="620.7241379310345"/>
      <point x="46.55172413793103" y="506.1033448275862"/>
      <point x="46.55172413793103" y="349.6896551724138" type="curve" smooth="yes"/>
      <point x="46.55172413793103" y="193.2759655172414"/>
      <point x="155.34472413793102" y="78.0"/>
    </contour>
    <contour>
      <point x="263.8965517241379" y="0.0" type="line"/>
      <point x="330.1034482758621" y="0.0" type="line"/>
      <point x="330.1034482758621" y="93.89655172413794" type="line"/>
      <point x="327.0344827586207" y="127.89655172413794" type="line"/>
      <point x="327.0344827586207" y="575.2758620689655" type="line"/>
      <point x="330.1034482758621" y="605.0" type="line"/>
      <point x="330.1034482758621" y="700.0" type="line"/>
      <point x="263.8965517241379" y="700.0" type="line"/>
      <point x="263.8965517241379" y="606.0" type="line"/>
      <point x="266.9655172413793" y="572.1724137931035" type="line"/>
      <point x="266.9655172413793" y="129.9310344827586" type="line"/>
      <point x="263.8965517241379" y="94.89655172413794" type="line"/>
    </contour>
  </outline>
</glyph>
<glyph name="sterling" format="2">
  <advance width="610.0"/>
  <unicode hex="00A3"/>
  <outline>
    <contour>
      <point x="192.0" y="54.5" type="line"/>
      <point x="242.66649999999998" y="108.5"/>
      <point x="260.0" y="164.66649999999998"/>
      <point x="260.0" y="224.0" type="curve" smooth="yes"/>
      <point x="260.0" y="264.0"/>
      <point x="243.0" y="313.0"/>
      <point x="230.0" y="353.0" type="curve" smooth="yes"/>
      <point x="216.0" y="395.0"/>
      <point x="199.0" y="447.0"/>
      <point x="199.0" y="491.0" type="curve" smooth="yes"/>
      <point x="199.0" y="573.0"/>
      <point x="256.66650000000004" y="632.0"/>
      <point x="341.0" y="632.0" type="curve" smooth="yes"/>
      <point x="383.83349999999996" y="632.0"/>
      <point x="430.66650000000004" y="618.5"/>
      <point x="464.0" y="576.0" type="curve"/>
      <point x="522.5" y="620.5" type="line"/>
      <point x="491.833" y="673.833"/>
      <point x="426.0" y="705.0"/>
      <point x="340.0" y="705.0" type="curve" smooth="yes"/>
      <point x="208.667" y="705.0"/>
      <point x="124.0" y="620.0"/>
      <point x="124.0" y="492.0" type="curve" smooth="yes"/>
      <point x="124.0" y="458.66650000000004"/>
      <point x="128.33350000000002" y="429.33349999999996"/>
      <point x="153.0" y="352.0" type="curve" smooth="yes"/>
      <point x="179.667" y="272.0"/>
      <point x="185.0" y="238.333"/>
      <point x="185.0" y="201.0" type="curve" smooth="yes"/>
      <point x="185.0" y="144.33350000000002"/>
      <point x="161.333" y="91.5"/>
      <point x="132.0" y="75.5" type="curve"/>
    </contour>
    <contour>
      <point x="432.5" y="-15.5" type="curve" smooth="yes"/>
      <point x="487.83349999999996" y="-15.5"/>
      <point x="541.167" y="3.0"/>
      <point x="580.5" y="35.0" type="curve"/>
      <point x="538.0" y="89.0" type="line"/>
      <point x="501.333" y="66.3335"/>
      <point x="467.16650000000004" y="54.0"/>
      <point x="432.5" y="54.0" type="curve" smooth="yes"/>
      <point x="399.0" y="54.0"/>
      <point x="367.5" y="64.0"/>
      <point x="334.0" y="76.0" type="curve" smooth="yes"/>
      <point x="274.0" y="96.6665"/>
      <point x="248.66649999999998" y="102.5"/>
      <point x="215.5" y="102.5" type="curve" smooth="yes"/>
      <point x="150.66649999999998" y="102.5"/>
      <point x="90.3335" y="85.3335"/>
      <point x="41.0" y="58.0" type="curve"/>
      <point x="73.0" y="0.5" type="line"/>
      <point x="119.6665" y="19.1665"/>
      <point x="167.5" y="33.0"/>
      <point x="207.5" y="33.0" type="curve" smooth="yes"/>
      <point x="237.0" y="33.0"/>
      <point x="285.0" y="18.0"/>
      <point x="313.0" y="9.5" type="curve" smooth="yes"/>
      <point x="348.0" y="-1.0"/>
      <point x="396.5" y="-15.5"/>
    </contour>
    <contour>
      <point x="49.0" y="333.0" type="line"/>
      <point x="447.0" y="333.0" type="line"/>
      <point x="447.0" y="399.5" type="line"/>
      <point x="49.0" y="399.5" type="line"/>
    </contour>
  </outline>
</glyph>
<glyph name="currency" format="2">
  <advance width="555.8965517241379"/>
  <unicode hex="00A4"/>
  <outline>
    <contour>
      <point x="279.0" y="122.0" type="curve" smooth="yes"/>
      <point x="377.667" y="122.0"/>
      <point x="457.0" y="202.0"/>
      <point x="457.0" y="302.0" type="curve" smooth="yes"/>
      <point x="457.0" y="400.667"/>
      <point x="376.333" y="482.0"/>
      <point x="279.0" y="482.0" type="curve" smooth="yes"/>
      <point x="180.333" y="482.0"/>
      <point x="101.0" y="402.0"/>
      <point x="101.0" y="302.0" type="curve" smooth="yes"/>
      <point x="101.0" y="202.0"/>
      <point x="180.333" y="122.0"/>
    </contour>
    <contour>
      <point x="111.9655172413793" y="97.72413793103448" type="line"/>
      <point x="196.75862068965517" y="180.9655172413793" type="line"/>
      <point x="148.68965517241378" y="228.3793103448276" type="line"/>
      <point x="64.55172413793103" y="145.44827586206895" type="line"/>
    </contour>
    <contour>
      <point x="148.0" y="381.2758620689655" type="line"/>
      <point x="195.72413793103448" y="428.3448275862069" type="line"/>
      <point x="108.86206896551724" y="509.86206896551727" type="line"/>
      <point x="61.793103448275865" y="462.13793103448273" type="line"/>
    </contour>
    <contour>
      <point x="279.0" y="182.48275862068965" type="curve" smooth="yes"/>
      <point x="211.7818275862069" y="182.48275862068965"/>
      <point x="164.89655172413794" y="232.06886206896553"/>
      <point x="164.89655172413794" y="302.0" type="curve" smooth="yes"/>
      <point x="164.89655172413794" y="371.0571379310345"/>
      <point x="211.7818275862069" y="421.86206896551727"/>
      <point x="279.0" y="421.86206896551727" type="curve" smooth="yes"/>
      <point x="347.5518275862069" y="421.86206896551727"/>
      <point x="393.44827586206895" y="371.0571379310345"/>
      <point x="393.44827586206895" y="302.0" type="curve" smooth="yes"/>
      <point x="393.44827586206895" y="232.06886206896553"/>
      <point x="347.5518275862069" y="182.48275862068965"/>
    </contour>
    <contour>
      <point x="446.3448275862069" y="100.48275862068965" type="line"/>
      <point x="493.41379310344826" y="148.20689655172413" type="line"/>
      <point x="407.2068965517241" y="229.06896551724137" type="line"/>
      <point x="359.48275862068965" y="182.0" type="line"/>
    </contour>
    <contour>
      <point x="409.62068965517244" y="382.3103448275862" type="line"/>
      <point x="494.1034482758621" y="465.2413793103448" type="line"/>
      <point x="446.6896551724138" y="512.9655172413793" type="line"/>
      <point x="361.8965517241379" y="429.37931034482756" type="line"/>
    </contour>
  </outline>
</glyph>
<glyph name="yen" format="2">
  <advance width="641.0"/>
  <unicode hex="00A5"/>
  <outline>
    <contour>
      <point x="295.82758620689657" y="0.0" type="line"/>
      <point x="365.17241379310343" y="0.0" type="line"/>
      <point x="365.17241379310343" y="357.0" type="line"/>
      <point x="350.17241379310343" y="289.0" type="line"/>
      <point x="621.1724137931035" y="700.0" type="line"/>
      <point x="540.4137931034483" y="700.0" type="line"/>
      <point x="322.48275862068965" y="363.51724137931035" type="line"/>
      <point x="342.2413793103448" y="362.48275862068965" type="line"/>
      <point x="105.27586206896552" y="700.0" type="line"/>
      <point x="19.827586206896555" y="700.0" type="line"/>
      <point x="302.82758620689657" y="300.0" type="line"/>
      <point x="295.82758620689657" y="349.0" type="line"/>
    </contour>
    <contour>
      <point x="288.06896551724134" y="111.58620689655173" type="line"/>
      <point x="525.2413793103449" y="141.24137931034483" type="line"/>
      <point x="383.1724137931035" y="173.3793103448276" type="line"/>
      <point x="146.0" y="143.72413793103448" type="line"/>
    </contour>
    <contour>
      <point x="288.06896551724134" y="254.20689655172413" type="line"/>
      <point x="525.2413793103449" y="283.8620689655172" type="line"/>
      <point x="383.1724137931035" y="316.0" type="line"/>
      <point x="146.0" y="286.3448275862069" type="line"/>
    </contour>
  </outline>
</glyph>
<glyph name="brokenbar" format="2">
  <advance width="231.79310344827587"/>
  <unicode hex="00A6"/>
  <outline>
    <contour>
      <point x="83.44827586206897" y="-202.0" type="line"/>
      <point x="148.3448275862069" y="-202.0" type="line"/>
      <point x="148.3448275862069" y="198.0" type="line"/>
      <point x="83.44827586206897" y="198.0" type="line"/>
    </contour>
    <contour>
      <point x="83.44827586206897" y="341.0" type="line"/>
      <point x="148.3448275862069" y="341.0" type="line"/>
      <point x="148.3448275862069" y="740.0" type="line"/>
      <point x="83.44827586206897" y="740.0" type="line"/>
    </contour>
  </outline>
</glyph>
<glyph name="section" format="2">
  <advance width="545.5"/>
  <unicode hex="00A7"/>
  <outline>
    <contour>
      <point x="316.5" y="143.5" type="line"/>
      <point x="420.5" y="147.5"/>
      <point x="491.0" y="198.0"/>
      <point x="494.0" y="289.5" type="curve" smooth="yes"/>
      <point x="496.0" y="360.5"/>
      <point x="447.5" y="405.5"/>
      <point x="362.0" y="432.5" type="curve" smooth="yes"/>
      <point x="256.5" y="467.0" type="line" smooth="yes"/>
      <point x="203.0" y="484.0"/>
      <point x="175.0" y="512.5"/>
      <point x="175.0" y="553.5" type="curve" smooth="yes"/>
      <point x="175.0" y="604.6665"/>
      <point x="220.5" y="637.0"/>
      <point x="282.5" y="637.0" type="curve" smooth="yes"/>
      <point x="339.33349999999996" y="637.0"/>
      <point x="388.16650000000004" y="613.5"/>
      <point x="427.0" y="577.5" type="curve"/>
      <point x="468.5" y="631.0" type="line"/>
      <point x="420.83349999999996" y="678.0"/>
      <point x="361.33349999999996" y="707.0"/>
      <point x="287.0" y="707.0" type="curve" smooth="yes"/>
      <point x="169.5" y="707.0"/>
      <point x="99.5" y="639.3335"/>
      <point x="99.5" y="551.0" type="curve" smooth="yes"/>
      <point x="99.5" y="456.0"/>
      <point x="179.5" y="410.0"/>
      <point x="213.5" y="399.0" type="curve" smooth="yes"/>
      <point x="345.0" y="356.5" type="line" smooth="yes"/>
      <point x="400.5" y="338.0"/>
      <point x="419.0" y="317.33349999999996"/>
      <point x="419.0" y="283.5" type="curve" smooth="yes"/>
      <point x="419.0" y="230.0"/>
      <point x="372.0" y="197.5"/>
      <point x="303.5" y="190.5" type="curve"/>
    </contour>
    <contour>
      <point x="277.5" y="-108.5" type="curve" smooth="yes"/>
      <point x="397.0" y="-108.5"/>
      <point x="466.5" y="-41.5"/>
      <point x="466.5" y="47.5" type="curve" smooth="yes"/>
      <point x="466.5" y="128.5"/>
      <point x="404.5" y="175.0"/>
      <point x="344.5" y="193.5" type="curve" smooth="yes"/>
      <point x="212.5" y="237.0" type="line" smooth="yes"/>
      <point x="161.5" y="253.0"/>
      <point x="142.5" y="281.5"/>
      <point x="142.5" y="312.0" type="curve" smooth="yes"/>
      <point x="142.5" y="365.5"/>
      <point x="192.0" y="395.0"/>
      <point x="247.5" y="401.5" type="curve"/>
      <point x="235.5" y="452.5" type="line"/>
      <point x="132.5" y="450.5"/>
      <point x="63.5" y="389.0"/>
      <point x="63.5" y="307.0" type="curve" smooth="yes"/>
      <point x="63.5" y="235.5"/>
      <point x="107.5" y="191.0"/>
      <point x="179.0" y="168.0" type="curve" smooth="yes"/>
      <point x="311.5" y="123.5" type="line" smooth="yes"/>
      <point x="359.5" y="107.5"/>
      <point x="391.0" y="82.5"/>
      <point x="391.0" y="41.5" type="curve" smooth="yes"/>
      <point x="391.0" y="-10.5"/>
      <point x="346.5" y="-40.0"/>
      <point x="279.0" y="-40.0" type="curve" smooth="yes"/>
      <point x="214.5" y="-40.0"/>
      <point x="151.0" y="-12.5"/>
      <point x="102.0" y="32.0" type="curve"/>
      <point x="64.5" y="-27.0" type="line"/>
      <point x="115.5" y="-74.0"/>
      <point x="196.5" y="-108.5"/>
    </contour>
  </outline>
</glyph>
<glyph name="copyright" format="2">
  <advance width="786.0"/>
  <unicode hex="00A9"/>
  <outline>
    <contour>
      <point x="393.0" y="-7.0" type="curve" smooth="yes"/>
      <point x="590.333" y="-7.0"/>
      <point x="750.0" y="151.333"/>
      <point x="750.0" y="350.0" type="curve" smooth="yes"/>
      <point x="750.0" y="548.667"/>
      <point x="590.333" y="707.0"/>
      <point x="393.0" y="707.0" type="curve" smooth="yes"/>
      <point x="194.333" y="707.0"/>
      <point x="36.0" y="548.667"/>
      <point x="36.0" y="350.0" type="curve" smooth="yes"/>
      <point x="36.0" y="151.333"/>
      <point x="194.333" y="-7.0"/>
    </contour>
    <contour>
      <point x="405.7586206896552" y="142.0" type="curve" smooth="yes"/>
      <point x="452.42562068965515" y="142.0"/>
      <point x="498.7586206896552" y="157.0"/>
      <point x="538.7586206896551" y="185.0" type="curve"/>
      <point x="512.8965517241379" y="234.79310344827587" type="line"/>
      <point x="478.6895517241379" y="210.33344827586205"/>
      <point x="445.1610344827586" y="199.41379310344828"/>
      <point x="405.7586206896552" y="199.41379310344828" type="curve" smooth="yes"/>
      <point x="319.32217241379306" y="199.41379310344828"/>
      <point x="252.86206896551724" y="263.97689655172417"/>
      <point x="252.86206896551724" y="350.0" type="curve" smooth="yes"/>
      <point x="252.86206896551724" y="431.1497586206896"/>
      <point x="320.1955172413793" y="499.58620689655174"/>
      <point x="405.7586206896552" y="499.58620689655174" type="curve" smooth="yes"/>
      <point x="444.6550689655173" y="499.58620689655174"/>
      <point x="480.93113793103447" y="483.7818275862069"/>
      <point x="508.2413793103448" y="461.8965517241379" type="curve"/>
      <point x="534.7586206896551" y="512.0" type="line"/>
      <point x="496.0916206896552" y="541.333"/>
      <point x="451.0916206896552" y="557.0"/>
      <point x="405.7586206896552" y="557.0" type="curve" smooth="yes"/>
      <point x="285.7586206896552" y="557.0"/>
      <point x="191.75862068965517" y="464.667"/>
      <point x="191.75862068965517" y="350.0" type="curve" smooth="yes"/>
      <point x="191.75862068965517" y="230.0"/>
      <point x="285.7586206896552" y="142.0"/>
    </contour>
    <contour>
      <point x="393.0" y="49.96551724137931" type="curve" smooth="yes"/>
      <point x="226.05758620689656" y="49.96551724137931"/>
      <point x="92.9655172413793" y="182.77258620689656"/>
      <point x="92.9655172413793" y="350.0" type="curve" smooth="yes"/>
      <point x="92.9655172413793" y="518.5496206896552"/>
      <point x="226.05758620689656" y="650.0344827586207"/>
      <point x="393.0" y="650.0344827586207" type="curve" smooth="yes"/>
      <point x="559.9424137931035" y="650.0344827586207"/>
      <point x="693.0344827586207" y="518.2757586206897"/>
      <point x="693.0344827586207" y="350.0" type="curve" smooth="yes"/>
      <point x="693.0344827586207" y="183.05758620689656"/>
      <point x="560.2274137931034" y="49.96551724137931"/>
    </contour>
  </outline>
</glyph>
<glyph name="ordfeminine" format="2">
  <advance width="365.0"/>
  <unicode hex="00AA"/>
  <outline>
    <contour>
      <point x="158.0689655172414" y="391.0" type="curve" smooth="yes"/>
      <point x="225.15437931034484" y="391.0"/>
      <point x="274.47148275862065" y="447.41379310344826"/>
      <point x="283.2068965517241" y="502.17241379310343" type="curve"/>
      <point x="262.3103448275862" y="474.0" type="line"/>
      <point x="262.3103448275862" y="401.0" type="line"/>
      <point x="321.8965517241379" y="401.0" type="line"/>
      <point x="321.8965517241379" y="715.0" type="line"/>
      <point x="262.3103448275862" y="715.0" type="line"/>
      <point x="262.3103448275862" y="634.8965517241379" type="line"/>
      <point x="283.2068965517241" y="592.0" type="line"/>
      <point x="279.7128620689655" y="670.2989655172414"/>
      <point x="236.2759655172414" y="721.0"/>
      <point x="164.82758620689654" y="721.0" type="curve" smooth="yes"/>
      <point x="77.71458620689656" y="721.0"/>
      <point x="21.551724137931036" y="654.0"/>
      <point x="21.551724137931036" y="562.0" type="curve" smooth="yes"/>
      <point x="21.551724137931036" y="459.333"/>
      <point x="74.09375862068966" y="391.0"/>
    </contour>
    <contour>
      <point x="168.72413793103448" y="438.3448275862069" type="curve" smooth="yes"/>
      <point x="114.62810344827585" y="438.3448275862069"/>
      <point x="81.79310344827586" y="485.7698965517242"/>
      <point x="81.79310344827586" y="562.0" type="curve" smooth="yes"/>
      <point x="81.79310344827586" y="623.1497586206897"/>
      <point x="120.32058620689655" y="673.6551724137931"/>
      <point x="168.3793103448276" y="673.6551724137931" type="curve" smooth="yes"/>
      <point x="228.9071379310345" y="673.6551724137931"/>
      <point x="265.6551724137931" y="628.5631034482758"/>
      <point x="265.6551724137931" y="555.0" type="curve" smooth="yes"/>
      <point x="265.6551724137931" y="484.1035517241379"/>
      <point x="226.5174827586207" y="438.3448275862069"/>
    </contour>
  </outline>
</glyph>
<glyph name="logicalnot" format="2">
  <advance width="670.0"/>
  <unicode hex="00AC"/>
  <outline>
    <contour>
      <point x="545.7931034482758" y="117.0" type="line"/>
      <point x="613.448275862069" y="117.0" type="line"/>
      <point x="613.448275862069" y="397.44827586206895" type="line"/>
      <point x="56.55172413793103" y="397.44827586206895" type="line"/>
      <point x="56.55172413793103" y="333.2068965517241" type="line"/>
      <point x="564.7931034482758" y="333.2068965517241" type="line"/>
      <point x="545.7931034482758" y="345.2068965517241" type="line"/>
    </contour>
  </outline>
</glyph>
<glyph name="registered" format="2">
  <advance width="513.0"/>
  <unicode hex="00AE"/>
  <outline>
    <contour>
      <point x="259.5" y="256.5" type="curve" smooth="yes"/>
      <point x="387.5" y="256.5"/>
      <point x="491.0" y="357.33349999999996"/>
      <point x="491.0" y="484.0" type="curve" smooth="yes"/>
      <point x="491.0" y="609.3335"/>
      <point x="386.201" y="711.5"/>
      <point x="259.5" y="711.5" type="curve" smooth="yes"/>
      <point x="131.5" y="711.5"/>
      <point x="27.0" y="610.6665"/>
      <point x="27.0" y="484.0" type="curve" smooth="yes"/>
      <point x="27.0" y="357.33349999999996"/>
      <point x="130.16649999999998" y="256.5"/>
    </contour>
    <contour>
      <point x="259.5" y="308.0" type="curve" smooth="yes"/>
      <point x="158.83350000000002" y="308.0"/>
      <point x="78.0" y="385.333"/>
      <point x="78.0" y="484.0" type="curve" smooth="yes"/>
      <point x="78.0" y="582.667"/>
      <point x="158.83350000000002" y="660.5"/>
      <point x="259.5" y="660.5" type="curve" smooth="yes"/>
      <point x="358.7935" y="660.5"/>
      <point x="439.5" y="582.667"/>
      <point x="439.5" y="484.0" type="curve" smooth="yes"/>
      <point x="439.5" y="385.333"/>
      <point x="358.83349999999996" y="308.0"/>
    </contour>
    <contour>
      <point x="305.5" y="367.0" type="line"/>
      <point x="356.5" y="367.0" type="line"/>
      <point x="305.5" y="481.0" type="line"/>
      <point x="261.5" y="467.0" type="line"/>
    </contour>
    <contour>
      <point x="175.5" y="367.0" type="line"/>
      <point x="223.5" y="367.0" type="line"/>
      <point x="223.5" y="470.0" type="line"/>
      <point x="202.0" y="458.5" type="line"/>
      <point x="278.0" y="458.5" type="line" smooth="yes"/>
      <point x="322.66650000000004" y="458.5"/>
      <point x="357.0" y="490.0"/>
      <point x="357.0" y="534.0" type="curve" smooth="yes"/>
      <point x="357.0" y="578.0"/>
      <point x="325.33349999999996" y="608.5"/>
      <point x="278.0" y="608.5" type="curve" smooth="yes"/>
      <point x="175.5" y="608.5" type="line"/>
    </contour>
    <contour>
      <point x="223.5" y="487.0" type="line"/>
      <point x="223.5" y="576.5" type="line"/>
      <point x="201.0" y="565.5" type="line"/>
      <point x="265.0" y="565.5" type="line" smooth="yes"/>
      <point x="295.0" y="565.5"/>
      <point x="310.5" y="553.0"/>
      <point x="310.5" y="531.0" type="curve" smooth="yes"/>
      <point x="310.5" y="511.0"/>
      <point x="291.0" y="497.0"/>
      <point x="263.0" y="497.0" type="curve" smooth="yes"/>
      <point x="204.0" y="497.0" type="line"/>
    </contour>
  </outline>
</glyph>
<glyph name="degree" format="2">
  <advance width="532.0"/>
  <unicode hex="00B0"/>
  <outline>
    <contour>
      <point x="266.0" y="399.0" type="curve" smooth="yes"/>
      <point x="354.0" y="399.0"/>
      <point x="422.0" y="467.333"/>
      <point x="422.0" y="554.0" type="curve" smooth="yes"/>
      <point x="422.0" y="640.667"/>
      <point x="355.333" y="709.0"/>
      <point x="266.0" y="709.0" type="curve" smooth="yes"/>
      <point x="176.667" y="709.0"/>
      <point x="110.0" y="641.0"/>
      <point x="110.0" y="553.0" type="curve" smooth="yes"/>
      <point x="110.0" y="467.667"/>
      <point x="178.0" y="399.0"/>
    </contour>
    <contour>
      <point x="266.0" y="447.6551724137931" type="curve" smooth="yes"/>
      <point x="211.05758620689656" y="447.6551724137931"/>
      <point x="166.0" y="495.03089655172414"/>
      <point x="166.0" y="553.0" type="curve" smooth="yes"/>
      <point x="166.0" y="612.3040689655172"/>
      <point x="209.72424137931034" y="660.0"/>
      <point x="266.0" y="660.0" type="curve" smooth="yes"/>
      <point x="320.94241379310347" y="660.0"/>
      <point x="366.0" y="611.9664827586207"/>
      <point x="366.0" y="554.0" type="curve" smooth="yes"/>
      <point x="366.0" y="496.39058620689656"/>
      <point x="321.30341379310346" y="447.6551724137931"/>
    </contour>
  </outline>
</glyph>
<glyph name="plusminus" format="2">
  <advance width="590.0"/>
  <unicode hex="00B1"/>
  <outline>
    <contour>
      <point x="55.0" y="305.5" type="line"/>
      <point x="535.0" y="305.5" type="line"/>
      <point x="535.0" y="374.5" type="line"/>
      <point x="55.0" y="374.5" type="line"/>
    </contour>
    <contour>
      <point x="55.0" y="20.5" type="line"/>
      <point x="535.0" y="20.5" type="line"/>
      <point x="535.0" y="90.5" type="line"/>
      <point x="55.0" y="90.5" type="line"/>
    </contour>
    <contour>
      <point x="257.0" y="155.0" type="line"/>
      <point x="334.0" y="155.0" type="line"/>
      <point x="334.0" y="529.5" type="line"/>
      <point x="257.0" y="529.5" type="line"/>
    </contour>
  </outline>
</glyph>
<glyph name="micro" format="2">
  <advance width="569.6206896551724"/>
  <unicode hex="00B5"/>
  <outline>
    <contour>
      <point x="75.41379310344827" y="-157.0" type="line"/>
      <point x="140.9655172413793" y="-157.0" type="line"/>
      <point x="140.3103448275862" y="79.6896551724138" type="line"/>
      <point x="125.44827586206895" y="74.55172413793105" type="line"/>
      <point x="155.79310344827587" y="15.425172413793103"/>
      <point x="203.20679310344826" y="-10.0"/>
      <point x="263.7586206896552" y="-10.0" type="curve" smooth="yes"/>
      <point x="333.50596551724135" y="-10.0"/>
      <point x="403.0921724137931" y="27.873344827586205"/>
      <point x="441.0689655172414" y="115.06896551724138" type="curve"/>
      <point x="429.48275862068965" y="121.86206896551724" type="line"/>
      <point x="432.7586206896552" y="0.0" type="line"/>
      <point x="497.6551724137931" y="0.0" type="line"/>
      <point x="497.6551724137931" y="521.7241379310345" type="line"/>
      <point x="431.44827586206895" y="521.7241379310345" type="line"/>
      <point x="431.44827586206895" y="208.89655172413794" type="line" smooth="yes"/>
      <point x="431.44827586206895" y="124.9881724137931"/>
      <point x="359.56300000000005" y="52.48275862068965"/>
      <point x="266.9655172413793" y="52.48275862068965" type="curve" smooth="yes"/>
      <point x="182.32172413793103" y="52.48275862068965"/>
      <point x="141.6206896551724" y="102.65527586206896"/>
      <point x="141.6206896551724" y="209.55172413793105" type="curve" smooth="yes"/>
      <point x="141.6206896551724" y="521.7241379310345" type="line"/>
      <point x="75.41379310344827" y="521.7241379310345" type="line"/>
    </contour>
  </outline>
</glyph>
<glyph name="paragraph" format="2">
  <advance width="663.5"/>
  <unicode hex="00B6"/>
  <outline>
    <contour>
      <point x="262.0" y="0.0" type="line"/>
      <point x="341.0" y="0.0" type="line"/>
      <point x="341.0" y="666.5" type="line"/>
      <point x="297.0" y="625.5" type="line"/>
      <point x="503.5" y="625.5" type="line"/>
      <point x="481.5" y="670.0" type="line"/>
      <point x="481.5" y="0.0" type="line"/>
      <point x="560.5" y="0.0" type="line"/>
      <point x="560.5" y="700.0" type="line"/>
      <point x="274.0" y="700.0" type="line" smooth="yes"/>
      <point x="138.0" y="700.0"/>
      <point x="49.0" y="615.333"/>
      <point x="49.0" y="486.0" type="curve" smooth="yes"/>
      <point x="49.0" y="366.0"/>
      <point x="129.0" y="279.0"/>
      <point x="237.0" y="279.0" type="curve" smooth="yes"/>
      <point x="286.0" y="279.0" type="line"/>
      <point x="262.0" y="314.0" type="line"/>
    </contour>
  </outline>
</glyph>
<glyph name="ordmasculine" format="2">
  <advance width="354.0"/>
  <unicode hex="00BA"/>
  <outline>
    <contour>
      <point x="176.0" y="392.0" type="curve" smooth="yes"/>
      <point x="263.7975" y="392.0"/>
      <point x="329.0" y="459.667"/>
      <point x="329.0" y="549.0" type="curve" smooth="yes"/>
      <point x="329.0" y="639.667"/>
      <point x="262.506" y="710.0"/>
      <point x="176.0" y="710.0" type="curve" smooth="yes"/>
      <point x="89.53" y="710.0"/>
      <point x="25.0" y="641.0"/>
      <point x="25.0" y="549.0" type="curve" smooth="yes"/>
      <point x="25.0" y="458.333"/>
      <point x="89.53" y="392.0"/>
    </contour>
    <contour>
      <point x="176.0" y="447.5" type="curve" smooth="yes"/>
      <point x="125.6165" y="447.5"/>
      <point x="90.5" y="489.0"/>
      <point x="90.5" y="549.0" type="curve" smooth="yes"/>
      <point x="90.5" y="611.6665"/>
      <point x="123.735" y="654.5"/>
      <point x="176.0" y="654.5" type="curve" smooth="yes"/>
      <point x="228.11599999999999" y="654.5"/>
      <point x="263.0" y="611.6665"/>
      <point x="263.0" y="549.0" type="curve" smooth="yes"/>
      <point x="263.0" y="489.0"/>
      <point x="228.11599999999999" y="447.5"/>
    </contour>
  </outline>
</glyph>
<glyph name="AE" format="2">
  <advance width="955.5"/>
  <unicode hex="00C6"/>
  <anchor x="478.0" y="0.0" name="bottom"/>
  <anchor x="641.5" y="700.0" name="top"/>
  <outline>
    <contour>
      <point x="2.5" y="0.0" type="line"/>
      <point x="87.0" y="0.0" type="line"/>
      <point x="490.5" y="585.0" type="line"/>
      <point x="465.0" y="593.0" type="line"/>
      <point x="465.0" y="243.0" type="line"/>
      <point x="239.0" y="243.0" type="line"/>
      <point x="190.5" y="172.0" type="line"/>
      <point x="465.0" y="172.0" type="line"/>
      <point x="465.0" y="0.0" type="line"/>
      <point x="881.0" y="0.0" type="line"/>
      <point x="881.0" y="71.5" type="line"/>
      <point x="540.5" y="71.5" type="line"/>
      <point x="540.5" y="322.0" type="line"/>
      <point x="832.0" y="322.0" type="line"/>
      <point x="832.0" y="394.0" type="line"/>
      <point x="540.5" y="394.0" type="line"/>
      <point x="540.5" y="628.5" type="line"/>
      <point x="883.0" y="628.5" type="line"/>
      <point x="883.0" y="700.0" type="line"/>
      <point x="489.5" y="700.0" type="line"/>
    </contour>
  </outline>
</glyph>
<glyph name="Eth" format="2">
  <advance width="742.1034482758621"/>
  <unicode hex="00D0"/>
  <anchor x="371.37931034482756" y="0.0" name="bottom"/>
  <anchor x="180.13793103448276" y="350.0" name="center"/>
  <anchor x="371.37931034482756" y="700.0" name="top"/>
  <outline>
    <contour>
      <point x="44.41379310344828" y="319.41379310344826" type="line"/>
      <point x="312.41379310344826" y="319.41379310344826" type="line"/>
      <point x="312.41379310344826" y="379.9310344827586" type="line"/>
      <point x="44.41379310344828" y="379.9310344827586" type="line"/>
    </contour>
    <component base="D"/>
  </outline>
</glyph>
<glyph name="multiply" format="2">
  <advance width="466.3103448275862"/>
  <unicode hex="00D7"/>
  <outline>
    <contour>
      <point x="283.4137931034483" y="86.06896551724138" type="line"/>
      <point x="427.3448275862069" y="230.03448275862067" type="line"/>
      <point x="182.5862068965517" y="475.51724137931035" type="line"/>
      <point x="39.6551724137931" y="331.89655172413796" type="line"/>
    </contour>
    <contour>
      <point x="181.2413793103448" y="90.44827586206897" type="line"/>
      <point x="426.0689655172414" y="333.55172413793105" type="line"/>
      <point x="283.1034482758621" y="476.17241379310343" type="line"/>
      <point x="38.275862068965516" y="232.72413793103445" type="line"/>
    </contour>
  </outline>
</glyph>
<glyph name="Oslash" format="2">
  <advance width="778.5"/>
  <unicode hex="00D8"/>
  <anchor x="389.5" y="0.0" name="bottom"/>
  <anchor x="389.5" y="700.0" name="top"/>
  <anchor x="391.5" y="350.0" name="center"/>
  <anchor x="556.0" y="0.0" name="ogonek"/>
  <anchor x="19.0" y="700.0" name="topleft"/>
  <anchor x="763.5" y="700.0" name="topright"/>
  <outline>
    <contour>
      <point x="118.5" y="-31.5" type="line"/>
      <point x="711.0" y="693.5" type="line"/>
      <point x="660.0" y="733.0" type="line"/>
      <point x="70.0" y="11.0" type="line"/>
    </contour>
    <component base="O" xOffset="-1.0"/>
  </outline>
</glyph>
<glyph name="Thorn" format="2">
  <advance width="611.5"/>
  <unicode hex="00DE"/>
  <anchor x="306.0" y="0.0" name="bottom"/>
  <anchor x="306.0" y="700.0" name="top"/>
  <outline>
    <contour>
      <point x="103.0" y="0.0" type="line"/>
      <point x="182.0" y="0.0" type="line"/>
      <point x="182.0" y="151.0" type="line"/>
      <point x="365.5" y="151.0" type="line" smooth="yes"/>
      <point x="476.833" y="151.0"/>
      <point x="564.0" y="243.33350000000002"/>
      <point x="564.0" y="358.0" type="curve" smooth="yes"/>
      <point x="564.0" y="472.66650000000004"/>
      <point x="476.66650000000004" y="563.0"/>
      <point x="366.0" y="563.0" type="curve" smooth="yes"/>
      <point x="182.0" y="563.0" type="line"/>
      <point x="182.0" y="700.0" type="line"/>
      <point x="103.0" y="700.0" type="line"/>
    </contour>
    <contour>
      <point x="182.0" y="230.0" type="line"/>
      <point x="182.0" y="484.0" type="line"/>
      <point x="364.0" y="484.0" type="line" smooth="yes"/>
      <point x="433.333" y="484.0"/>
      <point x="482.5" y="428.0"/>
      <point x="482.5" y="358.0" type="curve" smooth="yes"/>
      <point x="482.5" y="288.667"/>
      <point x="434.66650000000004" y="230.0"/>
      <point x="364.0" y="230.0" type="curve" smooth="yes"/>
    </contour>
  </outline>
</glyph>
<glyph name="germandbls" format="2">
  <advance width="643.6896551724138"/>
  <unicode hex="00DF"/>
  <anchor x="322.17241379310343" y="0.0" name="bottom"/>
  <anchor x="322.17241379310343" y="521.7241379310345" name="top"/>
  <outline>
    <contour>
      <point x="397.7586206896552" y="-10.0" type="curve" smooth="yes"/>
      <point x="519.8733448275863" y="-10.0"/>
      <point x="598.4137931034483" y="79.70148275862068"/>
      <point x="598.4137931034483" y="195.79310344827587" type="curve" smooth="yes"/>
      <point x="598.4137931034483" y="307.8394137931034"/>
      <point x="528.5059655172414" y="393.9428620689655"/>
      <point x="386.0689655172414" y="435.13793103448273" type="curve"/>
      <point x="382.8275862068965" y="421.9655172413793" type="line"/>
      <point x="464.71275862068967" y="437.7354137931035"/>
      <point x="526.7931034482758" y="498.8044827586207"/>
      <point x="526.7931034482758" y="575.3103448275862" type="curve" smooth="yes"/>
      <point x="526.7931034482758" y="663.8619655172414"/>
      <point x="451.96562068965517" y="731.3793103448276"/>
      <point x="335.0" y="731.3793103448276" type="curve" smooth="yes"/>
      <point x="199.41368965517242" y="731.3793103448276"/>
      <point x="114.58620689655172" y="637.2526551724138"/>
      <point x="114.58620689655172" y="499.0" type="curve" smooth="yes"/>
      <point x="114.58620689655172" y="0.0" type="line"/>
      <point x="180.79310344827587" y="0.0" type="line"/>
      <point x="180.79310344827587" y="502.6551724137931" type="line" smooth="yes"/>
      <point x="180.79310344827587" y="601.0916206896552"/>
      <point x="238.8388620689655" y="668.8965517241379"/>
      <point x="334.9310344827586" y="668.8965517241379" type="curve" smooth="yes"/>
      <point x="411.20679310344826" y="668.8965517241379"/>
      <point x="458.9655172413793" y="627.4364482758621"/>
      <point x="458.9655172413793" y="567.6206896551724" type="curve" smooth="yes"/>
      <point x="458.9655172413793" y="508.7698965517242"/>
      <point x="412.13793103448273" y="464.1148275862069"/>
      <point x="317.7931034482759" y="442.13793103448273" type="curve"/>
      <point x="317.7931034482759" y="396.7931034482759" type="line"/>
      <point x="465.8389655172414" y="359.1380344827586"/>
      <point x="531.551724137931" y="293.43699999999995"/>
      <point x="531.551724137931" y="190.31034482758622" type="curve" smooth="yes"/>
      <point x="531.551724137931" y="105.66655172413793"/>
      <point x="479.8734482758621" y="47.689655172413794"/>
      <point x="401.0689655172414" y="47.689655172413794" type="curve" smooth="yes"/>
      <point x="350.7241379310345" y="47.689655172413794"/>
      <point x="310.58620689655174" y="70.60941379310344"/>
      <point x="277.2068965517241" y="106.10344827586206" type="curve"/>
      <point x="235.68965517241378" y="64.86206896551724" type="line"/>
      <point x="271.6896551724138" y="19.529068965517244"/>
      <point x="325.8965517241379" y="-10.0"/>
    </contour>
    <contour>
      <point x="38.44827586206897" y="424.9655172413793" type="line"/>
      <point x="154.44827586206895" y="424.9655172413793" type="line"/>
      <point x="154.44827586206895" y="487.82758620689657" type="line"/>
      <point x="38.44827586206897" y="487.82758620689657" type="line"/>
    </contour>
  </outline>
</glyph>
<glyph name="ae" format="2">
  <advance width="887.8620689655172"/>
  <unicode hex="00E6"/>
  <anchor x="444.1034482758621" y="0.0" name="bottom"/>
  <anchor x="444.1034482758621" y="521.7241379310345" name="top"/>
  <outline>
    <contour>
      <point x="212.06896551724137" y="-10.0" type="curve" smooth="yes"/>
      <point x="303.5173448275862" y="-10.0"/>
      <point x="393.8157586206897" y="40.94286206896552"/>
      <point x="440.48275862068965" y="118.13793103448276" type="curve"/>
      <point x="404.3448275862069" y="165.48275862068965" type="line"/>
      <point x="370.2301034482758" y="100.333"/>
      <point x="297.67837931034484" y="53.103448275862064"/>
      <point x="216.06896551724137" y="53.103448275862064" type="curve" smooth="yes"/>
      <point x="150.1378275862069" y="53.103448275862064"/>
      <point x="102.24137931034483" y="92.14920689655172"/>
      <point x="102.24137931034483" y="151.0" type="curve" smooth="yes"/>
      <point x="102.24137931034483" y="213.52906896551724"/>
      <point x="157.39113793103448" y="250.10344827586206"/>
      <point x="257.0689655172414" y="250.10344827586206" type="curve" smooth="yes"/>
      <point x="854.7241379310345" y="250.10344827586206" type="line"/>
      <point x="855.7241379310345" y="282.3103448275862" type="line" smooth="yes"/>
      <point x="855.7241379310345" y="428.9773448275862"/>
      <point x="767.9197586206897" y="532.2644827586207"/>
      <point x="630.1724137931035" y="532.7241379310345" type="curve" smooth="yes"/>
      <point x="486.67837931034484" y="532.7241379310345"/>
      <point x="386.7586206896552" y="427.52906896551724"/>
      <point x="386.7586206896552" y="259.62068965517244" type="curve" smooth="yes"/>
      <point x="386.7586206896552" y="99.207"/>
      <point x="493.36793103448275" y="-10.0"/>
      <point x="645.9655172413793" y="-10.0" type="curve" smooth="yes"/>
      <point x="726.2872413793103" y="-10.0"/>
      <point x="798.3793103448276" y="23.643344827586205"/>
      <point x="843.7586206896551" y="67.6896551724138" type="curve"/>
      <point x="809.4827586206897" y="117.79310344827586" type="line"/>
      <point x="749.6206896551724" y="68.09206896551724"/>
      <point x="704.6896551724138" y="55.172413793103445"/>
      <point x="655.3103448275862" y="55.172413793103445" type="curve" smooth="yes"/>
      <point x="530.2985172413793" y="55.172413793103445"/>
      <point x="453.55172413793105" y="138.57482758620688"/>
      <point x="453.55172413793105" y="264.0" type="curve" smooth="yes"/>
      <point x="453.55172413793105" y="396.5974827586207"/>
      <point x="524.2758620689655" y="467.2068965517241"/>
      <point x="629.5172413793103" y="467.2068965517241" type="curve" smooth="yes"/>
      <point x="728.9655172413793" y="467.2068965517241"/>
      <point x="785.333" y="388.4941379310345"/>
      <point x="786.7586206896551" y="313.55172413793105" type="curve"/>
      <point x="786.7586206896551" y="290.2068965517241" type="line"/>
      <point x="806.3448275862069" y="309.17241379310343" type="line"/>
      <point x="270.0689655172414" y="309.17241379310343" type="line" smooth="yes"/>
      <point x="114.52862068965517" y="309.63206896551725"/>
      <point x="34.06896551724138" y="254.88527586206897"/>
      <point x="34.06896551724138" y="149.0" type="curve" smooth="yes"/>
      <point x="34.06896551724138" y="53.0"/>
      <point x="110.73596551724138" y="-10.0"/>
    </contour>
    <contour>
      <point x="386.7586206896552" y="277.9655172413793" type="line"/>
      <point x="447.6551724137931" y="280.0344827586207" type="line"/>
      <point x="447.6551724137931" y="378.82758620689657" type="line" smooth="yes"/>
      <point x="447.6551724137931" y="476.98862068965514"/>
      <point x="372.2758620689655" y="532.7241379310345"/>
      <point x="253.51724137931035" y="532.7241379310345" type="curve" smooth="yes"/>
      <point x="170.85024137931035" y="532.7241379310345"/>
      <point x="100.68975862068966" y="498.8044827586207"/>
      <point x="39.86206896551724" y="431.7241379310345" type="curve"/>
      <point x="86.55172413793103" y="385.6896551724138" type="line"/>
      <point x="132.20679310344826" y="439.3906896551724"/>
      <point x="184.1148275862069" y="467.2068965517241"/>
      <point x="251.51724137931035" y="467.2068965517241" type="curve" smooth="yes"/>
      <point x="339.0118275862069" y="467.2068965517241"/>
      <point x="386.7586206896552" y="423.67782758620694"/>
      <point x="386.7586206896552" y="361.2413793103448" type="curve" smooth="yes"/>
    </contour>
  </outline>
</glyph>
<glyph name="eth" format="2">
  <advance width="566.5"/>
  <unicode hex="00F0"/>
  <outline>
    <contour>
      <point x="283.5" y="-8.5" type="curve" smooth="yes"/>
      <point x="427.5" y="-8.5"/>
      <point x="530.5" y="108.1665"/>
      <point x="530.5" y="273.5" type="curve" smooth="yes"/>
      <point x="530.5" y="523.5"/>
      <point x="405.0" y="691.5"/>
      <point x="207.0" y="739.5" type="curve"/>
      <point x="175.5" y="681.0" type="line"/>
      <point x="344.16650000000004" y="638.3335"/>
      <point x="436.16650000000004" y="524.667"/>
      <point x="445.5" y="380.0" type="curve"/>
      <point x="481.5" y="363.0" type="line"/>
      <point x="456.167" y="457.0"/>
      <point x="380.83349999999996" y="527.5"/>
      <point x="281.5" y="527.5" type="curve" smooth="yes"/>
      <point x="145.5" y="527.5"/>
      <point x="36.0" y="411.16650000000004"/>
      <point x="36.0" y="262.5" type="curve" smooth="yes"/>
      <point x="36.0" y="107.833"/>
      <point x="142.83350000000002" y="-8.5"/>
    </contour>
    <contour>
      <point x="283.5" y="64.5" type="curve" smooth="yes"/>
      <point x="184.83350000000002" y="64.5"/>
      <point x="111.0" y="149.167"/>
      <point x="111.0" y="262.5" type="curve" smooth="yes"/>
      <point x="111.0" y="373.83349999999996"/>
      <point x="184.83350000000002" y="456.5"/>
      <point x="283.5" y="456.5" type="curve" smooth="yes"/>
      <point x="381.5" y="456.5"/>
      <point x="455.5" y="373.167"/>
      <point x="455.5" y="262.5" type="curve" smooth="yes"/>
      <point x="455.5" y="149.167"/>
      <point x="381.5" y="64.5"/>
    </contour>
    <contour>
      <point x="154.0" y="539.5" type="line"/>
      <point x="362.5" y="591.0" type="line"/>
      <point x="394.0" y="602.5" type="line"/>
      <point x="497.5" y="627.5" type="line"/>
      <point x="483.0" y="681.0" type="line"/>
      <point x="351.0" y="649.0" type="line"/>
      <point x="311.5" y="636.0" type="line"/>
      <point x="143.5" y="592.5" type="line"/>
    </contour>
  </outline>
</glyph>
<glyph name="divide" format="2">
  <advance width="593.0689655172414"/>
  <unicode hex="00F7"/>
  <outline>
    <contour>
      <point x="52.62068965517241" y="249.72413793103448" type="line"/>
      <point x="539.1379310344828" y="249.72413793103448" type="line"/>
      <point x="539.1379310344828" y="312.2068965517241" type="line"/>
      <point x="52.62068965517241" y="312.2068965517241" type="line"/>
    </contour>
    <contour>
      <point x="294.3103448275862" y="58.24137931034483" type="curve" smooth="yes"/>
      <point x="325.9423103448276" y="58.24137931034483"/>
      <point x="346.86206896551727" y="80.2526551724138"/>
      <point x="346.86206896551727" y="110.13793103448276" type="curve" smooth="yes"/>
      <point x="346.86206896551727" y="140.89655172413794"/>
      <point x="325.9423103448276" y="162.0344827586207"/>
      <point x="294.3103448275862" y="162.0344827586207" type="curve" smooth="yes"/>
      <point x="262.67837931034484" y="162.0344827586207"/>
      <point x="241.41379310344828" y="140.02320689655173"/>
      <point x="241.41379310344828" y="110.13793103448276" type="curve" smooth="yes"/>
      <point x="241.41379310344828" y="79.37931034482759"/>
      <point x="262.67837931034484" y="58.24137931034483"/>
    </contour>
    <contour>
      <point x="294.9655172413793" y="389.6896551724138" type="curve" smooth="yes"/>
      <point x="326.1378275862069" y="389.6896551724138"/>
      <point x="347.51724137931035" y="411.8157586206897"/>
      <point x="347.51724137931035" y="441.2413793103448" type="curve" smooth="yes"/>
      <point x="347.51724137931035" y="472.0"/>
      <point x="326.5974827586207" y="493.48275862068965"/>
      <point x="294.9655172413793" y="493.48275862068965" type="curve" smooth="yes"/>
      <point x="263.3335517241379" y="493.48275862068965"/>
      <point x="242.0689655172414" y="471.1266551724138"/>
      <point x="242.0689655172414" y="441.2413793103448" type="curve" smooth="yes"/>
      <point x="242.0689655172414" y="410.94241379310347"/>
      <point x="263.3335517241379" y="389.6896551724138"/>
    </contour>
  </outline>
</glyph>
<glyph name="oslash" format="2">
  <advance width="604.5172413793103"/>
  <unicode hex="00F8"/>
  <anchor x="302.7586206896552" y="521.7241379310345" name="top"/>
  <anchor x="302.7586206896552" y="0.0" name="bottom"/>
  <anchor x="302.7586206896552" y="261.0344827586207" name="center"/>
  <anchor x="441.3448275862069" y="0.0" name="ogonek"/>
  <anchor x="584.5172413793103" y="521.7241379310345" name="topright"/>
  <outline>
    <contour>
      <point x="92.58620689655172" y="-27.79310344827586" type="line"/>
      <point x="553.1379310344828" y="511.0689655172414" type="line"/>
      <point x="507.1034482758621" y="545.0" type="line"/>
      <point x="47.55172413793103" y="5.137931034482758" type="line"/>
    </contour>
    <component base="o"/>
  </outline>
</glyph>
<glyph name="dcroat" format="2">
  <advance width="621.5"/>
  <unicode hex="0111"/>
  <anchor x="311.0" y="0.0" name="bottom"/>
  <anchor x="490.5" y="634.0" name="center"/>
  <anchor x="311.0" y="740.0" name="top"/>
  <anchor x="576.5" y="740.0" name="topright"/>
  <outline>
    <contour>
      <point x="356.5" y="600.0" type="line"/>
      <point x="624.5" y="600.0" type="line"/>
      <point x="624.5" y="667.5" type="line"/>
      <point x="356.5" y="667.5" type="line"/>
    </contour>
    <component base="d"/>
  </outline>
</glyph>
<glyph name="eogonek" format="2">
  <advance width="563.0"/>
  <unicode hex="0119"/>
  <anchor x="281.5" y="522.5" name="top"/>
  <anchor x="303.5" y="0.0" name="bottom"/>
  <anchor x="469.5" y="0.0" name="ogonek"/>
  <outline>
    <contour>
      <point x="380.5" y="-210.5" type="curve" smooth="yes"/>
      <point x="428.5" y="-210.5"/>
      <point x="465.0" y="-187.0"/>
      <point x="486.5" y="-152.5" type="curve"/>
      <point x="442.0" y="-120.5" type="line"/>
      <point x="425.5" y="-142.0"/>
      <point x="410.5" y="-151.0"/>
      <point x="391.5" y="-151.0" type="curve" smooth="yes"/>
      <point x="363.5" y="-151.0"/>
      <point x="344.5" y="-131.5"/>
      <point x="344.5" y="-101.0" type="curve" smooth="yes"/>
      <point x="344.5" y="-52.5"/>
      <point x="388.5" y="-8.0"/>
      <point x="467.0" y="38.5" type="curve"/>
      <point x="443.5" y="68.5" type="line"/>
      <point x="345.0" y="16.5"/>
      <point x="276.0" y="-36.5"/>
      <point x="276.0" y="-115.0" type="curve" smooth="yes"/>
      <point x="276.0" y="-170.0"/>
      <point x="318.0" y="-210.5"/>
    </contour>
    <component base="e"/>
  </outline>
</glyph>
<glyph name="Hbar" format="2">
  <advance width="800.5"/>
  <unicode hex="0126"/>
  <anchor x="400.5" y="0.0" name="bottom"/>
  <anchor x="400.5" y="350.0" name="center"/>
  <anchor x="400.5" y="700.0" name="top"/>
  <anchor x="44.0" y="700.0" name="topleft"/>
  <outline>
    <contour>
      <point x="42.5" y="502.0" type="line"/>
      <point x="140.0" y="502.0" type="line"/>
      <point x="178.5" y="507.0" type="line"/>
      <point x="612.5" y="507.0" type="line"/>
      <point x="639.5" y="502.0" type="line"/>
      <point x="758.0" y="502.0" type="line"/>
      <point x="758.0" y="577.0" type="line"/>
      <point x="633.5" y="577.0" type="line"/>
      <point x="607.0" y="572.0" type="line"/>
      <point x="181.0" y="572.0" type="line"/>
      <point x="145.0" y="577.0" type="line"/>
      <point x="42.5" y="577.0" type="line"/>
    </contour>
    <component base="H" xOffset="24.0"/>
  </outline>
</glyph>
<glyph name="hbar" format="2">
  <advance width="570.7586206896551"/>
  <unicode hex="0127"/>
  <anchor x="285.55172413793105" y="0.0" name="bottom"/>
  <anchor x="132.89655172413794" y="638.0" name="center"/>
  <anchor x="285.55172413793105" y="740.0" name="top"/>
  <outline>
    <contour>
      <point x="-1.1034482758620712" y="607.4137931034483" type="line"/>
      <point x="266.8965517241379" y="607.4137931034483" type="line"/>
      <point x="266.8965517241379" y="667.9310344827586" type="line"/>
      <point x="-1.1034482758620712" y="667.9310344827586" type="line"/>
    </contour>
    <component base="h"/>
  </outline>
</glyph>
<glyph name="idotless" format="2">
  <advance width="214.82758620689654"/>
  <unicode hex="0131"/>
  <anchor x="107.58620689655172" y="0.0" name="bottom"/>
  <anchor x="142.24137931034483" y="0.0" name="ogonek"/>
  <anchor x="107.58620689655172" y="521.7241379310345" name="top"/>
  <outline>
    <contour>
      <point x="73.96551724137932" y="0.0" type="line"/>
      <point x="142.24137931034483" y="0.0" type="line"/>
      <point x="142.24137931034483" y="521.7241379310345" type="line"/>
      <point x="73.96551724137932" y="521.7241379310345" type="line"/>
    </contour>
  </outline>
</glyph>
<glyph name="kgreenlandic" format="2">
  <advance width="529.0"/>
  <unicode hex="0138"/>
  <anchor x="264.5" y="0.0" name="bottom"/>
  <anchor x="264.5" y="522.5" name="top"/>
  <outline>
    <contour>
      <point x="134.5" y="163.0" type="line"/>
      <point x="497.5" y="522.5" type="line"/>
      <point x="404.0" y="522.5" type="line"/>
      <point x="132.0" y="245.5" type="line"/>
    </contour>
    <contour>
      <point x="74.5" y="0.0" type="line"/>
      <point x="148.0" y="0.0" type="line"/>
      <point x="148.0" y="522.5" type="line"/>
      <point x="74.5" y="522.5" type="line"/>
    </contour>
    <contour>
      <point x="419.5" y="0.0" type="line"/>
      <point x="514.0" y="-0.5" type="line"/>
      <point x="254.5" y="317.0" type="line"/>
      <point x="203.0" y="275.0" type="line"/>
    </contour>
  </outline>
</glyph>
<glyph name="Lslash" format="2">
  <advance width="587.0"/>
  <unicode hex="0141"/>
  <anchor x="303.5" y="0.0" name="bottom"/>
  <anchor x="163.5" y="350.0" name="center"/>
  <anchor x="163.0" y="700.0" name="top"/>
  <anchor x="308.5" y="700.0" name="topright"/>
  <outline>
    <contour>
      <point x="46.5" y="273.5" type="line"/>
      <point x="330.5" y="398.0" type="line"/>
      <point x="306.0" y="457.5" type="line"/>
      <point x="23.5" y="330.0" type="line"/>
    </contour>
    <component base="L" xOffset="19.5"/>
  </outline>
</glyph>
<glyph name="lslash" format="2">
  <advance width="260.5"/>
  <unicode hex="0142"/>
  <anchor x="128.5" y="0.0" name="bottom"/>
  <anchor x="128.5" y="370.0" name="center"/>
  <anchor x="128.5" y="740.0" name="top"/>
  <anchor x="192.5" y="740.0" name="topright"/>
  <outline>
    <contour>
      <point x="24.5" y="289.5" type="line"/>
      <point x="261.5" y="394.0" type="line"/>
      <point x="234.5" y="452.5" type="line"/>
      <point x="-1.5" y="349.5" type="line"/>
    </contour>
    <component base="l" xOffset="15.5"/>
  </outline>
</glyph>
<glyph name="Eng" format="2">
  <advance width="785.1379310344828"/>
  <unicode hex="014A"/>
  <outline>
    <contour>
      <point x="522.448275862069" y="-195.68965517241378" type="line"/>
      <point x="617.3911379310346" y="-195.68965517241378"/>
      <point x="680.5862068965517" y="-129.31034482758622"/>
      <point x="680.5862068965517" y="-35.793103448275865" type="curve" smooth="yes"/>
      <point x="680.5862068965517" y="700.0" type="line"/>
      <point x="610.5862068965517" y="700.0" type="line"/>
      <point x="610.5862068965517" y="435.2758620689655" type="line" smooth="yes"/>
      <point x="611.2413793103449" y="324.4251724137931"/>
      <point x="613.5403448275862" y="163.5403448275862"/>
      <point x="620.1034482758621" y="74.75862068965517" type="curve"/>
      <point x="636.7586206896551" y="81.79310344827586" type="line"/>
      <point x="168.13793103448276" y="700.0" type="line"/>
      <point x="104.55172413793103" y="700.0" type="line"/>
      <point x="104.55172413793103" y="0.0" type="line"/>
      <point x="174.55172413793105" y="0.0" type="line"/>
      <point x="174.22413793103448" y="347.6724137931035" type="line" smooth="yes"/>
      <point x="173.89655172413794" y="387.51724137931035"/>
      <point x="167.51724137931035" y="560.4827586206897"/>
      <point x="163.06896551724137" y="621.6896551724138" type="curve"/>
      <point x="148.13793103448276" y="612.9310344827586" type="line"/>
      <point x="625.4827586206897" y="-13.758620689655174" type="line"/>
      <point x="610.5862068965517" y="47.82758620689655" type="line"/>
      <point x="610.5862068965517" y="-18.000000000000004" type="line" smooth="yes"/>
      <point x="610.5862068965517" y="-99.28768965517241"/>
      <point x="577.8157586206896" y="-140.27586206896552"/>
      <point x="495.2413793103448" y="-140.27586206896552" type="curve"/>
    </contour>
  </outline>
</glyph>
<glyph name="eng" format="2">
  <advance width="570.7586206896551"/>
  <unicode hex="014B"/>
  <outline>
    <contour>
      <point x="348.9655172413793" y="-195.68965517241378" type="line"/>
      <point x="439.03437931034483" y="-195.68965517241378"/>
      <point x="500.13793103448273" y="-133.65506896551724"/>
      <point x="500.13793103448273" y="-42.344827586206904" type="curve" smooth="yes"/>
      <point x="500.13793103448273" y="316.7241379310345" type="line" smooth="yes"/>
      <point x="500.13793103448273" y="463.8044827586207"/>
      <point x="439.91975862068966" y="532.7241379310345"/>
      <point x="326.0344827586207" y="532.7241379310345" type="curve" smooth="yes"/>
      <point x="248.42506896551723" y="532.7241379310345"/>
      <point x="172.5403448275862" y="486.91975862068966"/>
      <point x="142.24137931034483" y="430.55172413793105" type="curve"/>
      <point x="139.6206896551724" y="521.7241379310345" type="line"/>
      <point x="72.65517241379311" y="521.7241379310345" type="line"/>
      <point x="72.65517241379311" y="0.0" type="line"/>
      <point x="140.9310344827586" y="0.0" type="line"/>
      <point x="140.9310344827586" y="318.0" type="line" smooth="yes"/>
      <point x="140.9310344827586" y="398.68975862068964"/>
      <point x="210.09162068965517" y="468.86206896551727"/>
      <point x="304.48275862068965" y="468.86206896551727" type="curve" smooth="yes"/>
      <point x="388.7585172413793" y="470.2413793103448"/>
      <point x="431.86206896551727" y="420.26448275862066"/>
      <point x="431.86206896551727" y="313.0" type="curve" smooth="yes"/>
      <point x="431.86206896551727" y="-20.965517241379313" type="line" smooth="yes"/>
      <point x="431.40241379310345" y="-100.04586206896552"/>
      <point x="400.37931034482756" y="-140.27586206896552"/>
      <point x="321.7586206896552" y="-140.27586206896552" type="curve"/>
    </contour>
  </outline>
</glyph>
<glyph name="OE" format="2">
  <advance width="1018.0"/>
  <unicode hex="0152"/>
  <anchor x="509.5" y="0.0" name="bottom"/>
  <anchor x="509.5" y="700.0" name="top"/>
  <outline>
    <contour>
      <point x="375.5" y="0.0" type="curve" smooth="yes"/>
      <point x="943.5" y="0.0" type="line"/>
      <point x="943.5" y="77.0" type="line"/>
      <point x="600.5" y="77.0" type="line"/>
      <point x="600.5" y="321.5" type="line"/>
      <point x="889.5" y="321.5" type="line"/>
      <point x="889.5" y="398.5" type="line"/>
      <point x="600.5" y="398.5" type="line"/>
      <point x="600.5" y="623.0" type="line"/>
      <point x="945.5" y="623.0" type="line"/>
      <point x="945.5" y="700.0" type="line"/>
      <point x="385.5" y="700.0" type="line" smooth="yes"/>
      <point x="190.16649999999998" y="700.0"/>
      <point x="49.0" y="556.0"/>
      <point x="49.0" y="350.0" type="curve" smooth="yes"/>
      <point x="49.0" y="143.33350000000002"/>
      <point x="185.5" y="0.0"/>
    </contour>
    <contour>
      <point x="130.5" y="350.0" type="curve" smooth="yes"/>
      <point x="130.5" y="513.3335"/>
      <point x="237.5" y="623.0"/>
      <point x="389.5" y="623.0" type="curve" smooth="yes"/>
      <point x="521.5" y="623.0" type="line"/>
      <point x="521.5" y="77.0" type="line"/>
      <point x="379.5" y="77.0" type="line" smooth="yes"/>
      <point x="233.5" y="77.0"/>
      <point x="130.5" y="186.0"/>
    </contour>
  </outline>
</glyph>
<glyph name="oe" format="2">
  <advance width="1020.2758620689655"/>
  <unicode hex="0153"/>
  <anchor x="529.3103448275862" y="0.0" name="bottom"/>
  <anchor x="529.3103448275862" y="521.7241379310345" name="top"/>
  <outline>
    <contour>
      <point x="302.7586206896552" y="-10.0" type="curve" smooth="yes"/>
      <point x="416.51724137931035" y="-10.0"/>
      <point x="507.0689655172414" y="52.44827586206897"/>
      <point x="546.5172413793103" y="148.17241379310346" type="curve"/>
      <point x="520.4137931034483" y="148.48275862068965" type="line"/>
      <point x="558.551724137931" y="51.44827586206897"/>
      <point x="648.8275862068965" y="-10.0"/>
      <point x="763.7241379310345" y="-10.0" type="curve" smooth="yes"/>
      <point x="846.2413793103449" y="-10.0"/>
      <point x="919.7586206896551" y="24.0"/>
      <point x="965.4827586206897" y="68.37931034482759" type="curve"/>
      <point x="930.5172413793103" y="117.79310344827586" type="line"/>
      <point x="870.0" y="67.55172413793103"/>
      <point x="823.1034482758621" y="55.172413793103445"/>
      <point x="773.0689655172414" y="55.172413793103445" type="curve" smooth="yes"/>
      <point x="640.2413793103449" y="55.172413793103445"/>
      <point x="570.0689655172414" y="139.41379310344828"/>
      <point x="570.0689655172414" y="273.2068965517241" type="curve" smooth="yes"/>
      <point x="570.0689655172414" y="400.2413793103448"/>
      <point x="648.7241379310345" y="467.55172413793105"/>
      <point x="751.9310344827586" y="467.55172413793105" type="curve" smooth="yes"/>
      <point x="859.4137931034483" y="467.55172413793105"/>
      <point x="919.1724137931035" y="388.7241379310345"/>
      <point x="919.1724137931035" y="310.7931034482759" type="curve" smooth="yes"/>
      <point x="919.1724137931035" y="274.3448275862069" type="line"/>
      <point x="953.0344827586207" y="307.55172413793105" type="line"/>
      <point x="559.3793103448276" y="307.55172413793105" type="line"/>
      <point x="556.6896551724138" y="249.13793103448276" type="line"/>
      <point x="987.1379310344828" y="249.13793103448276" type="line"/>
      <point x="988.1379310344828" y="282.0" type="line" smooth="yes"/>
      <point x="992.448275862069" y="429.0"/>
      <point x="897.9310344827586" y="532.7241379310345"/>
      <point x="753.9655172413793" y="532.7241379310345" type="curve" smooth="yes"/>
      <point x="645.1724137931035" y="532.7241379310345"/>
      <point x="560.6206896551724" y="470.2758620689655"/>
      <point x="521.4137931034483" y="374.8620689655172" type="curve"/>
      <point x="546.8620689655172" y="374.8620689655172" type="line"/>
      <point x="507.41379310344826" y="470.58620689655174"/>
      <point x="416.86206896551727" y="532.7241379310345"/>
      <point x="302.7586206896552" y="532.7241379310345" type="curve" smooth="yes"/>
      <point x="147.67827586206897" y="532.7241379310345"/>
      <point x="34.758620689655174" y="419.4596551724138"/>
      <point x="34.758620689655174" y="263.0" type="curve" smooth="yes"/>
      <point x="34.758620689655174" y="104.793"/>
      <point x="147.67827586206897" y="-10.0"/>
    </contour>
    <contour>
      <point x="302.7586206896552" y="55.172413793103445" type="curve" smooth="yes"/>
      <point x="188.00010344827587" y="55.172413793103445"/>
      <point x="105.22999999999999" y="142.8621724137931"/>
      <point x="105.68965517241378" y="263.0" type="curve" smooth="yes"/>
      <point x="105.22999999999999" y="381.39113793103445"/>
      <point x="188.00010344827587" y="467.55172413793105"/>
      <point x="302.7586206896552" y="467.55172413793105" type="curve" smooth="yes"/>
      <point x="416.6437931034483" y="467.55172413793105"/>
      <point x="499.28724137931033" y="381.85079310344827"/>
      <point x="498.82758620689657" y="263.0" type="curve" smooth="yes"/>
      <point x="499.28724137931033" y="142.8621724137931"/>
      <point x="416.6437931034483" y="55.172413793103445"/>
    </contour>
  </outline>
</glyph>
<glyph name="Tbar" format="2">
  <advance width="537.3448275862069"/>
  <unicode hex="0166"/>
  <anchor x="269.0" y="0.0" name="bottom"/>
  <anchor x="269.0" y="350.0" name="center"/>
  <anchor x="269.0" y="700.0" name="top"/>
  <outline>
    <contour>
      <point x="134.3448275862069" y="321.41379310344826" type="line"/>
      <point x="402.3448275862069" y="321.41379310344826" type="line"/>
      <point x="402.3448275862069" y="381.9310344827586" type="line"/>
      <point x="134.3448275862069" y="381.9310344827586" type="line"/>
    </contour>
    <component base="T"/>
  </outline>
</glyph>
<glyph name="tbar" format="2">
  <advance width="371.5"/>
  <unicode hex="0167"/>
  <anchor x="186.0" y="0.0" name="bottom"/>
  <anchor x="186.0" y="261.5" name="center"/>
  <anchor x="184.0" y="612.0" name="top"/>
  <anchor x="246.0" y="763.5" name="topright"/>
  <outline>
    <contour>
      <point x="52.0" y="227.5" type="line"/>
      <point x="320.0" y="227.5" type="line"/>
      <point x="320.0" y="295.0" type="line"/>
      <point x="52.0" y="295.0" type="line"/>
    </contour>
    <component base="t"/>
  </outline>
</glyph>
<glyph name="Uogonek" format="2">
  <advance width="748.5172413793103"/>
  <unicode hex="0172"/>
  <anchor x="374.58620689655174" y="0.0" name="bottom"/>
  <anchor x="561.6206896551724" y="0.0" name="ogonek"/>
  <anchor x="374.58620689655174" y="700.0" name="top"/>
  <anchor x="728.5172413793103" y="700.0" name="topright"/>
  <outline>
    <contour>
      <point x="463.48275862068965" y="-213.75862068965517" type="curve" smooth="yes"/>
      <point x="509.51724137931035" y="-213.75862068965517"/>
      <point x="547.3448275862069" y="-191.9655172413793"/>
      <point x="569.2068965517242" y="-158.9655172413793" type="curve"/>
      <point x="528.2758620689656" y="-129.44827586206895" type="line"/>
      <point x="514.0" y="-147.41379310344828"/>
      <point x="494.1379310344828" y="-159.0344827586207"/>
      <point x="470.3103448275862" y="-159.0344827586207" type="curve" smooth="yes"/>
      <point x="437.17241379310343" y="-159.0344827586207"/>
      <point x="413.37931034482756" y="-136.82758620689657"/>
      <point x="413.37931034482756" y="-99.06896551724138" type="curve" smooth="yes"/>
      <point x="413.37931034482756" y="-40.724137931034484"/>
      <point x="474.0" y="2.8965517241379315"/>
      <point x="543.7931034482758" y="49.17241379310345" type="curve"/>
      <point x="513.6551724137931" y="79.10344827586206" type="line"/>
      <point x="428.8965517241379" y="27.51724137931034"/>
      <point x="350.55172413793105" y="-21.24137931034483"/>
      <point x="350.55172413793105" y="-106.17241379310344" type="curve" smooth="yes"/>
      <point x="350.55172413793105" y="-172.51724137931035"/>
      <point x="401.55172413793105" y="-213.75862068965517"/>
    </contour>
    <component base="U"/>
  </outline>
</glyph>
<glyph name="Schwa" format="2">
  <advance width="782.5"/>
  <unicode hex="018F"/>
  <anchor x="391.5" y="0.0" name="bottom"/>
  <anchor x="391.5" y="700.0" name="top"/>
  <outline>
    <contour>
      <point x="388.5" y="-10.0" type="curve" smooth="yes"/>
      <point x="579.8335" y="-10.0"/>
      <point x="733.5" y="149.333"/>
      <point x="733.5" y="348.0" type="curve" smooth="yes"/>
      <point x="733.5" y="548.667"/>
      <point x="576.5" y="707.5"/>
      <point x="380.5" y="707.5" type="curve" smooth="yes"/>
      <point x="273.16650000000004" y="707.5"/>
      <point x="186.5" y="673.6665"/>
      <point x="118.5" y="607.0" type="curve"/>
      <point x="170.0" y="552.5" type="line"/>
      <point x="225.4865" y="604.646"/>
      <point x="295.33349999999996" y="634.0"/>
      <point x="380.0" y="634.0" type="curve" smooth="yes"/>
      <point x="538.556" y="634.0"/>
      <point x="655.5" y="516.6665"/>
      <point x="655.5" y="350.0" type="curve" smooth="yes"/>
      <point x="655.5" y="186.0"/>
      <point x="538.8815" y="63.5"/>
      <point x="389.0" y="63.5" type="curve" smooth="yes"/>
      <point x="253.79149999999998" y="63.5"/>
      <point x="138.1695" y="171.7245"/>
      <point x="127.5" y="310.0" type="curve"/>
      <point x="700.0" y="310.0" type="line"/>
      <point x="695.5" y="383.5" type="line"/>
      <point x="49.0" y="383.5" type="line"/>
      <point x="49.0" y="326.5" type="line"/>
      <point x="53.6665" y="134.5"/>
      <point x="201.83350000000002" y="-10.0"/>
    </contour>
  </outline>
</glyph>
<glyph name="florin" format="2">
  <advance width="519.0"/>
  <unicode hex="0192"/>
  <outline>
    <contour>
      <point x="96.0" y="-31.0" type="curve" smooth="yes"/>
      <point x="175.54724137931035" y="-31.0"/>
      <point x="221.22955172413793" y="17.667"/>
      <point x="239.89655172413794" y="119.0" type="curve" smooth="yes"/>
      <point x="312.2068965517241" y="524.9655172413793" type="line" smooth="yes"/>
      <point x="326.36793103448275" y="598.4826551724138"/>
      <point x="353.6205862068966" y="631.5862068965517"/>
      <point x="410.44827586206895" y="631.5862068965517" type="curve" smooth="yes"/>
      <point x="432.6093103448276" y="631.5862068965517"/>
      <point x="456.667" y="623.7585172413793"/>
      <point x="491.2413793103448" y="606.1034482758621" type="curve"/>
      <point x="516.0" y="657.0" type="line"/>
      <point x="482.207" y="680.1266551724138"/>
      <point x="445.5173448275862" y="692.0"/>
      <point x="401.9310344827586" y="692.0" type="curve" smooth="yes"/>
      <point x="313.33344827586205" y="692.0"/>
      <point x="264.44817241379315" y="641.1266551724138"/>
      <point x="246.6551724137931" y="538.0" type="curve" smooth="yes"/>
      <point x="172.6896551724138" y="115.89655172413794" type="line" smooth="yes"/>
      <point x="163.83624137931034" y="67.1103448275862"/>
      <point x="142.74837931034483" y="28.44827586206896"/>
      <point x="94.58620689655173" y="28.44827586206896" type="curve" smooth="yes"/>
      <point x="68.18472413793103" y="28.44827586206896"/>
      <point x="52.58375862068966" y="34.07524137931034"/>
      <point x="26.103448275862068" y="53.93103448275862" type="curve"/>
      <point x="4.0" y="1.0" type="line"/>
      <point x="25.333" y="-17.667"/>
      <point x="61.333" y="-31.0"/>
    </contour>
    <contour>
      <point x="202.1724137931034" y="387.86206896551727" type="line"/>
      <point x="443.9310344827586" y="416.48275862068965" type="line"/>
      <point x="316.68965517241384" y="446.9655172413793" type="line"/>
      <point x="74.93103448275862" y="418.3448275862069" type="line"/>
    </contour>
  </outline>
</glyph>
<glyph name="Nhookleft" format="2">
  <advance width="779.6206896551724"/>
  <unicode hex="019D"/>
  <anchor x="390.3103448275862" y="0.0" name="bottom"/>
  <anchor x="390.3103448275862" y="700.0" name="top"/>
  <outline>
    <contour>
      <point x="10.896551724137932" y="-195.68965517241378" type="line"/>
      <point x="105.83941379310345" y="-195.68965517241378"/>
      <point x="169.0344827586207" y="-133.24137931034483"/>
      <point x="169.0344827586207" y="-39.724137931034484" type="curve" smooth="yes"/>
      <point x="169.0344827586207" y="325.7241379310345" type="line" smooth="yes"/>
      <point x="169.0344827586207" y="412.41379310344826"/>
      <point x="162.0" y="560.4827586206897"/>
      <point x="156.89655172413794" y="633.4827586206897" type="curve"/>
      <point x="143.9310344827586" y="610.3103448275862" type="line"/>
      <point x="609.4827586206897" y="0.0" type="line"/>
      <point x="675.0689655172414" y="0.0" type="line"/>
      <point x="675.0689655172414" y="700.0" type="line"/>
      <point x="605.0689655172414" y="700.0" type="line"/>
      <point x="605.0689655172414" y="435.2758620689655" type="line" smooth="yes"/>
      <point x="605.0689655172414" y="334.2527586206897"/>
      <point x="608.0231034482758" y="153.05758620689653"/>
      <point x="615.2413793103449" y="64.9310344827586" type="curve"/>
      <point x="628.6206896551724" y="85.06896551724137" type="line"/>
      <point x="162.6206896551724" y="700.0" type="line"/>
      <point x="99.0344827586207" y="700.0" type="line"/>
      <point x="99.0344827586207" y="-18.000000000000004" type="line" smooth="yes"/>
      <point x="99.0344827586207" y="-99.28768965517241"/>
      <point x="66.26403448275862" y="-140.27586206896552"/>
      <point x="-16.310344827586203" y="-140.27586206896552" type="curve"/>
    </contour>
  </outline>
</glyph>
<glyph name="Ohorn" format="2">
  <advance width="784.5"/>
  <unicode hex="01A0"/>
  <anchor x="392.5" y="0.0" name="bottom"/>
  <anchor x="392.5" y="700.0" name="top"/>
  <outline>
    <contour>
      <point x="392.0" y="-10.0" type="curve" smooth="yes"/>
      <point x="590.6665" y="-10.0"/>
      <point x="735.5" y="141.83350000000002"/>
      <point x="735.5" y="348.5" type="curve" smooth="yes"/>
      <point x="735.5" y="491.5"/>
      <point x="666.5" y="607.5"/>
      <point x="558.0" y="665.5" type="curve"/>
      <point x="549.5" y="645.0" type="line"/>
      <point x="643.5" y="653.0"/>
      <point x="692.0" y="717.0"/>
      <point x="692.0" y="811.5" type="curve"/>
      <point x="622.0" y="811.5" type="line"/>
      <point x="622.0" y="734.5"/>
      <point x="587.0" y="695.5"/>
      <point x="516.0" y="695.5" type="curve" smooth="yes"/>
      <point x="496.6775" y="695.5"/>
      <point x="477.85450000000003" y="697.8355"/>
      <point x="458.03200000000004" y="701.2465" type="curve" smooth="yes"/>
      <point x="438.59749999999997" y="704.9045"/>
      <point x="417.40999999999997" y="707.5"/>
      <point x="392.0" y="707.5" type="curve" smooth="yes"/>
      <point x="193.33350000000002" y="707.5"/>
      <point x="49.0" y="555.8335"/>
      <point x="49.0" y="348.5" type="curve" smooth="yes"/>
      <point x="49.0" y="141.16649999999998"/>
      <point x="193.33350000000002" y="-10.0"/>
    </contour>
    <contour>
      <point x="392.0" y="67.5" type="curve" smooth="yes"/>
      <point x="239.33350000000002" y="67.5"/>
      <point x="130.5" y="185.16649999999998"/>
      <point x="130.5" y="348.5" type="curve" smooth="yes"/>
      <point x="130.5" y="511.8335"/>
      <point x="239.33350000000002" y="630.0"/>
      <point x="392.0" y="630.0" type="curve" smooth="yes"/>
      <point x="544.0" y="630.0"/>
      <point x="654.0" y="511.16700000000003"/>
      <point x="654.0" y="348.5" type="curve" smooth="yes"/>
      <point x="654.0" y="185.833"/>
      <point x="544.0" y="67.5"/>
    </contour>
  </outline>
</glyph>
<glyph name="ohorn" format="2">
  <advance width="604.5172413793103"/>
  <unicode hex="01A1"/>
  <anchor x="302.7586206896552" y="0.0" name="bottom"/>
  <anchor x="302.7586206896552" y="521.7241379310345" name="top"/>
  <outline>
    <contour>
      <point x="302.7586206896552" y="-10.0" type="curve" smooth="yes"/>
      <point x="457.37931034482756" y="-10.0"/>
      <point x="569.7586206896551" y="104.793"/>
      <point x="569.7586206896551" y="263.0" type="curve" smooth="yes"/>
      <point x="569.7586206896551" y="367.86206896551727"/>
      <point x="519.551724137931" y="453.1034482758621"/>
      <point x="439.41379310344826" y="497.17241379310343" type="curve"/>
      <point x="431.7586206896552" y="475.7586206896552" type="line"/>
      <point x="513.7586206896551" y="484.2413793103448"/>
      <point x="556.5862068965517" y="543.4137931034483"/>
      <point x="556.5862068965517" y="629.1724137931035" type="curve"/>
      <point x="496.86206896551727" y="629.1724137931035" type="line"/>
      <point x="496.86206896551727" y="556.4137931034483"/>
      <point x="467.9310344827586" y="520.6896551724138"/>
      <point x="409.0344827586207" y="520.6896551724138" type="curve" smooth="yes"/>
      <point x="397.18796551724137" y="520.6896551724138"/>
      <point x="384.48275862068965" y="522.0344827586207"/>
      <point x="371.42596551724137" y="524.900172413793" type="curve" smooth="yes"/>
      <point x="350.86206896551727" y="529.0344827586207"/>
      <point x="327.956" y="532.7241379310345"/>
      <point x="302.7586206896552" y="532.7241379310345" type="curve" smooth="yes"/>
      <point x="147.67827586206897" y="532.7241379310345"/>
      <point x="34.758620689655174" y="419.4596551724138"/>
      <point x="34.758620689655174" y="263.0" type="curve" smooth="yes"/>
      <point x="34.758620689655174" y="104.793"/>
      <point x="147.67827586206897" y="-10.0"/>
    </contour>
    <contour>
      <point x="302.7586206896552" y="55.172413793103445" type="curve" smooth="yes"/>
      <point x="188.00010344827587" y="55.172413793103445"/>
      <point x="105.22999999999999" y="142.8621724137931"/>
      <point x="105.68965517241378" y="263.0" type="curve" smooth="yes"/>
      <point x="105.22999999999999" y="381.39113793103445"/>
      <point x="188.00010344827587" y="467.55172413793105"/>
      <point x="302.7586206896552" y="467.55172413793105" type="curve" smooth="yes"/>
      <point x="416.6437931034483" y="467.55172413793105"/>
      <point x="499.28724137931033" y="381.85079310344827"/>
      <point x="498.82758620689657" y="263.0" type="curve" smooth="yes"/>
      <point x="499.28724137931033" y="142.8621724137931"/>
      <point x="416.6437931034483" y="55.172413793103445"/>
    </contour>
  </outline>
</glyph>
<glyph name="Uhorn" format="2">
  <advance width="746.5"/>
  <unicode hex="01AF"/>
  <anchor x="373.5" y="0.0" name="bottom"/>
  <anchor x="373.5" y="700.0" name="top"/>
  <outline>
    <contour>
      <point x="372.0" y="-6.5" type="curve" smooth="yes"/>
      <point x="531.8335" y="-6.5"/>
      <point x="648.5" y="109.1665"/>
      <point x="648.5" y="268.5" type="curve" smooth="yes"/>
      <point x="648.5" y="681.5" type="line"/>
      <point x="615.5" y="642.0" type="line"/>
      <point x="711.5" y="652.0"/>
      <point x="766.0" y="715.5"/>
      <point x="766.0" y="812.0" type="curve"/>
      <point x="696.0" y="812.0" type="line"/>
      <point x="696.0" y="742.559"/>
      <point x="664.5" y="700.5"/>
      <point x="595.5" y="700.5" type="curve" smooth="yes"/>
      <point x="572.5" y="700.5" type="line"/>
      <point x="572.5" y="277.5" type="line" smooth="yes"/>
      <point x="572.5" y="158.83350000000002"/>
      <point x="486.5" y="70.5"/>
      <point x="372.0" y="70.5" type="curve" smooth="yes"/>
      <point x="262.16650000000004" y="70.5"/>
      <point x="177.0" y="158.83350000000002"/>
      <point x="177.0" y="277.5" type="curve" smooth="yes"/>
      <point x="177.0" y="700.5" type="line"/>
      <point x="98.0" y="700.5" type="line"/>
      <point x="98.0" y="268.5" type="line" smooth="yes"/>
      <point x="98.0" y="109.1665"/>
      <point x="213.16649999999998" y="-6.5"/>
    </contour>
  </outline>
</glyph>
